<svg xmlns="http://www.w3.org/2000/svg" style="display: none;">
    <symbol id="icon-star-full" viewBox="0 0 1792 1792">
        <path d="M1728 647q0 22-26 48l-363 354 86 500q1 7 1 20 0 21-10.5 35.5t-30.5 14.5q-19 0-40-12l-449-236-449 236q-22 12-40 12-21 0-31.5-14.5t-10.5-35.5q0-6 2-20l86-500-364-354q-25-27-25-48 0-37 56-46l502-73 225-455q19-41 49-41t49 41l225 455 502 73q56 9 56 46z"></path>
    </symbol>
    <symbol id="icon-star-half" viewBox="0 0 1792 1792">
        <path d="M1250 957l257-250-356-52-66-10-30-60-159-322v963l59 31 318 168-60-355-12-66zm452-262l-363 354 86 500q5 33-6 51.5t-34 18.5q-17 0-40-12l-449-236-449 236q-23 12-40 12-23 0-34-18.5t-6-51.5l86-500-364-354q-32-32-23-59.5t54-34.5l502-73 225-455q20-41 49-41 28 0 49 41l225 455 502 73q45 7 54 34.5t-24 59.5z"></path>
    </symbol>
    <symbol id="icon-star-empty" viewBox="0 0 1792 1792">
        <path d="M1201 1004l306-297-422-62-189-382-189 382-422 62 306 297-73 421 378-199 377 199zm527-357q0 22-26 48l-363 354 86 500q1 7 1 20 0 50-41 50-19 0-40-12l-449-236-449 236q-22 12-40 12-21 0-31.5-14.5t-10.5-35.5q0-6 2-20l86-500-364-354q-25-27-25-48 0-37 56-46l502-73 225-455q19-41 49-41t49 41l225 455 502 73q56 9 56 46z"></path>
    </symbol>
    <symbol id="icon-card" viewBox="0 0 14 9">
        <path d="M12,9H2A2,2,0,0,1,0,7V2A2,2,0,0,1,2,0H12a2,2,0,0,1,2,2V7A2,2,0,0,1,12,9Zm1-6.986a1,1,0,0,0-1-1H2a1,1,0,0,0-1,1V3H13V2.014ZM1,5V7A1,1,0,0,0,2,8H12a1,1,0,0,0,1-1V5H1Z"></path>
    </symbol>
    <symbol id="icon-fast-delivery" viewBox="0 0 512 512">
        <g>
            <g>
                <path d="M128.562,223.671l-17.447-17.231l-0.281-43.191c-0.027-4.126-3.38-7.451-7.499-7.451c-0.017,0-0.033,0-0.05,0
                            c-4.143,0.027-7.478,3.407-7.451,7.549l0.302,46.296c0.013,1.988,0.815,3.891,2.229,5.287l19.656,19.412
                            c1.461,1.444,3.365,2.165,5.27,2.165c1.935,0,3.869-0.744,5.336-2.23C131.538,231.33,131.508,226.581,128.562,223.671z"/>
            </g>
        </g>
        <g>
            <g>
                <path d="M330.671,281.574c-0.007-0.063-0.02-0.124-0.029-0.187c-0.027-0.206-0.059-0.409-0.103-0.609
                            c-0.016-0.071-0.036-0.14-0.054-0.21c-0.047-0.189-0.099-0.376-0.16-0.559c-0.025-0.074-0.053-0.146-0.08-0.22
                            c-0.065-0.175-0.134-0.347-0.211-0.516c-0.035-0.076-0.072-0.151-0.109-0.227c-0.08-0.16-0.165-0.316-0.255-0.469
                            c-0.045-0.077-0.091-0.154-0.139-0.229c-0.095-0.148-0.196-0.291-0.301-0.432c-0.053-0.071-0.104-0.143-0.159-0.213
                            c-0.122-0.152-0.252-0.297-0.385-0.439c-0.046-0.049-0.088-0.101-0.135-0.149c-0.186-0.189-0.382-0.368-0.588-0.536
                            c-0.003-0.002-0.005-0.005-0.008-0.007l-45.716-37.273c-3.212-2.619-7.935-2.136-10.552,1.073
                            c-2.618,3.21-2.137,7.935,1.073,10.552l29.387,23.96h-97.148c-4.141,0-7.498,3.357-7.498,7.5s3.357,7.5,7.5,7.5h97.148
                            l-29.387,23.959c-3.21,2.617-3.691,7.341-1.073,10.552c1.482,1.818,3.641,2.761,5.817,2.761c1.666,0,3.343-0.552,4.734-1.688
                            l45.716-37.272c0.003-0.002,0.005-0.005,0.008-0.007c0.206-0.168,0.401-0.348,0.588-0.536c0.047-0.048,0.089-0.099,0.135-0.148
                            c0.133-0.142,0.263-0.287,0.385-0.44c0.055-0.069,0.106-0.141,0.158-0.212c0.105-0.141,0.206-0.284,0.301-0.432
                            c0.048-0.075,0.094-0.152,0.139-0.229c0.09-0.153,0.175-0.309,0.255-0.468c0.037-0.075,0.074-0.151,0.109-0.227
                            c0.077-0.168,0.146-0.34,0.211-0.515c0.027-0.073,0.056-0.146,0.08-0.22c0.061-0.183,0.113-0.371,0.16-0.56
                            c0.018-0.07,0.038-0.139,0.054-0.21c0.044-0.2,0.076-0.404,0.103-0.609c0.008-0.063,0.022-0.124,0.029-0.187
                            c0.029-0.267,0.045-0.537,0.045-0.811C330.716,282.111,330.699,281.84,330.671,281.574z"/>
            </g>
        </g>
        <g>
            <g>
                <path d="M176.563,135.963c-3.491-3.458-7.188-6.632-11.056-9.523l10.686-12.952c2.636-3.194,2.183-7.922-1.013-10.558
                            c-3.194-2.637-7.923-2.184-10.558,1.013l-11.847,14.36c-12.777-6.9-26.906-11.03-41.641-12.076v-6.762h15.086
                            c7.667,0,13.905-6.238,13.905-13.906V73.704c0-7.668-6.238-13.906-13.905-13.906H80.445c-7.668,0-13.906,6.238-13.906,13.906
                            v11.855c0,7.668,6.238,13.906,13.906,13.906h15.69v6.768c-14.906,1.06-29.183,5.265-42.06,12.295l-12.032-14.585
                            c-2.637-3.196-7.363-3.649-10.558-1.013s-3.648,7.363-1.013,10.558l10.914,13.229c-3.994,3.013-7.799,6.332-11.383,9.95
                            c-19.481,19.668-30.135,45.744-30.002,73.426c0.133,27.682,11.038,53.654,30.705,73.134
                            c19.547,19.359,45.421,30.002,72.912,30.002c0.172,0,0.344,0,0.514-0.001c27.682-0.133,53.654-11.038,73.134-30.705
                            c19.481-19.668,30.135-45.744,30.002-73.426C207.135,181.416,196.23,155.443,176.563,135.963z M81.539,84.465v-9.667h43.587v9.667
                            H81.539z M166.61,271.966c-16.66,16.821-38.874,26.148-62.549,26.261c-0.147,0.001-0.292,0.001-0.439,0.001
                            c-23.51-0.001-45.642-9.103-62.359-25.659c-16.822-16.66-26.148-38.874-26.262-62.549C14.888,186.345,24,164.043,40.66,147.222
                            c16.66-16.821,38.874-26.148,62.549-26.261c0.146-0.001,0.291-0.001,0.438-0.001c23.512,0,45.643,9.103,62.361,25.66
                            c16.821,16.66,26.148,38.873,26.261,62.548C192.382,232.843,183.27,255.145,166.61,271.966z"/>
            </g>
        </g>
        <g>
            <g>
                <path d="M103.639,130.033c-0.128,0-0.258,0-0.387,0.001c-21.251,0.103-41.191,8.475-56.146,23.573
                            c-14.955,15.1-23.135,35.119-23.032,56.37c0.102,21.251,8.474,41.191,23.572,56.146c15.007,14.862,34.871,23.033,55.977,23.033
                            c0.132,0,0.263,0,0.394-0.001c21.251-0.103,41.191-8.474,56.146-23.573c14.955-15.099,23.135-35.118,23.032-56.369
                            C182.984,165.473,147.334,130.033,103.639,130.033z M149.506,255.026c-12.136,12.253-28.316,19.046-45.561,19.129
                            c-0.107,0.001-0.212,0.001-0.319,0.001c-17.125-0.001-33.246-6.631-45.423-18.69c-12.252-12.136-19.046-28.316-19.128-45.561
                            c-0.083-17.245,6.555-33.489,18.69-45.742c12.136-12.253,28.316-19.046,45.561-19.129c0.106-0.001,0.207-0.001,0.313-0.001
                            c35.453,0,64.386,28.76,64.557,64.252C168.279,226.529,161.641,242.774,149.506,255.026z"/>
            </g>
        </g>
        <g>
            <g>
                <path d="M140.572,379.632c-5.988-2.27-12.534-1.865-18.437,1.138c-5.661,2.88-10.059,7.844-12.383,13.978
                            c-4.894,12.919,0.968,27.158,13.066,31.742c2.557,0.969,5.215,1.45,7.882,1.45c3.579,0,7.173-0.867,10.555-2.588
                            c5.661-2.88,10.059-7.844,12.383-13.978C158.533,398.457,152.671,384.216,140.572,379.632z M139.611,406.06
                            c-0.998,2.636-2.83,4.739-5.157,5.923c-2.087,1.062-4.332,1.233-6.32,0.479c-4.364-1.653-6.317-7.217-4.354-12.4
                            c0.998-2.636,2.83-4.739,5.157-5.923c1.23-0.626,2.516-0.942,3.771-0.942c0.874,0,1.733,0.153,2.55,0.463
                            C139.622,395.313,141.575,400.876,139.611,406.06z"/>
            </g>
        </g>
        <g>
            <g>
                <path d="M429.516,379.632c-12.096-4.581-25.925,2.197-30.819,15.115c-4.894,12.919,0.968,27.158,13.066,31.742
                            c2.557,0.969,5.215,1.45,7.882,1.45c3.579,0,7.173-0.867,10.555-2.588c5.661-2.88,10.059-7.844,12.383-13.978
                            C447.477,398.457,441.615,384.216,429.516,379.632z M428.555,406.06c-0.998,2.636-2.83,4.739-5.157,5.923
                            c-2.088,1.062-4.331,1.233-6.32,0.479c-4.364-1.653-6.317-7.217-4.354-12.4c1.588-4.19,5.256-6.87,8.909-6.87
                            c0.866,0,1.731,0.15,2.568,0.468C428.566,395.313,430.519,400.876,428.555,406.06z"/>
            </g>
        </g>
        <g>
            <g>
                <path d="M507.214,273.695c-0.001-0.001-0.001-0.001-0.002-0.002c-10.985-12.441-22.326-25.411-34.668-39.649
                            c-3.675-4.242-9.157-6.679-15.042-6.687l-63.041-0.085c1.915-11.859,3.766-23.664,5.467-35.226
                            c0.688-4.817-0.676-9.606-3.739-13.14c-3.069-3.538-7.625-5.568-12.501-5.57c-52.495-0.016-80.507-0.034-124.988-0.063
                            l-28.319-0.019c-0.002,0-0.003,0-0.005,0c-4.14,0-7.497,3.354-7.5,7.495c-0.003,4.143,3.354,7.502,7.495,7.505l28.319,0.019
                            c44.483,0.028,72.495,0.047,124.993,0.063c0.534,0,0.951,0.142,1.173,0.397c0.279,0.322,0.275,0.827,0.228,1.162
                            c-3.641,24.754-7.973,50.709-12.21,75.96c-6.182,36.446-12.503,73.828-17.273,110.283c-0.02,0.147-0.041,0.296-0.06,0.443
                            c-2.322-0.001-4.646-0.001-6.972-0.002c-2.944-0.001-5.886-0.002-8.834-0.004c-3.782-0.002-7.568-0.006-11.354-0.009
                            c-2.329-0.002-4.656-0.004-6.986-0.006c-4.399-0.005-8.799-0.01-13.199-0.016c-1.732-0.002-3.463-0.004-5.195-0.007
                            c-5.126-0.007-10.249-0.015-15.369-0.024c-1.045-0.002-2.092-0.003-3.137-0.005c-12.043-0.02-24.06-0.044-36.021-0.069
                            c-0.509-0.001-1.021-0.002-1.529-0.003c-12.484-0.026-24.904-0.054-37.22-0.081l-37.972-0.083
                            c-3.733-6.673-8.94-12.128-15.25-15.999c-0.2-0.123-0.399-0.248-0.602-0.368c-0.338-0.2-0.68-0.392-1.023-0.583
                            c-0.294-0.163-0.589-0.323-0.887-0.479c-0.297-0.155-0.594-0.31-0.895-0.458c-0.383-0.19-0.771-0.371-1.161-0.549
                            c-0.24-0.11-0.477-0.223-0.719-0.329c-0.645-0.281-1.296-0.551-1.957-0.801c-0.678-0.257-1.361-0.494-2.049-0.715
                            c-0.376-0.121-0.755-0.226-1.134-0.337c-0.296-0.086-0.59-0.178-0.887-0.257c-0.522-0.141-1.046-0.264-1.572-0.384
                            c-0.139-0.032-0.278-0.067-0.417-0.097c-0.63-0.138-1.262-0.258-1.896-0.367c-0.02-0.003-0.039-0.007-0.059-0.01
                            c-6.797-1.157-13.784-0.651-20.539,1.497c-0.018,0.006-0.037,0.011-0.055,0.017c-0.539,0.172-1.076,0.359-1.611,0.552
                            c-0.207,0.074-0.415,0.147-0.622,0.225c-0.417,0.157-0.833,0.323-1.248,0.492c-0.176,0.071-0.353,0.135-0.528,0.208
                            c-0.171,0.072-0.338,0.152-0.508,0.225c-0.252,0.11-0.504,0.221-0.755,0.335c-0.502,0.229-0.999,0.468-1.493,0.714
                            c-0.117,0.058-0.236,0.109-0.352,0.169c-0.031,0.016-0.061,0.034-0.091,0.049c-0.612,0.313-1.218,0.64-1.817,0.98
                            c-0.251,0.142-0.496,0.292-0.744,0.438c-0.333,0.197-0.665,0.394-0.994,0.599c-0.337,0.209-0.669,0.423-1.001,0.64
                            c-0.197,0.129-0.392,0.261-0.587,0.393c-5.486,3.705-10.211,8.484-13.927,14.087l-7.927-0.009
                            c-5.912-0.008-11.824-0.016-17.735-0.02c1.389-8.568,3.694-22.803,6.425-39.678c0.662-4.089-2.116-7.94-6.205-8.602
                            c-4.103-0.673-7.94,2.117-8.602,6.205c-4.492,27.758-7.834,48.371-7.834,48.371c-0.003,0.018-0.003,0.036-0.006,0.055
                            c-0.003,0.019-0.008,0.037-0.011,0.056l-1.499,10.202c-0.817,5.56,0.82,11.188,4.491,15.439c3.67,4.25,8.995,6.689,14.611,6.69
                            l16.173,0.008c0.578,3.126,1.451,6.197,2.625,9.172c4.729,11.98,13.697,20.989,25.255,25.368
                            c4.936,1.87,10.023,2.757,15.072,2.757c19.09,0,37.626-12.685,45.285-32.899c0.541-1.427,1.012-2.869,1.427-4.318
                            c52.861,0.059,111.602,0.138,163.172,0.206l20.299,0.027c0.006,0,0.012,0.001,0.019,0.001c4.828-0.008,9.675,0.007,14.512,0.015
                            l1.342,0.002c0.578,3.012,1.428,5.971,2.561,8.841c4.729,11.98,13.697,20.989,25.255,25.368c4.911,1.86,10.026,2.785,15.167,2.785
                            c6.955,0,13.956-1.693,20.558-5.051c11.24-5.719,19.988-15.618,24.633-27.876c0.496-1.31,0.929-2.633,1.319-3.962h0.406
                            c2.98,0.005,5.962,0.01,8.943,0.01c10.614-0.002,20.187-8.131,21.795-18.515c5.543-36.05,11.338-74.043,15.914-107.471
                            C512.591,283.592,510.915,277.891,507.214,273.695z M87.423,391.329c-0.085,0.3-0.159,0.602-0.238,0.902
                            c-0.117,0.443-0.235,0.885-0.34,1.33c-0.089,0.377-0.167,0.755-0.248,1.132c-0.076,0.355-0.154,0.71-0.222,1.065
                            c-0.092,0.473-0.171,0.947-0.25,1.421c-0.04,0.244-0.082,0.487-0.118,0.731c-0.088,0.583-0.163,1.166-0.231,1.749
                            c-0.008,0.072-0.021,0.144-0.029,0.216l-15.662-0.008c-1.718-0.001-2.781-0.937-3.263-1.493c-0.482-0.56-1.255-1.751-1.005-3.456
                            l0.557-3.787c6.683,0.004,13.367,0.008,20.051,0.017l1.044,0.001C87.453,391.21,87.44,391.27,87.423,391.329z M162.497,406.28
                            c-0.007,0.041-0.007,0.083-0.013,0.124c-0.413,2.542-1.08,5.074-2.021,7.557c-6.754,17.824-25.151,27.44-41.016,21.429
                            c-7.558-2.863-13.459-8.847-16.617-16.848c-1.405-3.562-2.194-7.332-2.374-11.172c0-0.094,0.007-0.188,0.003-0.282
                            c-0.074-1.893-0.003-3.781,0.209-5.655c0.001-0.012,0.003-0.024,0.004-0.035c0.064-0.56,0.144-1.118,0.234-1.676
                            c0.018-0.113,0.036-0.226,0.056-0.339c0.078-0.457,0.167-0.913,0.262-1.369c0.037-0.175,0.071-0.351,0.111-0.526
                            c0.09-0.403,0.191-0.804,0.294-1.205c0.053-0.203,0.101-0.407,0.157-0.611c0.109-0.398,0.231-0.795,0.354-1.191
                            c0.06-0.193,0.114-0.387,0.177-0.579c0.19-0.582,0.392-1.162,0.611-1.738c0.004-0.009,0.008-0.019,0.011-0.028
                            c0.284-0.747,0.598-1.484,0.926-2.212c0.07-0.155,0.14-0.309,0.211-0.463c0.346-0.741,0.709-1.473,1.098-2.184
                            c0.03-0.054,0.062-0.107,0.092-0.161c6.949-12.572,20.169-19.533,32.624-17.894c0.247,0.034,0.495,0.06,0.742,0.101
                            c0.316,0.05,0.63,0.112,0.944,0.174c0.606,0.122,1.21,0.253,1.809,0.415c0.143,0.038,0.285,0.084,0.428,0.125
                            c0.716,0.207,1.428,0.432,2.13,0.698c0.46,0.174,0.913,0.361,1.36,0.558c0.28,0.124,0.554,0.259,0.83,0.392
                            c0.158,0.076,0.319,0.147,0.476,0.226c0.378,0.191,0.75,0.394,1.119,0.602c0.045,0.026,0.092,0.049,0.137,0.074
                            c5.399,3.093,9.698,7.989,12.328,14.13C162.77,392.738,163.567,399.503,162.497,406.28z M352.681,400.181l-13.57-0.019
                            c-50.905-0.067-108.816-0.146-161.143-0.204c-0.028-2.917-0.299-5.818-0.824-8.673l32.547,0.071
                            c22.188,0.049,44.718,0.099,67.351,0.14c1.815,0.003,3.628,0.007,5.444,0.01c3.497,0.006,6.996,0.011,10.496,0.017
                            c2.952,0.005,5.903,0.009,8.856,0.014c2.72,0.004,5.439,0.007,8.16,0.011c3.75,0.005,7.497,0.01,11.246,0.013
                            c2.225,0.002,4.448,0.004,6.673,0.006c4.151,0.004,8.299,0.007,12.445,0.01c1.998,0.001,3.993,0.002,5.99,0.003
                            c2.439,0.001,4.882,0.003,7.317,0.004C353.328,394.457,352.998,397.323,352.681,400.181z M451.395,406.577
                            c-0.005,0.03-0.005,0.06-0.01,0.09c-0.416,2.453-1.069,4.896-1.977,7.294c-3.318,8.76-9.501,15.799-17.407,19.82
                            c-7.667,3.9-16.05,4.472-23.608,1.608c-7.558-2.863-13.459-8.847-16.617-16.848c-1.386-3.513-2.17-7.229-2.364-11.014
                            c-0.001-0.054,0.003-0.108,0.001-0.162c-0.089-1.897-0.03-3.791,0.17-5.673c0.01-0.095,0.023-0.189,0.034-0.284
                            c0.056-0.487,0.122-0.973,0.198-1.458c0.03-0.19,0.061-0.379,0.093-0.568c0.067-0.394,0.142-0.788,0.222-1.181
                            c0.048-0.234,0.095-0.467,0.147-0.701c0.08-0.361,0.17-0.72,0.261-1.079c0.062-0.243,0.121-0.487,0.188-0.73
                            c0.104-0.379,0.219-0.757,0.336-1.135c0.066-0.213,0.126-0.427,0.195-0.639c0.192-0.587,0.395-1.172,0.616-1.755
                            c3.318-8.76,9.501-15.8,17.407-19.821c0.521-0.265,1.047-0.512,1.574-0.747c0.17-0.076,0.342-0.143,0.513-0.216
                            c0.36-0.153,0.72-0.302,1.082-0.44c0.202-0.077,0.404-0.148,0.606-0.221c0.337-0.121,0.674-0.237,1.013-0.346
                            c0.209-0.067,0.419-0.132,0.629-0.194c0.339-0.101,0.679-0.194,1.019-0.283c0.205-0.053,0.409-0.107,0.614-0.156
                            c0.364-0.087,0.729-0.163,1.094-0.235c0.179-0.036,0.358-0.075,0.537-0.108c0.481-0.086,0.963-0.16,1.445-0.222
                            c0.062-0.008,0.123-0.02,0.185-0.027c0.548-0.067,1.096-0.116,1.644-0.151c0.148-0.009,0.296-0.011,0.443-0.018
                            c0.397-0.019,0.794-0.034,1.191-0.037c0.138-0.001,0.276,0.004,0.415,0.005c0.744,0.006,1.486,0.034,2.225,0.1
                            c0.02,0.002,0.041,0.002,0.061,0.004c0.748,0.068,1.491,0.174,2.231,0.303c0.134,0.023,0.267,0.045,0.401,0.07
                            c0.714,0.135,1.424,0.297,2.129,0.489c0.129,0.035,0.258,0.075,0.387,0.112c0.729,0.21,1.455,0.44,2.171,0.711
                            c0.437,0.166,0.867,0.344,1.293,0.53c0.261,0.115,0.517,0.238,0.773,0.361c0.143,0.068,0.287,0.134,0.429,0.204
                            C447.177,377.723,453.838,391.867,451.395,406.577z M496.95,287.313c-4.56,33.305-10.343,71.228-15.876,107.208
                            c-0.47,3.036-3.793,5.802-6.971,5.802c-2.394,0-4.789-0.003-7.183-0.007c-0.016-6.247-1.168-12.426-3.463-18.241
                            c-4.231-10.72-11.863-19.05-21.701-23.823c-0.289-0.141-0.58-0.278-0.873-0.413c-0.271-0.124-0.541-0.25-0.815-0.368
                            c-0.615-0.267-1.235-0.525-1.866-0.764c-10.113-3.832-21.091-3.695-31.368,0.313c-1.468,0.572-2.922,1.224-4.357,1.954
                            c-11.24,5.718-19.988,15.618-24.633,27.876c-0.366,0.966-0.693,1.94-1.001,2.917c-0.09,0.284-0.174,0.568-0.259,0.852
                            c-0.236,0.792-0.453,1.586-0.651,2.383c-0.052,0.21-0.111,0.418-0.161,0.628c-0.233,0.988-0.434,1.98-0.609,2.973
                            c-0.037,0.208-0.067,0.417-0.101,0.626c-0.149,0.909-0.275,1.819-0.376,2.73c-0.009,0.084-0.026,0.166-0.034,0.25l-0.709-0.001
                            c-2.053-0.004-4.107-0.007-6.162-0.009c0.583-5.089,1.197-10.224,1.541-13.085c0.123-0.992,0.241-1.98,0.367-2.974
                            c4.647-36.357,11.078-74.693,17.304-111.783c0.208-1.24,0.418-2.491,0.626-3.734c0.071-0.417,0.142-0.836,0.212-1.253
                            c1.432-8.441,2.852-16.816,4.239-25.097l65.411,0.088c1.561,0.002,2.884,0.538,3.727,1.511
                            c12.372,14.273,23.741,27.275,34.757,39.75C496.796,284.56,497.145,285.875,496.95,287.313z"/>
            </g>
        </g>
        <g>
            <g>
                <path d="M483.347,287.497c-9.038-10.301-17.984-20.569-26.585-30.521c-2.354-2.721-5.837-4.284-9.558-4.289l-35.708-0.049
                            c-0.005,0-0.011,0-0.016,0c-6.841,0-13.051,5.256-14.141,11.97l-1.077,6.614c-2.433,14.944-4.949,30.399-7.349,45.618
                            c0,0.001-0.001,0.002-0.001,0.004c-0.571,3.638,0.435,7.285,2.761,10.008c2.361,2.764,5.884,4.352,9.666,4.354l67.633,0.05
                            c0.003,0,0.006,0,0.009,0c6.954,0,13.173-5.315,14.158-12.105c1.258-8.662,1.884-12.991,3.122-21.649
                            C486.783,293.851,485.722,290.204,483.347,287.497z M468.403,316.256l-64.203-0.048c2.252-14.223,4.596-28.62,6.868-42.576
                            l0.976-5.993l34.148,0.047c8.128,9.398,16.553,19.069,25.066,28.776C470.156,304.16,469.536,308.451,468.403,316.256z"/>
            </g>
        </g>
    </symbol>
    <symbol id="icon-history-delete" viewBox="0 0 486.4 486.4">
        <g>
            <g>
                <path d="M446,70H344.8V53.5c0-29.5-24-53.5-53.5-53.5h-96.2c-29.5,0-53.5,24-53.5,53.5V70H40.4c-7.5,0-13.5,6-13.5,13.5
                    S32.9,97,40.4,97h24.4v317.2c0,39.8,32.4,72.2,72.2,72.2h212.4c39.8,0,72.2-32.4,72.2-72.2V97H446c7.5,0,13.5-6,13.5-13.5
                    S453.5,70,446,70z M168.6,53.5c0-14.6,11.9-26.5,26.5-26.5h96.2c14.6,0,26.5,11.9,26.5,26.5V70H168.6V53.5z M394.6,414.2
                    c0,24.9-20.3,45.2-45.2,45.2H137c-24.9,0-45.2-20.3-45.2-45.2V97h302.9v317.2H394.6z"/>
                <path d="M243.2,411c7.5,0,13.5-6,13.5-13.5V158.9c0-7.5-6-13.5-13.5-13.5s-13.5,6-13.5,13.5v238.5
                    C229.7,404.9,235.7,411,243.2,411z"/>
                <path d="M155.1,396.1c7.5,0,13.5-6,13.5-13.5V173.7c0-7.5-6-13.5-13.5-13.5s-13.5,6-13.5,13.5v208.9
                    C141.6,390.1,147.7,396.1,155.1,396.1z"/>
                <path d="M331.3,396.1c7.5,0,13.5-6,13.5-13.5V173.7c0-7.5-6-13.5-13.5-13.5s-13.5,6-13.5,13.5v208.9
                    C317.8,390.1,323.8,396.1,331.3,396.1z"/>
            </g>
        </g>
    </symbol>
    <symbol id="icon-history-refresh" viewBox="0 0 512 512">
        <g>
            <g>
                <path d="M493.815,70.629c-11.001-1.003-20.73,7.102-21.733,18.102l-2.65,29.069C424.473,47.194,346.429,0,256,0
                            C158.719,0,72.988,55.522,30.43,138.854c-5.024,9.837-1.122,21.884,8.715,26.908c9.839,5.024,21.884,1.123,26.908-8.715
                            C102.07,86.523,174.397,40,256,40c74.377,0,141.499,38.731,179.953,99.408l-28.517-20.367c-8.989-6.419-21.48-4.337-27.899,4.651
                            c-6.419,8.989-4.337,21.479,4.651,27.899l86.475,61.761c12.674,9.035,30.155,0.764,31.541-14.459l9.711-106.53
                            C512.919,81.362,504.815,71.632,493.815,70.629z"/>
            </g>
        </g>
        <g>
            <g>
                <path d="M472.855,346.238c-9.838-5.023-21.884-1.122-26.908,8.715C409.93,425.477,337.603,472,256,472
                            c-74.377,0-141.499-38.731-179.953-99.408l28.517,20.367c8.989,6.419,21.479,4.337,27.899-4.651
                            c6.419-8.989,4.337-21.479-4.651-27.899l-86.475-61.761c-12.519-8.944-30.141-0.921-31.541,14.459l-9.711,106.53
                            c-1.003,11,7.102,20.73,18.101,21.733c11.014,1.001,20.731-7.112,21.733-18.102l2.65-29.069C87.527,464.806,165.571,512,256,512
                            c97.281,0,183.012-55.522,225.57-138.854C486.594,363.309,482.692,351.262,472.855,346.238z"/>
            </g>
        </g>
    </symbol>
    <symbol id="icon-history-check" viewBox="0 -46 417.81333 417">
        <path d="m159.988281 318.582031c-3.988281 4.011719-9.429687 6.25-15.082031 6.25s-11.09375-2.238281-15.082031-6.25l-120.449219-120.46875c-12.5-12.5-12.5-32.769531 0-45.246093l15.082031-15.085938c12.503907-12.5 32.75-12.5 45.25 0l75.199219 75.203125 203.199219-203.203125c12.503906-12.5 32.769531-12.5 45.25 0l15.082031 15.085938c12.5 12.5 12.5 32.765624 0 45.246093zm0 0"/>
    </symbol>
    <symbol id="icon-history-arrow" viewBox="0 0 444.52 444.52">
        <g>
            <g>
                <path d="M435.532,0.456L4.978,119.19c-6.518,1.799-6.652,5.135-0.3,7.454l222.383,81.249c6.353,2.319,13.305,9.376,15.532,15.759
                            l75.46,216.14c2.228,6.383,5.489,6.273,7.289-0.245L444.075,8.999C445.875,2.487,442.044-1.344,435.532,0.456z"/>
            </g>
        </g>
    </symbol>
    <symbol id="icon-history-close" viewBox="0 0 365.696 365.696">
        <path d="m243.1875 182.859375 113.132812-113.132813c12.5-12.5 12.5-32.765624 0-45.246093l-15.082031-15.082031c-12.503906-12.503907-32.769531-12.503907-45.25 0l-113.128906 113.128906-113.132813-113.152344c-12.5-12.5-32.765624-12.5-45.246093 0l-15.105469 15.082031c-12.5 12.503907-12.5 32.769531 0 45.25l113.152344 113.152344-113.128906 113.128906c-12.503907 12.503907-12.503907 32.769531 0 45.25l15.082031 15.082031c12.5 12.5 32.765625 12.5 45.246093 0l113.132813-113.132812 113.128906 113.132812c12.503907 12.5 32.769531 12.5 45.25 0l15.082031-15.082031c12.5-12.503906 12.5-32.769531 0-45.25zm0 0"/>
    </symbol>
    <symbol id="icon-header-time" viewBox="0 0 477.867 477.867">
        <g>
            <g>
                <path d="M238.933,0C106.974,0,0,106.974,0,238.933s106.974,238.933,238.933,238.933s238.933-106.974,238.933-238.933
                            C477.726,107.033,370.834,0.141,238.933,0z M238.933,443.733c-113.108,0-204.8-91.692-204.8-204.8s91.692-204.8,204.8-204.8
                            s204.8,91.692,204.8,204.8C443.611,351.991,351.991,443.611,238.933,443.733z"/>
            </g>
        </g>
        <g>
            <g>
                <path d="M238.933,85.333c-9.426,0-17.067,7.641-17.067,17.067v119.467H102.4c-9.426,0-17.067,7.641-17.067,17.067
                            S92.974,256,102.4,256h136.533c9.426,0,17.067-7.641,17.067-17.067V102.4C256,92.974,248.359,85.333,238.933,85.333z"/>
            </g>
        </g>
    </symbol>
    <symbol id="icon-header-user" viewBox="0 0 512 512">
        <g>
            <g>
                <path d="M437.02,330.98c-27.883-27.882-61.071-48.523-97.281-61.018C378.521,243.251,404,198.548,404,148
                            C404,66.393,337.607,0,256,0S108,66.393,108,148c0,50.548,25.479,95.251,64.262,121.962
                            c-36.21,12.495-69.398,33.136-97.281,61.018C26.629,379.333,0,443.62,0,512h40c0-119.103,96.897-216,216-216s216,96.897,216,216
                            h40C512,443.62,485.371,379.333,437.02,330.98z M256,256c-59.551,0-108-48.448-108-108S196.449,40,256,40
                            c59.551,0,108,48.448,108,108S315.551,256,256,256z"/>
            </g>
        </g>
    </symbol>
    <symbol id="icon-header-clock" viewBox="0 0 512 512">
        <path d="m256 0c-141.164062 0-256 114.835938-256 256s114.835938 256 256 256 256-114.835938 256-256-114.835938-256-256-256zm121.75 388.414062c-4.160156 4.160157-9.621094 6.253907-15.082031 6.253907-5.460938 0-10.925781-2.09375-15.082031-6.253907l-106.667969-106.664062c-4.011719-3.988281-6.25-9.410156-6.25-15.082031v-138.667969c0-11.796875 9.554687-21.332031 21.332031-21.332031s21.332031 9.535156 21.332031 21.332031v129.835938l100.417969 100.414062c8.339844 8.34375 8.339844 21.824219 0 30.164062zm0 0"/>
    </symbol>
    <symbol id="icon-header-exit" viewBox="0 0 18 18">
        <path d="M7.79 13.29C8.18 13.68 8.81 13.68 9.2 13.29L12.79 9.7C12.8827 9.60749 12.9563 9.4976 13.0064 9.37662C13.0566 9.25565 13.0824 9.12597 13.0824 8.995C13.0824 8.86403 13.0566 8.73435 13.0064 8.61338C12.9563 8.4924 12.8827 8.38251 12.79 8.29L9.2 4.7C9.01302 4.51302 8.75943 4.40798 8.495 4.40798C8.23057 4.40798 7.97698 4.51302 7.79 4.7C7.60302 4.88698 7.49798 5.14057 7.49798 5.405C7.49798 5.66943 7.60302 5.92302 7.79 6.11L9.67 8H1C0.45 8 0 8.45 0 9C0 9.55 0.45 10 1 10H9.67L7.79 11.88C7.4 12.27 7.41 12.91 7.79 13.29ZM16 0H2C1.46957 0 0.960859 0.210714 0.585786 0.585786C0.210714 0.960859 0 1.46957 0 2V5C0 5.55 0.45 6 1 6C1.55 6 2 5.55 2 5V3C2 2.45 2.45 2 3 2H15C15.55 2 16 2.45 16 3V15C16 15.55 15.55 16 15 16H3C2.45 16 2 15.55 2 15V13C2 12.45 1.55 12 1 12C0.45 12 0 12.45 0 13V16C0 17.1 0.9 18 2 18H16C17.1 18 18 17.1 18 16V2C18 0.9 17.1 0 16 0Z" fill="#434D54"/>
    </symbol>
</svg>