<?xml version="1.0" encoding="iso-8859-1"?>
<!-- Generator: Adobe Illustrator 19.0.0, SVG Export Plug-In . SVG Version: 6.00 Build 0)  -->
<svg version="1.1" id="Capa_1" xmlns="http://www.w3.org/2000/svg" xmlns:xlink="http://www.w3.org/1999/xlink" x="0px" y="0px"
	 viewBox="0 0 512 512" style="enable-background:new 0 0 512 512;" xml:space="preserve">
<g>
	<g>
		<path d="M476.606,155.393L421,99.787V46.623C421,20.915,400.085,0,374.377,0H137.623C111.915,0,91,20.915,91,46.623v53.164
			l-55.606,55.606c-2.67,2.67-4.322,6.373-4.382,10.384C31.01,165.853,31,165.926,31,166.001V497c0,8.284,6.716,15,15,15
			c5.087,0,414.488,0,420,0c8.284,0,15-6.716,15-15V166C481,162.022,479.42,158.206,476.606,155.393z M121,46.623
			C121,37.457,128.457,30,137.623,30h236.754C383.543,30,391,37.457,391,46.623V91H121V46.623z M331,482H61V181h270V482z
			 M82.213,151l30-30h257.574l-30,30H82.213z M451,482h-90V172.213l45-45l45,45V482z"/>
	</g>
</g>
<g>
	<g>
		<path d="M211,272.257V271c0-8.271,6.729-15,14.998-15c8.284,0,15-6.716,15-15s-6.716-15-15-15C201.187,226,181,246.187,181,271
			v1.257c-42.511,7.163-75,44.227-75,88.743c0,49.626,40.374,90,90,90c49.626,0,90-40.374,90-90
			C286,316.484,253.511,279.42,211,272.257z M196,421c-33.084,0-60-26.916-60-60s26.916-60,60-60s60,26.916,60,60
			S229.084,421,196,421z"/>
	</g>
</g>
<g>
</g>
<g>
</g>
<g>
</g>
<g>
</g>
<g>
</g>
<g>
</g>
<g>
</g>
<g>
</g>
<g>
</g>
<g>
</g>
<g>
</g>
<g>
</g>
<g>
</g>
<g>
</g>
<g>
</g>
</svg>
