<?xml version="1.0" encoding="iso-8859-1"?>
<!-- Generator: Adobe Illustrator 19.0.0, SVG Export Plug-In . SVG Version: 6.00 Build 0)  -->
<svg version="1.1" id="Capa_1" xmlns="http://www.w3.org/2000/svg" xmlns:xlink="http://www.w3.org/1999/xlink" x="0px" y="0px"
	 viewBox="0 0 512 512" style="enable-background:new 0 0 512 512;" xml:space="preserve">
<g>
	<g>
		<path d="M275.92,333.164c9.323-16.56-2.55-37.595-21.952-37.595c-19.12,0-31.215,20.521-22.245,37.162
			c-15.905-4.475-31.901,7.61-31.901,24.311c0,13.909,11.329,25.208,25.198,25.208c19.251,0,31.114-20.662,22.174-37.172
			c4.677,1.32,9.948,1.24,14.756-0.403c-9.343,16.53,2.6,37.575,22.013,37.575c13.879,0,25.208-11.299,25.208-25.208
			C309.171,339.706,292.016,327.631,275.92,333.164z M225.02,367.131c-5.544,0-10.079-4.536-10.079-10.089
			c0-5.564,4.536-10.089,10.079-10.089s10.079,4.526,10.079,10.089C235.099,362.595,230.564,367.131,225.02,367.131z
			 M253.968,330.846c-5.624,0-10.15-4.495-10.15-10.079c0-5.544,4.526-10.079,10.15-10.079c5.564,0,10.089,4.536,10.089,10.079
			C264.057,326.351,259.531,330.846,253.968,330.846z M283.963,367.131c-5.624,0-10.089-4.536-10.089-10.089
			c0-5.564,4.465-10.089,10.089-10.089c5.564,0,10.089,4.526,10.089,10.089C294.052,362.595,289.527,367.131,283.963,367.131z"/>
	</g>
</g>
<g>
	<g>
		<path d="M393.362,150.862c-12.801-24.059-108.875-27.032-136.341-27.083c30.417-33.506,44.957-90.16,38.775-116.555
			c-1.169-6.672-11.4-10.271-16.872-3.891l-56.937,65.373c-38.626,38.098-107.605,67.066-105.206,88.273v0.04
			c-0.102,0-0.016,28.371-0.02,48.652c0,4.226,3.375,7.559,7.559,7.559c4.156,0,7.569-3.369,7.569-7.559v-31.064
			c46.132,21.993,199.97,22.305,248.129,0.181c0,4.656,0,75.139,0,79.887c-0.907,2.368-13.975,6.957-14.081,6.995h-0.03
			c-56.243,16.251-140.274,11.47-139.969,11.47h-0.03c-4.011,0-7.317,3.145-7.539,7.227c-0.151,3.911,2.641,7.257,6.441,7.821
			c42.831,1.594,116.053,0.948,155.209-15.73c0,30.505-0.006,28.513,0.01,28.701c0.212,7.082,8.229,7.598,7.564,7.306
			c0.005,0,0.01,0.001,0.015,0.001c4.193,0,7.559-3.397,7.559-7.559C395.117,146.16,396.178,155.718,393.362,150.862z
			 M133.3,154.138c5.02-6.024,23.406-18.383,29.865-22.799c0.01,0,0.02,0,0.02,0c16.358-11.107,54.891-36.093,70.02-52.492
			l48.511-55.687v0.202c-0.968,30.056-16.127,70.746-39.198,93.776C214.646,144.812,155.398,159.433,133.3,154.138z
			 M164.031,168.501c19.917-2.975,40.546-9.727,57.693-18.515c0,0,0,0,0.01,0c6.31-3.276,12.357-6.894,17.911-10.845
			c44.15-1.164,125.625,5.012,139.858,18.384C360.608,175.02,235.678,183.167,164.031,168.501z"/>
	</g>
</g>
<g>
	<g>
		<path d="M387.587,323.589c-0.003,0-0.007,0-0.01,0c-4.265,0-7.559,3.539-7.559,7.559v48.582
			c-9.214,22.228-214.464,27.148-247.07,1.068l-1.058-1.018V272.447c11.797,7.232,50.762,12.161,63.146,13.587
			c4.182,0.436,7.845-2.66,8.295-6.783c0.393-4.122-2.631-7.831-6.783-8.255c-77.536-9.501-64.637-15.252-64.658-35.085
			c0-4.163-3.387-7.559-7.559-7.559c-4.223,0-7.559,3.397-7.559,7.559c-0.117,88.076-0.13,62.315,0,230.228
			c0,10.518,6.515,19.818,16.389,23.444c0,0,0,0,0.01,0.01c75.461,25.154,149.314,34.258,245.579-0.01
			c10.76-4.303,16.389-13.779,16.389-23.444c0-0.175,0.019-124.911,0.02-134.99C395.156,323.822,386.908,323.286,387.587,323.589z
			 M369.223,476.913c-80.123,27.411-161.618,25.218-230.883-1.562c-0.01,0-0.01,0-0.01,0c-3.901-1.381-6.441-5.1-6.441-9.212V397.55
			c49.736,22.849,202.451,20.691,248.129-0.01C379.116,474.305,385.146,470.621,369.223,476.913z"/>
	</g>
</g>
<g>
</g>
<g>
</g>
<g>
</g>
<g>
</g>
<g>
</g>
<g>
</g>
<g>
</g>
<g>
</g>
<g>
</g>
<g>
</g>
<g>
</g>
<g>
</g>
<g>
</g>
<g>
</g>
<g>
</g>
</svg>
