<svg height="512pt" viewBox="-26 0 512 512" width="512pt" xmlns="http://www.w3.org/2000/svg"><path d="m415 200h-35v-25c0-8.285156-6.714844-15-15-15h-350c-8.285156 0-15 6.714844-15 15v37.226562c0 30.535157 2.546875 61.289063 7.566406 91.40625l32.636719 195.832032c1.207031 7.234375 7.464844 12.535156 14.796875 12.535156h270c7.332031 0 13.589844-5.300781 14.796875-12.535156l11.578125-69.464844h63.625c24.8125 0 45-20.1875 45-45v-140c0-24.8125-20.1875-45-45-45zm-347.292969 282-30.550781-183.300781c-4.75-28.492188-7.15625-57.585938-7.15625-86.472657v-22.226562h320v22.226562c0 28.886719-2.40625 57.976563-7.15625 86.472657l-30.550781 183.300781zm362.292969-97c0 8.269531-6.730469 15-15 15h-58.625l16.0625-96.367188c4.042969-24.28125 6.480469-48.976562 7.273438-73.632812h35.289062c8.269531 0 15 6.730469 15 15zm0 0"/><path d="m85 90h75c13.785156 0 25 11.214844 25 25 0 8.285156 6.714844 15 15 15s15-6.714844 15-15c0-30.328125-24.671875-55-55-55h-75c-8.269531 0-15-6.730469-15-15s6.730469-15 15-15h185c8.285156 0 15-6.714844 15-15s-6.714844-15-15-15h-185c-24.8125 0-45 20.1875-45 45s20.1875 45 45 45zm0 0"/><path d="m283.4375 245.214844c-43.800781-14.949219-94.277344-2.441406-128.589844 31.875-31.941406 31.9375-44.980468 77.886718-34.570312 119.417968l-14.929688 14.929688c-5.855468 5.859375-5.855468 15.355469 0 21.214844 2.929688 2.925781 6.769532 4.394531 10.605469 4.394531 3.839844 0 7.679687-1.46875 10.609375-4.394531l14.917969-14.921875c9.425781 2.363281 19.078125 3.519531 28.746093 3.519531 32.921876 0 65.992188-13.402344 90.683594-38.097656 34.316406-34.3125 46.824219-84.785156 31.875-128.589844-1.5-4.394531-4.953125-7.847656-9.347656-9.347656zm-43.738281 116.726562c-19.601563 19.597656-45.90625 29.964844-71.722657 29.292969l43.4375-43.4375c5.859376-5.855469 5.859376-15.355469 0-21.210937-5.855468-5.859376-15.355468-5.859376-21.214843 0l-43.433594 43.4375c-.667969-25.820313 9.695313-52.125 29.292969-71.722657 24.390625-24.390625 59.160156-34.492187 90.453125-26.8125 7.679687 31.292969-2.425781 66.066407-26.8125 90.453125zm0 0"/></svg>