<?xml version="1.0" encoding="iso-8859-1"?>
<!-- Generator: Adobe Illustrator 19.0.0, SVG Export Plug-In . SVG Version: 6.00 Build 0)  -->
<svg version="1.1" id="Capa_1" xmlns="http://www.w3.org/2000/svg" xmlns:xlink="http://www.w3.org/1999/xlink" x="0px" y="0px"
	 viewBox="0 0 511.999 511.999" style="enable-background:new 0 0 511.999 511.999;" xml:space="preserve">
<g>
	<g>
		<path d="M500.079,293.619c-7.407-17.472-16.761-31.161-23.331-39.597c2.892-6.266,4.514-13.118,4.66-20.123
			c0.289-13.919-5.261-27.474-15.226-37.189c-16.125-15.719-41.347-35.639-75.115-48.526l5.499-19.303l-6.492-6.25
			C351.153,85.159,260.1,83.256,256.243,83.193l-0.244-0.004l-0.244,0.004c-3.857,0.063-94.91,1.965-133.83,39.438l-6.492,6.25
			l5.499,19.303c-33.768,12.887-58.99,32.807-75.115,48.526c-9.965,9.714-15.516,23.27-15.226,37.189
			c0.145,7.006,1.767,13.858,4.66,20.123c-6.57,8.436-15.924,22.124-23.331,39.597c-16.924,39.928-15.807,80.713,3.233,117.947
			c5.099,9.971,15.186,16.388,26.983,17.164c0.803,0.054,1.601,0.079,2.394,0.079c11.021,0,21.01-5.059,27.059-13.82
			c12.267-17.766,36.4-48.069,66.777-62.912l15.712,14.092l31.881-17.05h140.083l31.881,17.05l15.712-14.092
			c30.377,14.842,54.512,45.146,66.777,62.912c6.05,8.762,16.037,13.821,27.059,13.82c0.793,0,1.592-0.025,2.394-0.079
			c11.797-0.776,21.885-7.193,26.982-17.164C515.886,374.333,517.004,333.547,500.079,293.619z M46.897,397.943
			c-0.396,0.572-1.574,0.935-2.79,0.85c-1.208-0.08-2.078-0.565-2.242-0.886c-14.933-29.202-15.84-60.048-2.698-91.681
			c4.926-11.856,11.015-21.698,16.027-28.742l59.467,53.335C85.212,348.395,62.13,375.878,46.897,397.943z M158.461,329.802
			l-91.055-81.668c-4.279-3.836-6.7-9.113-6.82-14.857c-0.119-5.73,2.073-11.084,6.172-15.08
			c13.587-13.245,34.577-29.926,62.426-41.034l41.6,146.048L158.461,329.802z M311.183,319.117H200.816l-51.361-180.32
			c28.497-19.748,85.169-25.196,106.552-25.599c21.364,0.382,77.999,5.794,106.539,25.595L311.183,319.117z M353.536,329.801
			l-12.323-6.591l41.6-146.048c27.848,11.108,48.839,27.789,62.426,41.034c4.1,3.995,6.291,9.351,6.172,15.08
			c-0.12,5.744-2.541,11.021-6.82,14.857L353.536,329.801z M470.133,397.907c-0.163,0.32-1.034,0.806-2.241,0.886
			c-1.221,0.084-2.394-0.277-2.79-0.85c-15.234-22.065-38.316-49.548-67.764-67.124l59.476-53.344
			C471.903,298.714,496.829,345.701,470.133,397.907z"/>
	</g>
</g>
<g>
</g>
<g>
</g>
<g>
</g>
<g>
</g>
<g>
</g>
<g>
</g>
<g>
</g>
<g>
</g>
<g>
</g>
<g>
</g>
<g>
</g>
<g>
</g>
<g>
</g>
<g>
</g>
<g>
</g>
</svg>
