<svg id="Guide" height="512" viewBox="0 0 512 512" width="512" xmlns="http://www.w3.org/2000/svg"><path d="m234.483 89.086-213.783 73.487a15.843 15.843 0 0 0 -5.851 26.382l147.951 142.78a15.726 15.726 0 0 0 10.955 4.451 16.063 16.063 0 0 0 4.025-.516 15.734 15.734 0 0 0 11.177-10.722l65.83-216.268a15.842 15.842 0 0 0 -20.306-19.594zm8.826 16.1-65.83 216.268a3.843 3.843 0 0 1 -6.344 1.646l-147.957-142.78a3.843 3.843 0 0 1 1.419-6.4l213.787-73.488a3.842 3.842 0 0 1 4.925 4.753z"/><path d="m158.391 246.338a15.843 15.843 0 1 0 11.283 4.44 15.738 15.738 0 0 0 -11.283-4.44zm3.047 18.507a3.842 3.842 0 1 1 -2.833-6.509h.07a3.841 3.841 0 0 1 2.763 6.509z"/><path d="m182.438 151.779a20.763 20.763 0 0 0 .362 41.521h.38a20.63 20.63 0 0 0 14.571-6.341 20.786 20.786 0 0 0 -.523-29.359 20.5 20.5 0 0 0 -14.79-5.821zm6.676 26.846a8.764 8.764 0 1 1 -6.463-14.847h.16a8.765 8.765 0 0 1 6.3 14.85z"/><path d="m90.246 173.573a25.685 25.685 0 0 0 18.47 43.52h.469a25.685 25.685 0 1 0 -18.939-43.516zm28.329 27.339a13.678 13.678 0 1 1 -.344-19.351 13.595 13.595 0 0 1 .344 19.351z"/><path d="m491.132 260.686-214.622-71.013a15.842 15.842 0 0 0 -20.635 17.448l31.251 203.226a15.824 15.824 0 0 0 24.924 10.444l183.37-132.214a15.843 15.843 0 0 0 -4.288-27.891zm-2.73 18.156-183.371 132.214a3.843 3.843 0 0 1 -6.045-2.533l-31.25-203.223a3.786 3.786 0 0 1 1.316-3.518 3.866 3.866 0 0 1 2.456-.919 3.924 3.924 0 0 1 1.232.2l214.622 71.014a3.842 3.842 0 0 1 1.04 6.763z"/><path d="m325.959 257.617a15.844 15.844 0 1 0 -15.648-13.436 16.018 16.018 0 0 0 15.648 13.436zm-.574-19.642a3.894 3.894 0 0 1 .586-.045 3.844 3.844 0 1 1 -.586.045z"/><path d="m396.31 285.111a20.764 20.764 0 1 0 23.678 17.366 20.786 20.786 0 0 0 -23.678-17.366zm4.49 29.189a8.763 8.763 0 1 1 7.33-9.994 8.774 8.774 0 0 1 -7.33 9.994z"/><path d="m324.44 275.056a30.606 30.606 0 1 0 34.9 25.6 30.642 30.642 0 0 0 -34.9-25.6zm7.479 48.64a18.606 18.606 0 1 1 15.563-21.217 18.617 18.617 0 0 1 -15.563 21.221z"/></svg>