<svg id="Capa_1" enable-background="new 0 0 512 512" height="512" viewBox="0 0 512 512" width="512" xmlns="http://www.w3.org/2000/svg"><g><path d="m422 121h-45c-8.271 0-15-6.729-15-15v-15h-45c-41.355 0-75 33.645-75 75 0 36.219 25.808 66.522 60 73.491v91.509h-64.384l-120-60h-117.616v90h96.384l120 60h295.616c0-26.478 0-183.854 0-210 0-49.626-40.374-90-90-90zm-150 45c0-24.813 20.187-45 45-45h17.57c6.191 17.461 22.874 30 42.43 30h45c33.084 0 60 26.916 60 60h-165c-24.813 0-45-20.187-45-45zm120 165v-90h30v90zm-60-90h30v90h-30zm150 150h-258.534l-120-60h-73.466v-30h80.534l120 60h251.466zm0-60h-30v-90h30z"/></g></svg>