<?xml version="1.0" encoding="utf-8"?>
<!-- Generator: Adobe Illustrator 23.0.0, SVG Export Plug-In . SVG Version: 6.00 Build 0)  -->
<svg version="1.1" id="Слой_1" xmlns="http://www.w3.org/2000/svg" xmlns:xlink="http://www.w3.org/1999/xlink" x="0px" y="0px"
	 viewBox="0 0 552 552" style="enable-background:new 0 0 552 552;" xml:space="preserve">
<path d="M72.2,534.5h144.4c12.6,0,22.8-10.1,22.9-22.6v-77.6c0-69.4-27.4-110.5-68.3-150.9c-10.6-10.3-16.6-24.4-16.7-39.2V114.6
	c0-9.8,7.5-18,17.2-18.9c0.4,12.4,2.7,24.7,6.8,36.4c7.7,21.7,25.5,49.6,66.7,59.1c3,0.7,6.2-0.3,8.4-2.6c2.1-2.3,2.9-5.5,2-8.5
	c-0.9-3-3.4-5.3-6.4-6c-26.7-6.2-44.8-22-53.9-47.3c-3.6-10-5.6-20.5-6-31.1h51c5,0,9-3.9,9.3-8.9V46.6c0-4.8-4.4-8.3-9.3-8.3H93.1
	c-2.3-0.1-4.5,0.8-6.2,2.4L48.7,78.7c-1.7,1.6-2.6,3.8-2.6,6.1c0,2.3,0.9,4.5,2.5,6.2l28.5,28.6V216c0.1,1.7,0.6,3.4,1.6,4.8
	c-7,7.3-13.3,15.1-18.9,23.5c-15.8,23.5-24.1,51.3-24,79.6l-0.1,174C35.7,518.1,52.1,534.5,72.2,534.5z M222.1,511.9
	c-0.1,2.9-2.5,5.1-5.4,5.1H104.6V368.3c-0.1-10.9,4.2-21.4,11.9-29.1c7.7-7.7,18.1-12.1,29-12.1h41.3
	c21.8,28.7,35.4,61.3,35.4,107.3V511.9z M137.1,207H95.2l-0.6-0.1V197h42.5V207z M232.1,78.3h-16.3V55.8h16.3V78.3z M92.1,109.8
	L67.2,85l29.5-29.2h101.6v22.5h-24.7c-20.1,0-36.5,16.3-36.6,36.4v64.9H94.6V116C94.6,113.7,93.7,111.5,92.1,109.8z M53.3,324
	c-0.1-24.9,7.2-49.3,21.1-70c7.3-10.8,15.9-20.7,25.6-29.5h37.1v19.6c0,19.4,7.8,38.1,21.7,51.6c4.6,4.6,9,9.1,13.3,13.7h-26.6
	c-15.5,0-30.4,6.2-41.4,17.3c-10.9,11-17.1,25.9-17,41.5V517H72.2c-10.5,0-19-8.5-19-19L53.3,324z"/>
<path d="M347.6,67c0-4.8-3.9-8.8-8.8-8.8h-40.3c-4.8,0-8.7,3.9-8.7,8.8c0,4.8,3.9,8.8,8.7,8.8h40.3C343.7,75.8,347.6,71.8,347.6,67z
	"/>
<path d="M284.7,48.4c1,0,1.9-0.2,2.9-0.5L327.9,34c4.6-1.6,7-6.6,5.4-11.1c-1.6-4.6-6.6-7-11.1-5.4l-40.3,13.9
	c-4,1.4-6.5,5.5-5.8,9.7C276.8,45.3,280.4,48.4,284.7,48.4z"/>
<path d="M281.9,103.5l40.3,13.9c4.6,1.5,9.5-0.9,11.1-5.4c1.6-4.5-0.8-9.5-5.4-11.1l-40.3-13.9c-4.6-1.5-9.5,0.9-11.1,5.4
	C275,96.9,277.3,101.9,281.9,103.5z"/>
<path d="M137.9,405.8c-4.8,0-8.8,3.9-8.8,8.8c0,4.8,3.9,8.8,8.8,8.8h53.8c4.8,0,8.8-3.9,8.8-8.8c0-4.8-3.9-8.8-8.8-8.8H137.9z"/>
<path d="M180.4,453.3h-42.5c-4.8,0-8.8,3.9-8.8,8.8c0,4.8,3.9,8.8,8.8,8.8h42.5c4.8,0,8.8-3.9,8.8-8.8
	C189.2,457.2,185.3,453.3,180.4,453.3z"/>
</svg>
