<svg xmlns="http://www.w3.org/2000/svg" xmlns:xlink="http://www.w3.org/1999/xlink" viewBox="0 0 896.63 434.33"><defs><linearGradient id="t" x1="103.73" y1="175.69" x2="173.85" y2="175.69" xlink:href="#a"/><linearGradient id="a" x1="177.19" y1="71.29" x2="253.67" y2="71.29" gradientTransform="scale(1 -1) rotate(84.2 425.728 61.35)" gradientUnits="userSpaceOnUse"><stop offset=".2" stop-color="#ffd584"/><stop offset=".92" stop-color="#fcd271"/></linearGradient><linearGradient id="b" x1="300.54" y1="157.39" x2="382.9" y2="157.39" xlink:href="#a"/><linearGradient id="c" x1="454.83" y1="86.21" x2="549.39" y2="86.21" gradientTransform="rotate(108.63 383.159 52.743)" xlink:href="#a"/><linearGradient id="d" x1="317.58" y1="102.89" x2="337.76" y2="102.89" xlink:href="#a"/><linearGradient id="e" x1="335.2" y1="102.89" x2="355.38" y2="102.89" xlink:href="#a"/><linearGradient id="f" x1="513.07" y1="78.51" x2="583.24" y2="78.51" xlink:href="#a"/><linearGradient id="g" x1="537.97" y1="77.78" x2="546.79" y2="77.78" xlink:href="#a"/><linearGradient id="h" x1="520.32" y1="75.51" x2="568.37" y2="75.51" xlink:href="#a"/><linearGradient id="i" x1="1118.53" y1="48.62" x2="1131.34" y2="48.62" gradientTransform="matrix(-1 0 0 1 1414.53 0)" xlink:href="#a"/><linearGradient id="j" x1="1120.67" y1="20.38" x2="1129.34" y2="20.38" gradientTransform="matrix(-1 0 0 1 1414.53 0)" xlink:href="#a"/><linearGradient id="k" x1="1141.07" y1="30.97" x2="1159.91" y2="30.97" gradientTransform="matrix(-1 0 0 1 1414.53 0)" xlink:href="#a"/><linearGradient id="l" x1="689.67" y1="56.84" x2="702.48" y2="56.84" xlink:href="#a"/><linearGradient id="m" x1="691.81" y1="28.59" x2="700.48" y2="28.59" xlink:href="#a"/><linearGradient id="n" x1="712.21" y1="39.19" x2="731.05" y2="39.19" xlink:href="#a"/><linearGradient id="o" x1="720.95" y1="91.32" x2="768.1" y2="91.32" xlink:href="#a"/><linearGradient id="p" x1="710.57" y1="74.59" x2="759.66" y2="74.59" xlink:href="#a"/><linearGradient id="q" x1="148.69" y1="177" x2="178.34" y2="177" xlink:href="#a"/><linearGradient id="r" x1="142.15" y1="111.45" x2="195.5" y2="111.45" xlink:href="#a"/><linearGradient id="s" x1="109.02" y1="179.16" x2="147.03" y2="179.16" xlink:href="#a"/><style>.c{fill:#5e3c69}.d{fill:#69b78b}.e,.h{fill:#f7b9b9}.e,.q,.t{opacity:.32;mix-blend-mode:multiply}.f{fill:#cd4b76}.g{fill:#5b89c2}.i{fill:#fff}.l,.t{fill:#ab777d}.p,.q{fill:#e29ea6}.r{fill:none;stroke:#fff;stroke-width:.69px;stroke-miterlimit:10}.ac{fill:#c4edb9}.ad{opacity:.6}.ad,.ag{mix-blend-mode:overlay}.ae{fill:#428e60}.af{fill:#459b00}</style></defs><g style="isolation:isolate"><path d="M162.63 122c-13.09 5.16-27.35 11.35-32.34 22.61-10.76 24.27 29.26 46.79 25.08 72.41-3.58 21.91-35.46 30.93-53.22 47.47-14.1 13.13-19.1 32.52-12.71 49.27s24 30.25 44.62 34.3c32.52 6.37 70.17-9 98.53 5.65 20.82 10.73 28.8 34.5 51 43.06 23.9 9.2 51.25-3.47 72.6-16.26s46.71-27 71.92-20.58c24.32 6.15 39.73 30 65.13 31s43.11-21.52 67.59-27.47c24.88-6 50.38 6.06 76 9.2 37.18 4.56 76.8-12 94.35-39.53 4.62-7.24 7.79-15 10.93-22.81q7.66-18.9 15.34-37.81c7.06-17.44 14.21-35.21 14.58-53.6.5-24.59-11.85-49.18-33.26-66.24s-51.58-26.36-81.27-25c-13.17.58-28.69 2.46-37.46-5.69-12.56-11.67 1.88-30.36-2.8-45.5-3.7-12-19.37-19.33-34.32-19.84s-29.34 4.31-43.06 9.26-27.75 10.21-42.7 10.68c-24.48.75-46.47-11.28-69.6-18s-54.55-5.39-65.19 12.87C355.74 83 358 99.78 344.1 105.31c-13.58 5.39-27.78-5.93-36.65-16C301 82 290.19 70.82 277.79 72.88 269 74.34 257.73 84.3 249.4 87.75c-28.63 11.87-57.86 22.83-86.77 34.25z" fill="#cfe4ff"/><path class="c" d="M624.61 391.32c-6.31 2-8.49 1.81-15.13 1.38l-11 8.92s-12.59 9.64-11.31 13.12 35.99-7.74 35.99-7.74a5.82 5.82 0 003.57-8c-1.37-3.74-2.54-4.37-2.12-7.68zm28.88 1.68c6.47 1.39 8.63 1 15.2 0l11.73 7.89s13.43 8.43 12.47 12-36.52-4.45-36.52-4.45a5.82 5.82 0 01-4.28-7.63c1.02-3.81 2.13-4.58 1.4-7.81z"/><path class="d" d="M613.12 211.05L605 393.92s20.48 3.17 22.6-2.47 17.65-171.23 17.65-171.23z"/><path class="e" d="M613.48 216.34L605 393.92s20.48 3.17 22.6-2.47 17.65-168.75 17.65-168.75z"/><path class="d" d="M680.2 219.87l-4.59 174.75s-22.59 3.89-24.71 0-7.77-144.74-7.77-144.74l-7.76-12.36-19.77-26.12z"/><path class="f" d="M676.06 196.33c-1.19 9.16-2.78 18.41-1.59 27.57a68.5 68.5 0 01-44.75.41c-4.85-1.64-9.76-4-12.61-8.3-4.15-6.21-2.83-14.43-1.29-21.73q6.76-32.13 15.08-63.9c1.18-4.53 2.55-11 5.52-14.65 4.93-6 13.11-5.82 20.49-5.23 4.75.38 12-4 15.88-.77 5.14 4.21 5 18.82 5.36 24.69q.9 14.51.5 29.06a325.45 325.45 0 01-2.59 32.85z"/><path class="g" d="M698.21 125.26l16.59 62.84-32.13 28.24 15.54-91.08z"/><path class="c" d="M698.21 125.26l16.59 62.84-32.13 28.24 15.54-91.08zm-74.43-12.32l-40.7 65.99 56.24 25.09-15.54-91.08z"/><path class="h" d="M683.34 72c1.43.64 2.07 2.34 2.21 3.9a10.65 10.65 0 01-7.13 10.75c-1.33.42-3 .48-3.9-.58s-.54-2.74 0-4.07c.98-2.58 4.92-11.78 8.82-10z"/><path class="c" d="M684.08 75.77a3.29 3.29 0 00-1.73.55 8 8 0 00-3 3.15A13.23 13.23 0 00678 83.6a5.25 5.25 0 00-.14 1.8 9.42 9.42 0 00.47-1.73 16.84 16.84 0 011.46-4 8.59 8.59 0 012.79-3.08c.85-.59 1.52-.74 1.5-.82z"/><path class="c" d="M679.3 84.59c.06 0 .29-.24.62-.72a7.35 7.35 0 001-2.06 3.93 3.93 0 000-2.32c-.2-.57-.48-.84-.53-.8s.11.35.21.89a4.88 4.88 0 01-.11 2.11 12.72 12.72 0 01-.82 2c-.29.53-.43.87-.37.9z"/><path class="h" d="M635.33 72c-1.43.64-2.08 2.34-2.21 3.9a10.65 10.65 0 007.13 10.75c1.33.42 3 .48 3.9-.58s.54-2.74 0-4.07c-.98-2.58-4.92-11.78-8.82-10z"/><path class="c" d="M634.59 75.77a3.25 3.25 0 011.72.55 8 8 0 013 3.15 13.18 13.18 0 011.36 4.13 5.45 5.45 0 01.15 1.8 8.52 8.52 0 01-.47-1.73 16.84 16.84 0 00-1.46-4 8.59 8.59 0 00-2.79-3.08c-.86-.59-1.53-.74-1.51-.82z"/><path class="c" d="M639.37 84.59c-.06 0-.29-.24-.62-.72a7.34 7.34 0 01-1-2.06 4 4 0 010-2.32c.2-.57.48-.84.52-.8s-.1.35-.2.89a4.73 4.73 0 00.11 2.11 12.79 12.79 0 00.81 2c.3.53.43.87.38.9z"/><path class="h" d="M650.66 95.27l-.81 12.7a6.16 6.16 0 006.14 6.55h3a6.16 6.16 0 006.11-5.42l2.26-18.8z"/><path class="e" d="M665.5 105.74l1.86-15.44-16.7 5-.77 12.07a33.52 33.52 0 0015.61-1.63z"/><path class="h" d="M640.53 85.43a18.77 18.77 0 005.59 11.64c5.85 5.67 13 5.88 20.19 2.85 6-2.52 8.87-5.66 9.72-12.1.88-6.69 2.74-13.32.24-19.82a18.32 18.32 0 00-6.55-8.4 38.64 38.64 0 00-8.72-4.34c-5.11-2-12.72-4.51-16.92 1.54-4.84 7-4.19 20.28-3.57 28.33z"/><path class="c" d="M670 84.7c2.58-1.56 2.18-8.7 4.42-9.64a1.56 1.56 0 011.88 1 4.55 4.55 0 01.08 2.35c-.65 4.61 2.05 9.92.8 14.46-1.36 5-8.71 9-13.19 10.41a24.41 24.41 0 01-17.62-1.28 14.54 14.54 0 01-6.18-5.07c-1.58-2.48-3-9.25.07-11.17a6.35 6.35 0 011-6.75 6.67 6.67 0 010-6.4c2.09 2.61 1.22 7.41 2.95 10.17 2.16 3.46 9 4.06 12.68 4s9.97-.19 13.11-2.08zm.21-13.96c.16-.08 0-.52-.61-1.07a7.51 7.51 0 00-3.09-1.52 9.34 9.34 0 00-3.68-.19c-.93.16-1.41.43-1.35.57.14.3 2.22 0 4.56.67s3.82 1.72 4.17 1.54zm-16.13-1.87c0-.15-.68-.25-1.72-.2a14.42 14.42 0 00-3.79.73 7.49 7.49 0 00-2.82 1.6c-.51.52-.37.91-.09.94s.67-.21 1.32-.49 1.63-.7 2.74-1.08c2.28-.82 4.41-1.19 4.36-1.5z"/><path class="c" d="M650.52 78.37c-.71 0-1.39-.93-1.29-2.08s.94-2.06 1.65-2 1 .95.93 2.07-.58 2.01-1.29 2.01zm7.31-4.17c-.21 1.14-.34 2.26-.46 3.38l-.37 3.35-.08.84v.41a.9.9 0 01-.06.22.73.73 0 01-.34.36 1 1 0 01-.27.1 1.44 1.44 0 00-.59.3 1.5 1.5 0 00-.46 1.07 2 2 0 00.26 1 3.43 3.43 0 001.38 1.15A4.74 4.74 0 01656 85a1 1 0 01.25-1.1.53.53 0 01.19 0 2.08 2.08 0 00.53-.14 1.86 1.86 0 00.89-.78 1.54 1.54 0 00.2-.58l.07-.44.1-.85a23.22 23.22 0 00.1-3.44 17.16 17.16 0 00-.5-3.47z"/><path class="i" d="M654 91.52c.1-.06.4.19 1 .49a6.29 6.29 0 002.41.74 8 8 0 002.72-.24c.7-.18 1.13-.36 1.2-.29s-.27.38-1 .69a6.61 6.61 0 01-3.11.46 4.84 4.84 0 01-2.65-1c-.51-.45-.63-.81-.57-.85z"/><path class="c" d="M661.82 77.8a4.06 4.06 0 011.78-1.18 4.6 4.6 0 012-.13 7 7 0 012 .58 6.37 6.37 0 011.77 1.16l.08.06a.2.2 0 00.26 0c.28-.24.09-.56-.26-.44l.34.07a4.66 4.66 0 00-1.67-1.8 5.37 5.37 0 00-2.36-.81 4.06 4.06 0 00-2.48.51 3 3 0 00-1.46 1.98zm8.77-14.14l-.52.07c-11.4 1.37-21.78 1-31.12-6.76-1.61-1.34-3.17-3-3.45-5.06s1.44-4.45 3.5-4.1a4.68 4.68 0 011.28-5.54l13.3-.23a5.51 5.51 0 013.65-6.51c-.15 3.57 3.18 6.36 6.55 7.54s7.06 1.39 10.26 3a9.28 9.28 0 014.69 10.77c-1.16 4.66-3.94 6.23-8.14 6.82z"/><path class="c" d="M674.09 50.24c3.41.45 5.84 3.62 7 6.85a19.78 19.78 0 01-.85 15.28c-.5 1-1.09 2-1.69 3-1 1.73-3.24 6.91-5 3.43-.54-1.06.24-4.28.22-5.55a33.27 33.27 0 00-.48-5.55c-.83-4.6-3.06-9.14-6.93-11.76a13.91 13.91 0 00-12-1.59 15 15 0 00-8.88 8.28c-2.64 6.21-1 13.57-3.5 19.84 1.2-3-2.77-6.69-4.23-8.93a16.14 16.14 0 01-2.39-9.17c.1-4.66 1.37-10.62 4.38-14.29 2.73-3.33 11.12-1.93 13.82 1m19.23 58.65l25.42 15.53-13.42 132s-15.18-5.65-16.59-10.59 4.59-136.94 4.59-136.94zm-29.42 1.76l-23.89 121.44s-3.88 11.3-11.3 12.36S624 112.59 624 112.59z"/><path class="e" d="M653.68 205.14a45.26 45.26 0 017 .82c2.14.59 3.81 2.07 2.76 3.27s-3.73 1.36-6 1.37c-2.57 0-5.13 0-7.69-.16-6.05-.26-12.61-1-16.44-3.69-2.39-1.67-3.36-4-2.54-6.07a6.67 6.67 0 014.58-4c3.51-.62 3.71.93 5 2.33 2.77 3.05 7.18 5.48 13.33 6.13z"/><path class="c" d="M649.85 107.97l-14.59 2.7-6.06 70.76 20.65-73.46z"/><path class="e" d="M649.85 107.97l-14.59 2.7-6.06 70.76 20.65-73.46z"/><path class="c" d="M665.1 109.1l4.24 85.04 12.71-78.85-10.11-7.22-6.84 1.03z"/><path class="e" d="M665.1 109.1l4.24 85.04 13.58-78.85-10.98-7.22-6.84 1.03z"/><path class="c" d="M368.49 384.64c6.42 2 8.64 1.84 15.41 1.4l11.15 9.09s12.82 9.8 11.52 13.35-36.57-7.93-36.57-7.93a5.93 5.93 0 01-3.63-8.13c1.35-3.78 2.55-4.42 2.12-7.78zm-30.2.99c-6.58 1.41-8.77 1-15.47 0l-11.94 8s-13.67 8.58-12.7 12.24 37.18-4.53 37.18-4.53a5.93 5.93 0 004.37-7.77c-1.04-3.88-2.17-4.63-1.44-7.94z"/><path class="h" d="M465.34 181.91a17.44 17.44 0 011.68.69c.87.41 2.88.92 3.32 1.84 0 .07.68 2.29 0 2 4.57 2.07-.92 4.5-3.14 5-4.81 1-12.38.83-17.14-.76-4.09-1.38-12.19-4.46-10.21-10.24 2.68-7.79 15.74-5.76 21.88-5.37-.74 2.54-3 3-4.95 4.31 1.73.84 6.74 1.86 8.56 2.53z"/><path d="M367.81 103.74l6.23 7.79 23.83 34.65 51.69 27.46s-3.47 15.9-7.33 14.77-63.82-25.47-63.82-25.47L338 107.28z" fill="url(#a)"/><path class="e" d="M339.32 108.58l15.73-.39 29.41 45.26 57.77 34.96-63.82-25.47-39.09-54.36z"/><path class="g" d="M379.39 200.42l8.27 186.17s-20.85 3.23-23-2.52-18-174.31-18-174.31z"/><path class="e" d="M379.39 200.42l8.27 186.17s-20.85 3.23-23-2.52-18-174.31-18-174.31z"/><path class="g" d="M311.11 209.4l4.67 177.9s23 4 25.15 0 7.91-147.3 7.91-147.3l7.91-12.58 20.12-26.59z"/><path d="M367.81 103.74c-3.55-.68-5.78-3.55-9.53-4.24a64.81 64.81 0 00-13.71-.59c-8.49 0-15.26 2.79-23.84 2.23-1.33-.09-5.93 2.24-7.22 2.6-4.07 1.12-3.53 4.41-6.3 7.56-1.51 1.79-6.75 18.3-6.67 20.45.83 26.16-.85 52.91 3.06 78.75.19 1.24 7.79 3.15 9 3.49a49.85 49.85 0 0010.13 1.75c6.38.45 13 .07 19.45-.05 13.72-.28 27.68-1.71 40.74-6.13-.72-7.71-.34-15.78-1.16-23.64-.6-5.75-1.26-11.51-2.09-17.23-2.88-20.05-6.31-40-10-59.94-.3-1.75-1.58-3.29-1.86-5.01z" fill="url(#b)"/><path class="h" d="M311.8 63.07c-1.45.65-2.11 2.38-2.25 4A10.84 10.84 0 00316.82 78c1.35.43 3.05.49 4-.59s.56-2.79 0-4.14c-1.03-2.63-5.04-11.99-9.02-10.2z"/><path class="c" d="M311.05 66.93a3.34 3.34 0 011.76.56 8.06 8.06 0 013.08 3.2 13.4 13.4 0 011.4 4.21 6 6 0 01.15 1.83A8.63 8.63 0 01317 75a16.67 16.67 0 00-1.48-4 8.93 8.93 0 00-2.84-3.14c-.97-.68-1.68-.86-1.63-.93z"/><path class="c" d="M315.92 75.91c-.06 0-.3-.24-.63-.73a7.63 7.63 0 01-1-2.1 4.14 4.14 0 010-2.36c.2-.59.49-.86.53-.82s-.1.36-.2.91a4.86 4.86 0 00.11 2.14 12 12 0 00.83 2.06c.27.52.44.86.36.9z"/><path class="h" d="M360.68 63.07c1.46.65 2.11 2.38 2.25 4A10.83 10.83 0 01355.67 78c-1.35.43-3.05.49-4-.59s-.55-2.79 0-4.14c1.03-2.63 5.04-11.99 9.01-10.2z"/><path class="c" d="M361.43 66.93a3.32 3.32 0 00-1.75.56 8.08 8.08 0 00-3.09 3.2 13.61 13.61 0 00-1.39 4.21 5.3 5.3 0 00-.15 1.83 9.11 9.11 0 00.48-1.76 17.1 17.1 0 011.48-4 8.93 8.93 0 012.84-3.14c.92-.65 1.61-.83 1.58-.9z"/><path class="c" d="M356.57 75.91c.05 0 .3-.24.62-.73a7.35 7.35 0 001-2.1 4.06 4.06 0 000-2.36c-.21-.59-.49-.86-.54-.82s.11.36.21.91a4.74 4.74 0 01-.12 2.14 12.94 12.94 0 01-.84 2.05c-.25.53-.39.87-.33.91z"/><path class="h" d="M345.07 85.36l-17-3.64 1.39 15.59c.38 2.27 3.89 5.62 7.06 5.62h3.05c3.62 0 7.45-3 7.22-5.62z"/><path class="e" d="M330 97.44l-1.89-15.72 17 5.06.79 12.29a34.21 34.21 0 01-15.9-1.63z"/><path class="h" d="M355.39 76.76a19.27 19.27 0 01-5.69 11.86c-6 5.77-13.23 6-20.56 2.89-6.09-2.56-9-5.76-9.89-12.32-.9-6.81-2.8-13.56-.25-20.18a18.59 18.59 0 016.67-8.54 39 39 0 018.88-4.42c5.21-2 12.95-4.6 17.23 1.56 4.93 7.11 4.27 20.65 3.63 28.84-.01.11-.01.21-.02.31z"/><path class="l" d="M325.17 61.81c-.17-.09 0-.53.62-1.09a7.67 7.67 0 013.15-1.55 9.31 9.31 0 013.75-.19c.94.16 1.43.44 1.37.58-.14.31-2.26 0-4.65.68s-3.89 1.76-4.24 1.57zm16.42-1.91c0-.15.69-.25 1.75-.2a14.66 14.66 0 013.86.75 7.47 7.47 0 012.87 1.55c.51.53.38.93.09.95s-.68-.2-1.34-.49-1.66-.71-2.79-1.1c-2.28-.76-4.49-1.14-4.44-1.46z"/><path class="c" d="M345.22 69.57c.72 0 1.41-.95 1.3-2.11s-.95-2.1-1.67-2.07-1 1-1 2.11.64 2.07 1.37 2.07zm-16 .92c.7.13 1.55-.68 1.66-1.85s-.56-2.23-1.27-2.34-1.2.77-1.31 1.91.2 2.15.92 2.28zm8.55-5.17c.22 1.17.34 2.31.47 3.45l.37 3.41.08.85v.42a.78.78 0 00.4.59 1.17 1.17 0 00.28.11 1.33 1.33 0 01.6.31 1.47 1.47 0 01.47 1.08 1.87 1.87 0 01-.27 1 3.46 3.46 0 01-1.39 1.18 4.78 4.78 0 00.86-1.42 1 1 0 00-.26-1.11.38.38 0 00-.19 0 2.72 2.72 0 01-.54-.15 1.92 1.92 0 01-.91-.79 1.79 1.79 0 01-.21-.6l-.06-.44-.1-.87a24 24 0 01-.1-3.5 17.21 17.21 0 01.5-3.52zM341.64 83c-.11-.06-.42.2-1 .5a6.28 6.28 0 01-2.45.75 8.36 8.36 0 01-2.77-.24c-.71-.19-1.15-.37-1.22-.29s.28.38 1 .69a6.72 6.72 0 003.17.47 5 5 0 002.69-1c.55-.51.67-.88.58-.88z"/><path class="c" d="M345.74 80.9l-14 .59s-.78 5.59 4.92 6.14c7.85.76 9.08-6.73 9.08-6.73z"/><path class="f" d="M338 84.38a7.12 7.12 0 00-5.77.23 4.92 4.92 0 004.49 3 8.76 8.76 0 004.47-.61 6.63 6.63 0 00-3.19-2.62z"/><path class="l" d="M324.64 55.56a9.2 9.2 0 004.3-.14c-1.05-1.13.29-3.34 1.77-2.93a12.9 12.9 0 0012.91 4A2.29 2.29 0 01345.7 53c.91 1.85 1.81 3.7 2.72 5.54a11.79 11.79 0 0010.43-11.33c0-13.76-19.45-13.48-28.83-12.48-6.68.71-15 4.12-13.79 12.39.6 4.25 4.29 7.63 8.41 8.44z"/><path class="l" d="M321.22 40.94c-3.47.46-5.94 3.68-7.13 7a20.14 20.14 0 00.91 15.52c.51 1.05 1.11 2 1.72 3 1.07 1.77 3.3 7 5.11 3.5.55-1.08-.25-4.36-.23-5.66a34.59 34.59 0 01.5-5.65c.84-4.68 3.11-9.3 7.05-12a14.13 14.13 0 0112.19-1.61 15.17 15.17 0 019.05 8.42c2.69 6.32 1 13.82 3.55 20.2-1.22-3.07 2.83-6.81 4.31-9.09a16.4 16.4 0 002.44-9.33c-.11-4.76-1.4-10.82-4.46-14.55-2.78-3.39-11.32-2-14.07 1"/><path class="f" d="M310.91 104L319 214.93l11.26 1.16-10.11-115.82s-6.35 1.16-9.24 3.73zm56.22-3.42l8.65 110.87-11 2.77-6-114.47s5.12-1.24 8.35.83z"/><path class="e" d="M337.87 170.56l-15.69-39.09c-3.06-7.35-11.36-6.22-19-8.48l-.65-.19 21.23 51.36c4.71-1.16 9.42-2.36 14.11-3.6z"/><path d="M312.81 186.06c7.55-4.27 16.42-6.58 23.77-11.08l-1.07-.91-15.67-39-8.93-31s-19.13 5.47-17.62 30.9c-.63-.05 18.63 48.81 19.52 51.09z" fill="url(#c)"/><path class="e" d="M352.23 98.53c-5.86-3.3-11.23 2-16 5.55-4.8-3.56-10.17-8.85-16-5.55a5.17 5.17 0 00-2.86 4.53c.11 1.93 1.64 3.46 3.19 4.63a29.59 29.59 0 0011.13 5.23 11.86 11.86 0 014.57-7.1 11.81 11.81 0 014.57 7.1 29.56 29.56 0 0011.14-5.23c1.54-1.17 3.07-2.7 3.19-4.63a5.17 5.17 0 00-2.93-4.53z"/><path d="M320.45 96.22a5.17 5.17 0 00-2.86 4.53c.11 1.93 1.64 3.46 3.18 4.63a29.71 29.71 0 0011.14 5.23 11.82 11.82 0 015.85-7.93c-5.12-3.44-10.92-10.06-17.31-6.46z" fill="url(#d)"/><path d="M352.51 96.22a5.17 5.17 0 012.87 4.53c-.12 1.93-1.65 3.46-3.19 4.63a29.56 29.56 0 01-11.14 5.23 11.82 11.82 0 00-5.85-7.93c5.12-3.44 10.93-10.06 17.31-6.46z" fill="url(#e)"/><path class="c" d="M421.75 73.7c.18-6.23 4.26-11.9 9.54-14.86s11.56-3.52 17.51-2.71c4.56.62 9.13 2.06 12.71 5 6.12 5.09 8.37 14.25 6.41 22.14s-7.63 14.44-14.47 18.43c-2.7 1.58-5.79 2.83-8.84 2.25s-5.82-3.57-5.27-6.74"/><path class="p" d="M443.79 98.74c2.26 5.62 2.89 12.3 8.75 14.35 8.67 3.46 19.86 6.78 12.56 9.31-.89.31-3.82 8.38-4.62 7.87-.47-.3-23.57 16.53-23.82 16-1.08-2.07-15.54-11.33-16.18-13.57-.43-1.51-8-7.71-7.65-9.24.43-2.11 20.82-9.58 21.05-11.29s-1.9-4-2.59-5.41l-3.55-7.6z"/><path class="q" d="M433.81 112.18l-6.07-13 16.05-.45 4.15 10.35a31 31 0 01-14.13 3.1z"/><path class="p" d="M417.74 94.63a19.62 19.62 0 003.27 8.54c1.65 2.49 3.72 3.31 6.24 4.22 8 2.89 19.5 1.73 23-8.71 1.42.94 3.27-.35 3.89-2.11s.17-3.15.21-4.83c0-1.39.21-2.71.17-4.12a28.34 28.34 0 00-1.67-10.1 16.8 16.8 0 00-6.38-7.52 36.87 36.87 0 00-8.41-3.75c-4.91-1.7-12.21-3.82-16.08 1.78-2.24 3.25-1.52 9.67-2.41 13.65-.95 4.22-2.3 8.5-1.83 12.95z"/><path class="p" d="M458.81 86.22c1.3.81 1.71 2.53 1.64 4.07a10.39 10.39 0 01-8.29 9.49c-1.34.25-3 .09-3.7-1.06s-.17-2.72.5-3.94c1.3-2.36 6.29-10.78 9.85-8.56z"/><path class="c" d="M459 90a3.2 3.2 0 00-1.74.31A7.75 7.75 0 00454 93a12.91 12.91 0 00-1.86 3.84 5.6 5.6 0 00-.37 1.71 8.69 8.69 0 00.68-1.61 16.51 16.51 0 011.92-3.66 8.48 8.48 0 013.1-2.64c.91-.5 1.58-.57 1.53-.64z"/><path class="c" d="M453.28 97.92c.05 0 .31-.19.69-.61a7.1 7.1 0 001.21-1.88 3.94 3.94 0 00.28-2.24c-.13-.59-.37-.88-.41-.85s.05.36.08.89a4.51 4.51 0 01-.38 2 11.33 11.33 0 01-1 1.86c-.35.49-.52.79-.47.83zm-8.82-11.58c.16-.07 0-.5-.54-1.08a7.42 7.42 0 00-2.92-1.67 9.24 9.24 0 00-3.58-.4c-.92.1-1.4.34-1.35.47.11.31 2.16.18 4.41.93s3.62 1.91 3.98 1.75zm-6.89 11.58c-.13-.06-.46.27-1.08.68a7.51 7.51 0 01-2.79 1.11 9.51 9.51 0 01-3.26 0c-.85-.14-1.37-.31-1.45-.21s.36.41 1.26.71a7.9 7.9 0 003.74.24A5.7 5.7 0 00437 99c.58-.6.69-1 .57-1.08zm-9.96-15.56c0-.15-.38-.37-1.07-.54a7 7 0 00-2.68-.09 4.83 4.83 0 00-2.27.86c-.48.39-.5.78-.32.86s.49 0 1-.18a16.76 16.76 0 012.09-.44c1.64-.27 3.19-.17 3.25-.47zm2.57 2.12a17.11 17.11 0 01.23 3.35 23.45 23.45 0 01-.32 3.34l-.15.82-.05.22c0 .09-.05.17-.07.26a2.3 2.3 0 01-.26.49 2 2 0 01-.86.71 1.83 1.83 0 01-.55.13.24.24 0 00-.17 0 1 1 0 00-.32 1 4.53 4.53 0 00.74 1.4 3.23 3.23 0 01-1.27-1.2 1.9 1.9 0 01-.19-1 1.44 1.44 0 01.51-1 1.32 1.32 0 01.58-.26.62.62 0 00.25-.09.88.88 0 00.36-.38.8.8 0 00.11-.25.7.7 0 000-.14v-.19L429 91l.56-3.24c.14-1.1.34-2.19.62-3.28zm7.61 7.13c.58.12 1.3-.52 1.42-1.48s-.41-1.85-1-1.95-1 .59-1.12 1.53.12 1.77.7 1.9z"/><path class="c" d="M438.29 89a2.29 2.29 0 001.45-1 1.34 1.34 0 01-1 1.64 2.07 2.07 0 002-.24 2.2 2.2 0 01-2.56.67m-13.02.68c-.58 0-1.21-.69-1.2-1.66s.65-1.78 1.24-1.8.92.73.91 1.67-.35 1.74-.95 1.79z"/><path class="c" d="M425 88.12a2.28 2.28 0 01-1.3-1.23 1.34 1.34 0 00.77 1.76 2.11 2.11 0 01-2-.52 2.19 2.19 0 002.46 1m2.5 10l11.3-1.71s1.49 4.35-3 5.68c-6.14 1.84-8.3-3.97-8.3-3.97z"/><path class="f" d="M434.18 100.71a5.79 5.79 0 014.65-.72 4 4 0 01-3.13 3.1 7.11 7.11 0 01-3.66.21 5.36 5.36 0 012.14-2.59z"/><path class="r" d="M428 88.4a7.68 7.68 0 11-7.26-8.07A7.67 7.67 0 01428 88.4zm18.87 2.25a7.68 7.68 0 11-7.27-8.07 7.68 7.68 0 017.27 8.07zm-20.19-.35a6.49 6.49 0 016-.13"/><path class="r" d="M446.5 89.72a41.51 41.51 0 0111.06-4c.68-.14 1.63-.09 1.76.59"/><path class="c" d="M428.93 80.27C433.68 80 438.2 78 442.57 76c-1.3.58 9.29 10.33 10.93 10.83 5.55 1.71 6.51-5.85 6.31-10-.24-4.8-1-9.4-5-12.22a28.66 28.66 0 00-31.61-.73c-3.14 2-9 6.51-6.93 10.86 1.85 3.83 7.55 5.55 11.44 5.53.39.04.81.03 1.22 0z"/><path class="c" d="M443.14 67.71a30.38 30.38 0 0160.2 7.75c-.78 9.62-6 18.29-8.15 27.71a43.68 43.68 0 0016 43.31 38.87 38.87 0 01-33.64-40.87c.37-6 2.13-11.87 2.83-17.86s.21-12.5-3.42-17.31-11.14-7-15.92-3.33c-1.24 1-2.21 2.2-3.38 3.23a5.63 5.63 0 01-4.27 1.66c-1.55-.19-2.95-1.77-2.48-3.26"/><path class="g" d="M390.8 166.38a11.06 11.06 0 005 5.56c2.63 1.41 5.94 3 9 2.24s5.24-3.34 7-5.91a75.05 75.05 0 0010.89-23.5c1.26-4.73 2.05-9.81.52-14.46-1.16-3.54-5.27-8.29-9.33-8.22a3.81 3.81 0 00-3.82 4.25c.32 3.06-.15 6-2.57 8.18-1.48 1.35-3.39 2.12-5 3.31s-3 3.09-2.62 5S402 146.1 402 148a4.28 4.28 0 01-2.28 3.42c-1.22.74-2.63 1.13-3.9 1.79a10.89 10.89 0 00-5.57 11.55 9.75 9.75 0 00.55 1.62z"/><path class="q" d="M390.8 166.38a11.06 11.06 0 005 5.56c2.63 1.41 5.94 3 9 2.24s5.24-3.34 7-5.91a75.05 75.05 0 0010.89-23.5c1.26-4.73 2.05-9.81.52-14.46-1.16-3.54-5.27-8.29-9.33-8.22a3.81 3.81 0 00-3.82 4.25c.32 3.06-.15 6-2.57 8.18-1.48 1.35-3.39 2.12-5 3.31s-3 3.09-2.62 5S402 146.1 402 148a4.28 4.28 0 01-2.28 3.42c-1.22.74-2.63 1.13-3.9 1.79a10.89 10.89 0 00-5.57 11.55 9.75 9.75 0 00.55 1.62z"/><path class="d" d="M442.3 407c1.26 3.43 2.65 6.08 3.9 7.13 2.2 1.84 5.52 2.5 8 1.05 2.3-1.35 3.4-4.18 3.38-6.85 0-4.19-2.15-6.54-3.86-10-2.39-4.83-3.64-10.64-5.37-15.75-.69-2-1.58-4.27-3.55-5.09-9.8-4.18-6.93 17.43-2.5 29.51z"/><path class="q" d="M442.3 407c1.26 3.43 2.65 6.08 3.9 7.13 2.2 1.84 5.52 2.5 8 1.05 2.3-1.35 3.4-4.18 3.38-6.85 0-4.19-2.15-6.54-3.86-10-2.39-4.83-3.64-10.64-5.37-15.75-.69-2-1.58-4.27-3.55-5.09-9.8-4.18-6.93 17.43-2.5 29.51z"/><path class="c" d="M462.13 202s11.57 16.38 8.9 79.28c-2.08 49.08-21.5 101.07-21.5 101.07s-13 .84-15.85-3.29 9-99.19 7.76-107-5.65-54.33-5.65-54.33l1.67-21z"/><path class="q" d="M462.13 202s11.57 16.38 8.9 79.28c-2.08 49.08-21.5 101.07-21.5 101.07s-13 .84-15.85-3.29 9-99.19 7.76-107-5.65-54.33-5.65-54.33l1.67-21z"/><path class="p" d="M413.71 201.16c14.48 7.18 33.63 1.94 48.77 0-3.62.45-8.12-41.07-8.76-45.28-.2-1.32-31.24 3.16-35 3.65a193.38 193.38 0 010 24.55c-.06 1.97-2.33 18.41-5.01 17.08zm3.15 111.94s1.65 15.61 21 79.37c-.48 2.75-.8 7.25 1.32 9.64s15.9-7.26 12.17-11.45c-11.75-13.23-7.56-52.78-9.4-67.3l-7.69-14.89z"/><path class="d" d="M449.18 385.22c-4.43 3.56-6.24 4.11-11.69 5.85l-6 10.59s-7.07 11.67-4.95 14 26.35-17.52 26.35-17.52a5 5 0 00.36-7.52c-2.25-2.49-3.37-2.62-4.07-5.4z"/><path class="g" d="M463.18 131.17c1 3.06 1.62 6.24 2.6 9.29s2.58 5.13.9 8.27c-.93 1.73-2.64 3.22-2.58 5.17.07 2.74 3.5 4.27 4.11 6.94.74 3.28-3.08 6.37-2.2 9.61.62 2.28 3.22 3.33 5.53 3.81a22.91 22.91 0 009.68.15 13.6 13.6 0 008.09-5.07 9.73 9.73 0 001.32-9.24c-.86-2.08-2.56-3.85-2.82-6.08-.21-1.82.59-3.6.82-5.41a11.86 11.86 0 00-1.86-7.5c-1.74-2.9-5-5-5.62-8.39a45.39 45.39 0 00-.84-5.09c-.65-2.09-3-5.68-4.81-6.89s-3.13 0-5.3-.29"/><path class="c" d="M413.43 201.21c-8.55 22.79-10.53 45.33-6.43 69.34.46 2.68 1 7.71 1.53 10.32.63 3.21.93 6.52 1.45 9.76 1 6.46 2.24 12.91 3.55 19.32 2.43 11.87 5.25 23.65 8.36 35.35 3.18 12 7.69 28 11.64 39.73 0 0 11.94-1 14.66-5.23s-11.44-101.39-10.35-109.25c2.12-15.4 2.79-31.08 4.06-46.58 2-.55 25.58-7.17 25.57-7.19l-6.33-20.89a103 103 0 01-46.07 1.11c-.57 1.41-1.07 2.8-1.64 4.21z"/><path class="q" d="M450.46 182a11.88 11.88 0 005.47-3c1.42-1.55 2-4 .94-5.79 0 .07-17.91 4-19.68 4.14-6.49.63-12.91-.26-19.32 0 2 3.6 9.29 5 13.05 5.69a41.44 41.44 0 0019.54-1.04z"/><path class="g" d="M474.93 120.87c-.69-.88-3.59-1.4-8.81-3.16l-6.93 5.47a33.32 33.32 0 01-43.62-2c-1.3.57-5.08 2-3.75 1.87 4.55 3 5.14 9 3.92 14.3s-3.61 10.53-2.91 15.92c.53 4 2.74 7.64 3.83 11.55 1 3.48-2.56 9.22-1.76 11.25 1.32 3.36 11.23 3.59 14.49 3.85 6.89.55 30.78.66 34.09-7.38 1.15-2.8-1.84-8-1.82-11.18 0-6.61 2.52-14.05 4.63-20.25a102.44 102.44 0 017.17-16.26c.74-1.37 2.54-2.67 1.47-3.98z"/><path class="q" d="M430.63 166.29c-.92.27-2 .82-1.95 1.77s1.09 1.23 1.93 1.39a25.18 25.18 0 0022.81-7.59c-4.42-3.75-17.82 2.98-22.79 4.43z"/><path d="M513.24 76.4a29.24 29.24 0 0015.16 28.54l-2.08-5.53a97 97 0 0031.1 6c3.61.09 7.33 0 10.65-1.45s6.2-4.37 6.59-8l6.62 4.48a37.4 37.4 0 00-8.07-37.34c-17.14-17.92-56.61-15.9-59.97 13.3z" fill="url(#f)"/><path class="d" d="M504.12 187.52a27.09 27.09 0 0115.37-4.52 57.07 57.07 0 01-2.13-18.33c.23-7.19 2.73-14.63 8.22-19.29 3.8-3.23 8.07-8.5 9-13.4 1.09-5.52-4.87-11.65-10.13-12.45-5.7-.85-7.72 3-10.18 7.08-6.55 10.88-11.94 27.12-12.45 39.81a72.12 72.12 0 002.3 21.1z"/><path class="l" d="M563.81 310.82s-.08 14.43-25 79.52c.3 2.91.5 9.06-1.89 11.4s-14.83-7.79-11.85-12.85c11.7-19.93 14.63-63.08 17.62-78.1l6.26-6.38z"/><path class="l" d="M583 227.11s.4 3.7.37 12.41c0 14-4.3 33.46-6.09 39.53-2.93 9.86-33.8 98.78-33.8 98.78s-11.56 2.09-10.39-5.2c3.46-21.66 19.62-137.12 19.62-137.12z"/><path class="p" d="M583 227.11l-34.34 14.13s-8.13 104.07-17.17 132.19c-1.12 3.49-4.35 11.34-4.36 11.6-2.3 6.52.78.45-2.71 3.86-4.2 4.1 9.46 15.18 11.85 12.85s2.39-7.06 2.09-10c7.73-20.2 13-35.66 16.7-47.37 9.09-26.34 20.5-59.54 22.22-65.35 1.79-6.07 6-25.55 6.09-39.53.03-8.68-.37-12.38-.37-12.38z"/><path class="l" d="M526.08 208.88c7.64 5.82 13.25 7.25 20.06 6.92 8.52-.42 27.73 0 28.83-9.49-4.38-14.24-3.26-31.57-3.44-47.52l-21.22 6c-4.55 1.28-14.66 2-16.08 6.66-.81 2.61.14 6.85-.08 9.67a71 71 0 01-1.41 9.6c-.47 2.16-4.29 18.16-6.66 18.16z"/><path class="t" d="M554.73 181.09c3.8-.08 7.71-.54 11.07-2.33s6.09-5.16 6.2-9l-34.34 4.93c-7.52 1.08-2.2 3.93 2.06 5a57.3 57.3 0 0015.01 1.4z"/><path class="p" d="M565.9 315s5.28 15.54 14.91 84.55c1.67 2.4 4 6.54 3 9.74s-18.28.09-16.58-5.53c5.35-17.72-14.48-53.5-19.11-68.1l-.75-17.42z"/><path class="g" d="M566.89 397.64c5.77 1.44 7.72 1.17 13.66.42l10.32 7.43s11.83 8 10.87 11.17S569 411.6 569 411.6a5.24 5.24 0 01-3.64-7c1.06-3.38 2.08-4.01 1.53-6.96zm-39.8-14.26c4.36 4 6.2 4.75 11.76 7l5.45 11.49s6.52 12.69 4.13 15-26.21-20.22-26.21-20.22a5.24 5.24 0 01.19-7.87c2.59-2.5 3.74-2.56 4.68-5.4z"/><path class="p" d="M542 121.36a79.84 79.84 0 0044.1-26.91c10.56-12.81 15.79-27.81 18.42-43.85a13.42 13.42 0 00.17-5c-.16-.76-3.35-12.11.92-7.05A15.59 15.59 0 00607.4 41c-1-.79 0-10 .13-11.51a3.34 3.34 0 01.45-1.73 1.26 1.26 0 011.61-.43 1.72 1.72 0 01.56.72l2.13 4.07a3.56 3.56 0 013.55.83 7.32 7.32 0 011.88 3.24c3.27 9.91-4 15.33-6.27 24.34-1 3.65-2.73 6.9-3.24 10.64-4.79 35.25-30.33 58.9-63.83 71.14-.93.34-1 2.62-.61 1.74"/><path class="d" d="M558 113.15c8.8-1.54 16.4-7 22-13.76s9.45-14.63 13.15-22.5c4.15-8.82 8.22-17.74 10.52-27.19l9.43 4a140.41 140.41 0 01-7 32.48 86.71 86.71 0 01-11 22.32c-6.29 8.82-14.77 15.91-23.15 22.89-6.79 5.67-13.68 11.4-21.8 15.1"/><path class="p" d="M527.88 204.48s-9.49 9.86-10.58 30.66C515.93 261.07 564.86 379 564.86 379s12.46 22.86 15 18.48-23.15-159-23.15-159l22.29-8.24s2.9-16.63-4-23.93c-4.78 7.32-47.12-1.83-47.12-1.83z"/><path class="c" d="M527.88 204.48l2.07-7s31.53 5.38 45.19 2.11c1.53-1.73-.17 6.75-.17 6.75s1.32 4-17 2.87-30.09-4.73-30.09-4.73z"/><path class="c" d="M520.61 212.41c-2.35 9.48-3.53 19.29-4.89 29q-3.62 26-8.91 51.7A183.91 183.91 0 00594 283.2c-11.17-37.62-10-76.89-22.74-116.23-13.4 2.29-26.91 4.15-40.24 6.91 6 4.34-.22 11.63-2.55 16.49a114.15 114.15 0 00-7.86 22.04z"/><path class="d" d="M536.62 177.73l44.19-6.1c.05 0-.28-16.59-.25-17.77a58.78 58.78 0 011.62-12.32c.72-3.21-.56-6.58-2.46-9.27-2.38-3.39-5.63-6.06-8.06-9.41-1.75-2.4-4.44-7.53-6.54-9.64-2.78-2.78-10.93 2.29-14.7.71.61-.84 1.23-2.59-.27-1.81-4.34 2.28-1 2.15-5.2-.42-1.42-.88-2.88.57-6.15 1.34-3.68.87-17 3.67-18.84 6.73-4.38 7.37 1 16.08 1.73 24.17 1 10.59 2.62 24.77 3.63 35.35z"/><path class="p" d="M538.6 97.47c.24 6-2.09 12.62 1.59 17.85 3.1 4.39 7.6 7.71 12.14 10.49 1.06.64 5 3.69 6.3 2.74 1.74-1.3-1.87-8-2.62-9.73-2.16-5.06-2.61-8.9-2.53-14.44l.2-13.19z"/><path class="q" d="M553.46 105.78l.22-14.59-15.08 6.28.46 11.33a31.37 31.37 0 0014.4-3.02z"/><path class="p" d="M566.07 92.67a19.89 19.89 0 01-4.19 8.31c-1.93 2.36-4.1 3-6.75 3.63-8.41 2.1-19.91-.26-22.42-11.18-1.53.8-3.28-.7-3.71-2.54s.14-3.2.28-4.91c.11-1.4.06-2.76.24-4.19.46-3.46 1.09-7 2.74-10a17 17 0 017.26-6.92 37.78 37.78 0 018.9-2.94c5.14-1.21 12.75-2.61 16.09 3.46 1.93 3.52.54 9.94 1 14.06.56 4.3 1.49 8.77.56 13.22z"/><path class="p" d="M525.37 79.94c-1.4.69-2 2.39-2.08 4a10.59 10.59 0 007.41 10.46c1.33.38 3 .39 3.86-.69s.45-2.74-.1-4c-1.07-2.61-5.27-11.63-9.09-9.77z"/><path class="c" d="M524.75 83.73a3.23 3.23 0 011.73.5 7.86 7.86 0 013.11 3 13.31 13.31 0 011.48 4.07 5.74 5.74 0 01.2 1.78 8.41 8.41 0 01-.52-1.7 16.8 16.8 0 00-1.57-3.91 8.65 8.65 0 00-2.86-3c-.92-.47-1.59-.66-1.57-.74z"/><path class="c" d="M529.76 92.35s-.3-.22-.63-.69a7 7 0 01-1-2 3.94 3.94 0 01-.05-2.3c.18-.58.45-.85.5-.82s-.09.36-.18.89a4.64 4.64 0 00.18 2.09 12.53 12.53 0 00.86 2c.23.48.38.8.32.83z"/><path d="M538 79.09c-.15-.09 0-.51.66-1a7.39 7.39 0 013.13-1.39 9.21 9.21 0 013.66 0c.92.2 1.38.49 1.32.62-.15.3-2.21 0-4.56.48s-3.84 1.48-4.21 1.29z" fill="url(#g)"/><path class="c" d="M545.66 94c.14 0 .44.32 1 .8a7.68 7.68 0 002.72 1.42 9.67 9.67 0 003.29.31c.87 0 1.43-.17 1.49-.07s-.4.39-1.35.6a7.94 7.94 0 01-3.8-.15 5.83 5.83 0 01-2.93-1.8c-.48-.66-.54-1.11-.42-1.11zm11.43-16.82c0-.15.42-.34 1.13-.44a7.59 7.59 0 012.73.19 5 5 0 012.21 1.07c.44.44.42.84.23.9s-.49-.11-1-.29a18.46 18.46 0 00-2.07-.66c-1.65-.4-3.21-.46-3.23-.77zm-2.57 3.94a17.72 17.72 0 00-.57 3.37 24.27 24.27 0 000 3.41l.07.85v.22a2.21 2.21 0 00.25.8 1.93 1.93 0 001.34 1 .32.32 0 01.18 0 1 1 0 01.21 1.13 4.5 4.5 0 01-.89 1.35 3.34 3.34 0 001.41-1.09 2.09 2.09 0 00.3-1 1.48 1.48 0 00-.42-1.07 1.32 1.32 0 00-.56-.32.89.89 0 01-.24-.12.88.88 0 01-.33-.42 1.43 1.43 0 01-.09-.27v-1.17l-.24-3.33c-.16-1.08-.25-2.2-.42-3.34zm-5.81 5.58a4.3 4.3 0 00-1.87-1.34 5 5 0 00-2.13-.21 7.48 7.48 0 00-2.15.55 6.92 6.92 0 00-1.95 1.18l-.07.07a.23.23 0 01-.29 0 11.09 11.09 0 01-.84-.84 8.82 8.82 0 011.13.38l-.36.06a5 5 0 011.82-1.88 5.67 5.67 0 012.57-.78 4.28 4.28 0 012.65.64 3.18 3.18 0 011.49 2.17z"/><path class="c" d="M540.71 86.27l-.48-.7.83.17a.35.35 0 01.27.41.34.34 0 01-.41.27.33.33 0 01-.21-.15zm16.39.53a3.73 3.73 0 011.36-1.57 4 4 0 011.83-.49 6.2 6.2 0 012 .24 6.68 6.68 0 012 .89h.08a.16.16 0 00.24 0 9.86 9.86 0 00.58-.94 9.18 9.18 0 00-.92.53h.33a5.09 5.09 0 00-2-1.57 4.93 4.93 0 00-2.41-.42 3.46 3.46 0 00-2.19 1 3 3 0 00-.9 2.33z"/><path class="c" d="M564 85.29l.28-.75-.69.28a.31.31 0 00-.15.43.33.33 0 00.41.21.26.26 0 00.15-.17z"/><path d="M554 53.1a21.93 21.93 0 017.57 5.39c2.85 3.18 4 7.33 4.78 11.43.39 2 .66 4.11 1 6.16.3 1.65 1.47 4.22.8 5.79a2.77 2.77 0 01-2.35 1.72 2.7 2.7 0 00-1.34-4.42 26.63 26.63 0 00-6.5-.66A21.83 21.83 0 01540.87 70a13.52 13.52 0 01-5.74 8.41 4.72 4.72 0 00-1.85 1.68c-.45 1 0 2.1.4 3.12a17.75 17.75 0 01-2.65 17 20.92 20.92 0 00-1.58-14.72 5.47 5.47 0 00-3-3c-1.45-.45-3.4.62-3.08 2-2.22-5.93-3.86-12.28-2.6-18.4 2.86-13.99 20.66-18.5 33.23-12.99z" fill="url(#h)"/><path class="t" d="M564.3 162.22a72.92 72.92 0 0013.29-4.74 8.2 8.2 0 01-4.1 5.66c-2 1.13-4.19 1.4-6.33 1.88-24.52 5.51-35.86 7.82-33.17-25.25.44-5.46 9.65 23.4 12.11 24.22 5.53 1.85 12.58-.37 18.2-1.77z"/><path class="f" d="M400.39 0C389 .09 379.8 8.84 379.88 19.55a18.46 18.46 0 002 8.23l-6.21 8.71 11.45-2.33a21.34 21.34 0 0013.55 4.63c11.4-.09 20.58-8.84 20.5-19.55S411.8-.09 400.39 0z"/><path class="i" d="M411.12 17.53a5.81 5.81 0 00-10.69-2.7 5.81 5.81 0 00-10.18 4.24c.3 4.14 6.61 7.48 9.69 9.9a1.73 1.73 0 002.29-.14c2.96-2.98 9.24-6.5 8.89-11.3z"/><path class="g" d="M499.84 7.11l26.74.26c3.22 0 5.83 2.24 5.8 4.91l-.19 19.59c0 2.66-2.67 4.82-5.89 4.79h-3.56a10.29 10.29 0 002.36 5.68 21.67 21.67 0 01-7.14-2 7.68 7.68 0 01-3.51-3.77l-14.89-.15c-3.22 0-5.83-2.24-5.81-4.91l.19-19.58c.06-2.69 2.68-4.85 5.9-4.82z"/><path class="i" d="M519.82 22a3.31 3.31 0 103.34-3.27 3.32 3.32 0 00-3.34 3.27zm-10.15-.15a3.31 3.31 0 103.33-3.27 3.31 3.31 0 00-3.33 3.27zm-10.15-.1a3.31 3.31 0 103.33-3.27 3.3 3.3 0 00-3.33 3.27z"/><path fill="url(#i)" d="M289.59 55.02l2.27-4.14 4.14-2.26-4.14-2.27-2.27-4.14-2.26 4.14-4.14 2.27 4.14 2.26 2.26 4.14z"/><path fill="url(#j)" d="M289.52 24.71l1.53-2.8 2.81-1.53-2.81-1.54-1.53-2.8-1.53 2.8-2.8 1.54 2.8 1.53 1.53 2.8z"/><path fill="url(#k)" d="M264.04 40.39l3.33-6.09 6.09-3.33-6.09-3.33-3.33-6.09-3.33 6.09-6.09 3.33 6.09 3.33 3.33 6.09z"/><path fill="url(#l)" d="M696.07 63.24l-2.26-4.14-4.14-2.26 4.14-2.27 2.26-4.14 2.27 4.14 4.14 2.27-4.14 2.26-2.27 4.14z"/><path fill="url(#m)" d="M696.14 32.93l-1.53-2.8-2.8-1.54 2.8-1.53 1.53-2.8 1.53 2.8 2.81 1.53-2.81 1.54-1.53 2.8z"/><path fill="url(#n)" d="M721.63 48.61l-3.33-6.09-6.09-3.33 6.09-3.33 3.33-6.09 3.33 6.09 6.09 3.33-6.09 3.33-3.33 6.09z"/><path class="d" d="M742.74 230.45s20 1 28.5-18.57-28.5 18.57-28.5 18.57zm-.43-11.37s-17.26-6.47-20.1-21.06c-3.87-19.84 20.1 21.06 20.1 21.06zm.2-13.41s23-2 27.49-18.7-27.49 18.7-27.49 18.7zm.36-10.44s-18-14.47-13.78-31.72 13.78 31.72 13.78 31.72zm3.01-9.76s21.23-7.05 26.25-18.93-15.13 5.27-26.25 18.93zm3.04-11.74s-14.43-16.83-7.61-32 7.61 32 7.61 32zm3.47-11.02s22.48-7.57 28.73-24.9-28.73 24.9-28.73 24.9zm6.98-17.8s-10.81-16.33-2.48-29.07 2.48 29.07 2.48 29.07zm4.63-9.79s23-4.89 30.71-18.18S764 135.12 764 135.12zm5.63-10.19s-9.22-19.26 2-31.7-2 31.7-2 31.7zm8.85-13.33s14 2.53 25.67-12.47c11.21-14.43-25.67 12.47-25.67 12.47zm9.07-10.36s2.72-28.86 13.45-29.48c13.28-.76-13.45 29.48-13.45 29.48z"/><path class="d" d="M737.62 250.66a19 19 0 003-4.44 35.21 35.21 0 002-4.94 51.09 51.09 0 002-10.46c.13-1.77.3-3.55.27-5.32v-2.66l-.11-2.66-.06-1.33v-3.68a20.88 20.88 0 01.09-2.49l.15-2.49.07-1.25.14-1.26.28-2.51.26-2.51.38-2.51c.27-1.68.43-3.36.74-5l.87-5c.24-1.68.63-3.34 1-5s.67-3.35 1-5l1.26-5c.42-1.66.83-3.32 1.34-4.95a214.54 214.54 0 0115-38.18 144.49 144.49 0 0123.19-33.92l-.38-.38c-10.12 9.5-18.31 20.92-25.22 33a217.74 217.74 0 00-16.75 38.18c-.6 1.64-1.1 3.31-1.6 5l-1.51 5-1.35 5.06c-.44 1.69-.93 3.37-1.28 5.09l-1.09 5.14c-.34 1.72-.57 3.47-.84 5.2l-.38 2.61q-.14 1.32-.24 2.64l-.21 2.65-.1 1.32v4.02a24.35 24.35 0 00.07 2.69l.21 2.71.11 1.36.15 1.25a88.93 88.93 0 01.78 10 60.28 60.28 0 01-.66 10 38 38 0 01-1.08 4.93 22.18 22.18 0 01-1.87 4.69z"/><path class="ac" d="M721.63 250.71s7.07-72.59 27-102.62c2.75-4.16 5.78-8.28 9.9-11.09 5.38-3.67 13.76-4.24 17.6 1s1.15 12.52 2.62 18.76c3-7.9 6.41-15.84 11.89-22.29s13.45-11.26 21.91-11.1a8.54 8.54 0 014.29 1c3.43 2.06 3.41 7.16 1.84 10.84s-4.26 7-4.88 10.93c5.66-8.7 14.92-14.65 24.83-17.75s20.46-3.56 30.83-3c9.29.51 19.35 1.63 27.22-3.34-8.29 14-10.62 30.95-19 44.94a60.39 60.39 0 01-41.34 28.23c5.87 1.07 12.78 3 14.56 8.71 1.71 5.46-2.53 11-7.1 14.42-12.72 9.56-29.38 11.87-45.27 12.49 5.44 1.89 11.85 5 12.09 10.78.21 5.24-5 9-9.9 10.89-12.91 5.11-79.09-1.8-79.09-1.8z"/><g class="ad"><path class="i" d="M721.32 250.59a105.74 105.74 0 014.78-13.21l.4-1.62q2.71-11.22 5.93-22.27t6.8-22c2.47-7.27 5-14.52 7.92-21.64.67-1.79 1.47-3.55 2.22-5.31s1.51-3.53 2.34-5.27 1.58-3.5 2.45-5.21l2.65-5.11c-3.07 7-5.78 14.19-8.31 21.41s-4.86 14.51-7.11 21.82-4.36 14.67-6.45 22q-1.71 6.13-3.35 12.28a124.73 124.73 0 0114.28-20c.25-.28.51-.56.76-.85 1.1-3.09 2.21-6.16 3.39-9.22 1.85-4.86 3.75-9.71 5.76-14.51s4.06-9.59 6.22-14.32 4.41-9.43 6.81-14.05c-1.88 4.86-3.86 9.66-5.67 14.53s-3.68 9.71-5.49 14.57l-5.31 14.63c-.42 1.2-.85 2.39-1.27 3.59a140.78 140.78 0 0113.2-11.95 110.38 110.38 0 019.71-6.85c.81-1 1.6-2.1 2.36-3.18 3.29-4.7 6.43-9.56 9.5-14.44s6-9.86 8.86-14.89 5.78-10.07 9.18-14.78c-2.91 5-5.51 10.17-8.07 15.37s-5.3 10.33-8.22 15.35c-2.62 4.54-5.37 9-8.27 13.37q3.28-1.86 6.63-3.55t7-3.3c2.19-1.84 4.35-3.79 6.46-5.76 3.33-3.07 6.6-6.21 9.87-9.35L828.9 138c-2.83 3.57-5.85 7-8.83 10.42s-6.11 6.75-9.26 10-6.34 6.54-9.63 9.7c-.28.27-.57.53-.86.79 7.06-2.78 14.24-5.14 21.47-7.27l8.16-4.84q5-2.94 9.7-6.25c3.14-2.23 6.17-4.61 9.13-7.11s5.87-5.06 8.83-7.6c-2.51 3-5.19 5.8-7.92 8.6a100.05 100.05 0 01-8.76 7.81 111.39 111.39 0 01-9.63 6.75l2.14-.57c8-2.14 16.06-4.26 23.6-7.57l.43-.21v-.34h.86c7-3.24 13.61-7.72 18.34-14a.34.34 0 01.45-.08.35.35 0 01.09.47 41.58 41.58 0 01-8.53 9.29 53.51 53.51 0 01-6.23 4.31h.3a32.42 32.42 0 015.2.75 25.81 25.81 0 015 1.69 16 16 0 014.29 2.86 15.76 15.76 0 00-4.54-2.24 24.39 24.39 0 00-4.92-1 30.69 30.69 0 00-5-.07c-.83.05-1.66.17-2.48.25l-2.46.41v-.12c-7.51 3.75-15.49 6.35-23.37 8.87l-5.61 1.77q1.4.18 2.79.39c3.6.53 7.19 1.14 10.75 1.95a98.35 98.35 0 0110.53 2.93 73.86 73.86 0 0110 4.27 102.88 102.88 0 00-10.44-3.01c-3.49-.86-7-1.55-10.56-2.15s-7.11-1.08-10.68-1.48c-2.8-.31-5.61-.61-8.42-.88a230.44 230.44 0 00-25.54 10.22c1.58.22 3.15.45 4.72.72 4 .65 7.9 1.4 11.81 2.29s7.81 1.85 11.66 3 7.67 2.3 11.43 3.68c-3.91-.84-7.8-1.74-11.72-2.49s-7.83-1.5-11.75-2.19-7.86-1.27-11.8-1.82c-2.84-.37-5.69-.73-8.54-1.05q-2.31 1.19-4.57 2.44a118 118 0 00-14.86 9.71 83.84 83.84 0 0110.54.86c6.25.94 12.42 2.13 18.55 3.57s12.2 3.1 18.19 5 11.91 4 17.69 6.47c-6-1.84-12-3.66-18.06-5.18s-12.15-3-18.27-4.21-12.29-2.31-18.45-3.11a73.58 73.58 0 00-13.56-.69l-1.71 1.44c-5.79 5-11.38 10.1-16.7 15.52a108 108 0 0111.52 0 151.74 151.74 0 0117.43 2c5.75 1 11.45 2.26 17.09 3.73s11.2 3.16 16.69 5.1c-5.66-1.33-11.3-2.68-17-3.77s-11.39-2.15-17.11-2.94-11.47-1.39-17.22-1.6a104.78 104.78 0 00-14.18.31 172.92 172.92 0 00-14.17 17.15c-1 1.4-2 2.82-2.91 4.24a106 106 0 0112.3-1.11 146.16 146.16 0 0116.88.44c5.6.46 11.18 1.13 16.71 2.06s11 2 16.47 3.28c-5.54-.81-11.07-1.6-16.62-2.17s-11.11-1.06-16.67-1.29-11.13-.26-16.66 0a104.44 104.44 0 00-14.37 1.75c-.66 1-1.31 2-1.93 3.08-2.16 3.53-4.19 7.16-6.2 10.83a.34.34 0 01-.62-.25zm55-5.77a23.27 23.27 0 01-5.13-1.55 32.24 32.24 0 015.3-.52c1.75-.05 3.48 0 5.2.05s3.45.23 5.17.39 3.43.39 5.23.65a15.75 15.75 0 01-5.2 1.43 30.62 30.62 0 01-5.32.19 34.22 34.22 0 01-5.25-.64zM775.2 246a48.74 48.74 0 014.91 1 27 27 0 014.83 1.7 22.84 22.84 0 01-5.13.35 36.73 36.73 0 01-5-.46 38.07 38.07 0 01-4.92-1.13 23.54 23.54 0 01-4.77-1.94 26.78 26.78 0 015.13-.11 48.29 48.29 0 014.95.59z"/><path class="i" d="M826.48 214.58a12.8 12.8 0 01-4-1.93 40.39 40.39 0 014.35-.14c1.4 0 2.78.05 4.16.09l4.15.19a42.45 42.45 0 014.33.42 12.9 12.9 0 01-4.15 1.66 18.09 18.09 0 01-8.81-.29zm-1.17 2.69c1.39.18 2.78.38 4.18.6a40.61 40.61 0 014.32.9 13.3 13.3 0 01-4.36 1.19 19 19 0 01-8.83-1.13 13.25 13.25 0 01-3.91-2.26 38.92 38.92 0 014.4.22c1.42.14 2.81.3 4.2.48z"/></g><path class="ae" d="M733.9 249.13c2.63 0 5.39 1 8 .71 4.84-.49 7.85-5.05 11.57-8.05 1.49-1.2 3.9-2 5.34-.15a4.48 4.48 0 01.83 2.54c.2 4.21-3.21 6.81-6.62 7.88s-7.32 1.31-11 2-7.29 1.9-9.77 4.7a11.17 11.17 0 00-1.73 11.64c4.55 10.36 8.57 20.67 17.21 27.14-5-14.31-1-30.26 9.24-37.11a6.88 6.88 0 015-1.49 5 5 0 013.91 4.28c.07 2.46-2.28 3.51-4.23 4.28-5.49 2.19-10.4 6.26-12.47 12.38a20.68 20.68 0 004.12 19.74c5.49 5.93 16.08 6.11 19.79 13.46a54 54 0 016.46-26.74c.77-1.37 1.75-2.79 3.28-2.91 1.81-.15 3.73 1.74 4.37 3.82a8.55 8.55 0 01-.53 5.95c-1.53 3.41-4.35 5.66-6.73 8.31s-4.41 6.16-3.84 10.3c.53 3.87 3.28 7.41 6.41 9.59s6.61 3.22 10 4.24l10.49 3.1a76.21 76.21 0 01-3.61-26.57 13.61 13.61 0 011.17-5.68 3.94 3.94 0 014.38-2.23c2.12.57 3.76 3.09 4.18 5.49a14.65 14.65 0 01-.77 6.78c-2.15 7.17-5.42 14.65-2.83 22.59 6.12 2.79 12.36 3.39 17.92 1.26-.08.11.18.49.33.33s0-.58-.24-.79c-4.2-3.9-7.37-10-6.56-15.35.28-1.86 1.46-3.77 3.21-3.29a4.73 4.73 0 012.49 2.41c2.08 3.69 2.29 8 2.43 12a6.49 6.49 0 003.76 5.19 9.85 9.85 0 005.8.48c3.05-.49 6-1.46 9.17-1.27a10.6 10.6 0 016.31 2 16.54 16.54 0 01-2.41-9.49c.18-4.08 3.58-16.66 4.49-18.93-7.39-4.84-16-2-23.76-5.63a6 6 0 01-2.93-2.48c1.51-2.73 4.74-3.49 7.79-3.55a32.68 32.68 0 0118.77 5.78c1-5.24 1.79-11.45-1.57-16.23-3.6-5.13-10.06-5.75-15-4.44s-9.61 4-15 3.32c-2.4-.29-5.46-2.09-5.55-4.78a4.21 4.21 0 01.44-1.92c1.11-2.37 3.35-3.66 5.59-4.63a28 28 0 0115.08-2.44 23.94 23.94 0 0114.84 8.23 64.8 64.8 0 01-9.17-24.15c-10.24-2.56-18.48 5.31-28.17 7.1a5.64 5.64 0 01-3.72-.29c-2.45-1.26-3.39-5.07-2.43-7.5s3.2-3.73 5.43-4.64c8.29-3.38 18.18-3.09 27.44.79q-2.55-8.35-5.78-16.53c-1.1-2.79-2.35-5.7-4.5-7.67-4.93-4.51-11.49-1.66-15.25 2.6-1.57 1.78-3 3.79-4.88 5.12a6.41 6.41 0 01-6.85.55c1.68-11.15 11.19-18.74 21.65-17.28-3.91-6.62-10.45-11-17-13.22-5-1.71-10.75-2.12-14.2 1.36-4.78 4.82-3.07 14.43-5.66 21.22-1.09 2.86-3.81 5.38-6.66 3.84s-3.51-5.47-3.25-8.54c.93-11 9.16-17.85 16.83-23.66-16-.69-29.41 12.71-30.46 30.4a26.76 26.76 0 00-23.9 6.15c-5.83 5.25-9.65 12.92-11.62 21.38.9-1.86 3.06-2.79 5.13-2.8zm99.31 58.4a2.29 2.29 0 012.47-1.43 8.93 8.93 0 013.13 1.14 7.73 7.73 0 013.73 3.12l.15.52c-.55 2.8-4.07 3-6.6 1.56-1.71-.97-3.45-3.13-2.88-4.91zm-29.32-35c-1.42 1.2-3.64.89-5.52-.08a6.4 6.4 0 01-2.19-1.74 4.57 4.57 0 010-5.58 4.14 4.14 0 015.1-.28 6.78 6.78 0 013.26 3.23 3.2 3.2 0 01.17.43l.09.23a3.81 3.81 0 01-.91 3.83zm-19.95-33.33c1.95-4.37 7.59-5.08 12.11-2.72 9.52 4.94 1.62 9.36-3.67 10.32a11.24 11.24 0 01-4.59.17 5.43 5.43 0 01-3.85-7.77zm8.21 67.53a9.15 9.15 0 01-3.22 5.38c-1.28 1-3.29 1.46-4.65 0s-1.14-3.64-.56-5.26c.83-2.32 2.44-4.42 4.77-4.53a3.55 3.55 0 013.66 4.41zm-21-33.65a1.86 1.86 0 01.47 0 3.38 3.38 0 012.53 3.69c-.23 1.86-1.14 4.77-4.68 2.74a2.47 2.47 0 01-1.16-1.36 4.23 4.23 0 01.19-2.73 3.38 3.38 0 012.66-2.34z"/><path class="af" d="M728.83 251.92a4.1 4.1 0 00-.37 1.68c.12-.6.24-1.12.37-1.68z"/><g class="ag"><path class="i" d="M796.94 294.46c.19-2.16.27-4.35.28-6.56s-.07-4.43-.26-6.67l-.12-1.38c2.73 3.34 5.57 6.59 8.52 9.7a122.7 122.7 0 009.25 8.88c1.65 1.33 3.27 2.68 5 3.89.84.62 1.72 1.16 2.57 1.74a29.35 29.35 0 002.67 1.48 61.82 61.82 0 01-4.67-4.21c-.74-.77-1.5-1.47-2.23-2.24l-2.17-2.3q-4.29-4.67-8.32-9.58c-1.91-2.34-3.78-4.71-5.64-7.1l.38.22a58.75 58.75 0 008 3.72 37 37 0 008.21 2.06 22.09 22.09 0 008-.32 41.71 41.71 0 01-15.79-4 81.7 81.7 0 01-7.61-3.91c-1.26-.72-2.5-1.47-3.74-2.24-.51-.31-1-.64-1.51-.95-1.94-2.59-3.85-5.19-5.72-7.84l-1.89-2.6c-.62-.86-1.21-1.76-1.82-2.64l-3.67-5.27c-2.16-3.16-4.28-6.36-6.45-9.52a42.84 42.84 0 008 4.67 35 35 0 008.43 2.56 26.44 26.44 0 008.27.11 39.78 39.78 0 01-8.24-1.5 43.8 43.8 0 01-8-3.21 49.52 49.52 0 01-14.08-11.12c-.78-1.14-1.55-2.29-2.31-3.46-2.36-3.61-4.72-7.24-7.24-10.79 1.76 4 3.68 7.89 5.6 11.81 1.19 2.29 2.42 4.57 3.66 6.84a36.78 36.78 0 011.49 4.93c.7 2.83 1.29 5.68 1.81 8.53s1 5.73 1.28 8.6.6 5.74.83 8.63A72.31 72.31 0 00778 265a85.7 85.7 0 00-.59-8.71c-.21-2-.52-3.91-.88-5.88.53.9 1.07 1.79 1.61 2.68 1.13 1.86 2.24 3.74 3.44 5.56 2.41 3.63 4.75 7.32 7.34 10.82q2.52 3.56 5.19 7c.24 1.55.47 3.1.66 4.66.25 2.19.51 4.38.68 6.57s.32 4.39.43 6.58.16 4.39.21 6.6a62.4 62.4 0 00.85-6.42zm32.85-63.89a11.57 11.57 0 00-1.38-1.42 11.87 11.87 0 00-3.23-2 9.37 9.37 0 00-3.46-.75 6 6 0 00-3.19.72c1.15.23 2.21.45 3.26.73a26.47 26.47 0 013.07 1 26 26 0 013 1.47q.75.42 1.5.9a3.21 3.21 0 011.3 1.19 3 3 0 00-.87-1.84zm-6.55-.87a10.3 10.3 0 00-3.38-.57 6.6 6.6 0 00-3.14.73l3.23.73c1 .26 2.07.56 3.08.9s2 .73 3.05 1.17 2 .93 3.15 1.43a11.19 11.19 0 00-2.74-2.71 12.41 12.41 0 00-3.25-1.68zM801.82 208a9.12 9.12 0 014.12-.36 13.65 13.65 0 014.47 1.45 9.49 9.49 0 00-4.44-2.88 7.87 7.87 0 00-4.87 0 7.13 7.13 0 00-3.69 2.94 8.24 8.24 0 00-1.32 4.85 11.92 11.92 0 012.36-3.78 8.46 8.46 0 013.37-2.22z"/><path class="i" d="M802.55 212.57a9.59 9.59 0 011.88-.9 16.27 16.27 0 012.23-.6 4.73 4.73 0 00-2.62-.86 4.47 4.47 0 00-2.48.69 4.61 4.61 0 00-1.73 2 4.92 4.92 0 00-.44 2.79 18.78 18.78 0 011.53-1.77 10.48 10.48 0 011.63-1.35z"/></g><path class="d" d="M153.89 230.45s-20 1-28.51-18.57 28.51 18.57 28.51 18.57zm.43-11.37s17.25-6.47 20.1-21.06c3.86-19.84-20.1 21.06-20.1 21.06zm-.2-13.41s-23-2-27.5-18.7 27.5 18.7 27.5 18.7zm-.36-10.44s18-14.47 13.78-31.72-13.78 31.72-13.78 31.72zm-3.02-9.76s-21.23-7.05-26.25-18.93 15.17 5.27 26.25 18.93zm-3.03-11.74s14.42-16.83 7.61-32-7.61 32-7.61 32zm-3.47-11.02s-22.48-7.57-28.73-24.9 28.73 24.9 28.73 24.9zm-6.98-17.8s10.81-16.33 2.48-29.07-2.48 29.07-2.48 29.07zm-4.66-9.79s-23-4.89-30.71-18.18 30.71 18.18 30.71 18.18zm-5.6-10.19s9.22-19.26-2-31.7 2 31.7 2 31.7zm-8.85-13.33s-14 2.53-25.68-12.47c-11.2-14.43 25.68 12.47 25.68 12.47zm-9.08-10.36s-2.71-28.86-13.45-29.48c-13.28-.76 13.45 29.48 13.45 29.48z"/><path class="d" d="M159 250.66a19 19 0 01-2.95-4.44 35.21 35.21 0 01-2-4.94 51.09 51.09 0 01-2.05-10.46c-.13-1.77-.31-3.55-.28-5.32v-2.66l.1-2.66.06-1.33v-3.68a20.88 20.88 0 00-.09-2.49l-.16-2.49-.06-1.25-.14-1.26-.29-2.51-.26-2.51-.38-2.51c-.26-1.68-.43-3.36-.73-5l-.87-5c-.25-1.68-.63-3.34-1-5s-.67-3.35-1.06-5l-1.25-5c-.42-1.66-.83-3.32-1.34-4.95a215.31 215.31 0 00-15-38.18 144.79 144.79 0 00-23.11-33.92l.38-.38c10.11 9.5 18.3 20.92 25.22 33a217.74 217.74 0 0116.75 38.18c.6 1.64 1.09 3.31 1.59 5l1.52 5 1.35 5.06c.44 1.69.92 3.37 1.27 5.09l1.1 5.14c.33 1.72.57 3.47.84 5.2l.37 2.61c.09.88.18 1.76.25 2.64l.2 2.65.11 1.32v4.02c0 .89 0 1.77-.07 2.69l-.21 2.71-.11 1.36-.15 1.25a88.93 88.93 0 00-.78 10 60.28 60.28 0 00.65 10 36.48 36.48 0 001.09 4.93 22.18 22.18 0 001.87 4.69z"/><path class="ac" d="M175 250.71s-7.07-72.59-26.94-102.62c-2.76-4.16-5.79-8.28-9.91-11.09-5.37-3.67-13.75-4.24-17.6 1s-1.14 12.52-2.61 18.76c-3-7.9-6.41-15.84-11.89-22.29s-13.45-11.26-21.91-11.1a8.54 8.54 0 00-4.29 1c-3.44 2.06-3.41 7.16-1.84 10.84s4.26 7 4.88 10.93C77.22 137.45 68 131.5 58.05 128.4s-20.46-3.56-30.83-3c-9.29.51-19.35 1.6-27.22-3.34C8.29 136.08 10.62 153 19 167a60.37 60.37 0 0041.33 28.23c-5.86 1.07-12.77 3-14.56 8.71-1.71 5.46 2.54 11 7.11 14.42 12.71 9.56 29.38 11.87 45.27 12.49-5.44 1.89-11.86 5-12.09 10.78-.22 5.24 5 9 9.89 10.89 12.87 5.1 79.05-1.81 79.05-1.81z"/><g class="ad"><path class="i" d="M175.3 250.59a104.11 104.11 0 00-4.77-13.21l-.4-1.62q-2.72-11.22-5.93-22.27t-6.8-22c-2.48-7.27-5-14.52-7.92-21.64-.68-1.79-1.47-3.55-2.22-5.31s-1.52-3.53-2.34-5.27-1.58-3.5-2.45-5.21l-2.65-5.06c3.06 7 5.78 14.19 8.3 21.41s4.86 14.51 7.12 21.82 4.36 14.67 6.45 22q1.69 6.13 3.34 12.28a123.49 123.49 0 00-14.28-20c-.25-.28-.51-.56-.76-.85q-1.63-4.64-3.38-9.22c-1.85-4.86-3.76-9.71-5.76-14.51s-4.07-9.59-6.22-14.32-4.42-9.43-6.81-14.05c1.88 4.86 3.86 9.66 5.66 14.53s3.69 9.71 5.49 14.57l5.32 14.63c.42 1.2.85 2.39 1.27 3.59a142 142 0 00-13.2-11.95 109.06 109.06 0 00-9.72-6.85c-.81-1-1.59-2.1-2.35-3.18-3.29-4.7-6.43-9.56-9.51-14.44s-6-9.86-8.85-14.89-5.78-10.07-9.18-14.78c2.91 5 5.51 10.17 8.07 15.37s5.3 10.33 8.22 15.35c2.61 4.54 5.37 9 8.26 13.37q-3.27-1.86-6.62-3.55c-2.31-1.16-4.65-2.26-7-3.3-2.19-1.84-4.35-3.79-6.47-5.76-3.32-3.07-6.59-6.21-9.86-9.35L67.73 138c2.83 3.57 5.84 7 8.83 10.42s6.11 6.75 9.25 10 6.35 6.54 9.64 9.7l.85.79c-7-2.78-14.23-5.14-21.46-7.27l-8.16-4.84q-5-2.94-9.7-6.25c-3.14-2.23-6.17-4.61-9.14-7.11S42 138.4 39 135.86c2.51 3 5.19 5.8 7.92 8.6a100.05 100.05 0 008.76 7.81 111.24 111.24 0 009.64 6.73l-2.13-.57c-8-2.14-16.06-4.26-23.6-7.57l-.44-.21.05-.34h-.86c-7-3.24-13.61-7.72-18.34-14a.34.34 0 00-.55.39A42.06 42.06 0 0028 146a54.49 54.49 0 006.24 4.31h-.3a32.54 32.54 0 00-5.21.75 25.71 25.71 0 00-4.94 1.69 15.84 15.84 0 00-4.29 2.86 15.51 15.51 0 014.5-2.26 24.43 24.43 0 014.91-1 30.82 30.82 0 015-.07c.83.05 1.66.17 2.48.25l2.45.41v-.12c7.51 3.75 15.48 6.35 23.36 8.87q2.82.87 5.62 1.77-1.39.18-2.79.39c-3.6.53-7.19 1.14-10.75 1.95a98.35 98.35 0 00-10.53 2.93 73.33 73.33 0 00-10 4.27 103.47 103.47 0 0110.38-3c3.5-.86 7-1.55 10.57-2.15s7.1-1.08 10.68-1.48c2.8-.31 5.61-.61 8.42-.88a229.5 229.5 0 0125.53 10.22c-1.57.22-3.14.45-4.71.72-4 .65-7.9 1.4-11.82 2.29s-7.8 1.85-11.65 3-7.68 2.3-11.43 3.68c3.91-.84 7.8-1.74 11.72-2.49s7.83-1.5 11.75-2.19S91 179.35 95 178.8c2.85-.37 5.7-.73 8.55-1.05 1.53.79 3.06 1.6 4.56 2.44A118.06 118.06 0 01123 190a83.69 83.69 0 00-10.54.86c-6.25.94-12.42 2.13-18.55 3.57s-12.2 3.1-18.2 5-11.9 4-17.69 6.47c6-1.84 12-3.66 18.07-5.18s12.14-3 18.27-4.21 12.28-2.31 18.45-3.11a73.54 73.54 0 0113.56-.69l1.71 1.44c5.78 5 11.38 10.1 16.7 15.52a108.15 108.15 0 00-11.53 0 151.57 151.57 0 00-17.42 2c-5.76 1-11.45 2.26-17.09 3.73s-11.21 3.16-16.69 5.1c5.66-1.33 11.3-2.68 17-3.77s11.38-2.15 17.11-2.94 11.47-1.39 17.22-1.6a104.78 104.78 0 0114.18.31 172.83 172.83 0 0114.16 17.15c1 1.4 2 2.82 2.92 4.24a106.21 106.21 0 00-12.31-1.11 146 146 0 00-16.87.44c-5.6.46-11.18 1.13-16.71 2.06s-11 2-16.48 3.28c5.54-.81 11.07-1.6 16.63-2.17s11.11-1.06 16.67-1.29 11.13-.26 16.66 0a104.44 104.44 0 0114.37 1.75c.66 1 1.3 2 1.93 3.08 2.16 3.53 4.18 7.16 6.19 10.83a.36.36 0 00.39.16.33.33 0 00.19-.33zm-54.99-5.77a23.27 23.27 0 005.13-1.55 32.24 32.24 0 00-5.3-.52c-1.75-.05-3.48 0-5.21.05s-3.44.23-5.16.39-3.43.39-5.24.65a15.81 15.81 0 005.21 1.43 30.58 30.58 0 005.32.19 34.38 34.38 0 005.25-.64zm1.11 1.18a49.15 49.15 0 00-4.9 1 27 27 0 00-4.83 1.7 22.79 22.79 0 005.12.35 36.74 36.74 0 005-.46 38.07 38.07 0 004.92-1.13 23.69 23.69 0 004.76-1.94 26.68 26.68 0 00-5.12-.11 48.78 48.78 0 00-4.95.59z"/><path class="i" d="M70.14 214.58a12.85 12.85 0 004-1.93 40.55 40.55 0 00-4.35-.14c-1.41 0-2.78.05-4.16.09l-4.15.19a42.64 42.64 0 00-4.34.42 12.87 12.87 0 004.16 1.66 17.76 17.76 0 004.42.4 17.55 17.55 0 004.42-.69zm1.18 2.69c-1.39.18-2.78.38-4.18.6a40.61 40.61 0 00-4.32.9 13.23 13.23 0 004.36 1.23 18.93 18.93 0 008.82-1.17 13.3 13.3 0 003.92-2.26 39.22 39.22 0 00-4.41.22c-1.41.14-2.8.3-4.19.48z"/></g><path class="ae" d="M167.8 251.92c-2-8.46-5.79-16.13-11.62-21.38a26.78 26.78 0 00-23.91-6.15c-1-17.69-14.46-31.09-30.45-30.4 7.67 5.81 15.9 12.65 16.83 23.66.26 3.07-.55 7.07-3.25 8.54-2.85 1.54-5.57-1-6.66-3.84-2.59-6.79-.88-16.4-5.67-21.22-3.44-3.48-9.15-3.07-14.2-1.36-6.5 2.21-13 6.6-17 13.22 10.46-1.46 20 6.13 21.64 17.28a6.39 6.39 0 01-6.84-.55c-1.91-1.33-3.32-3.34-4.89-5.12-3.75-4.26-10.31-7.11-15.24-2.6-2.15 2-3.41 4.88-4.51 7.67q-3.21 8.18-5.77 16.53c9.26-3.88 19.15-4.17 27.43-.79 2.24.91 4.48 2.21 5.44 4.64s0 6.24-2.43 7.5a5.64 5.64 0 01-3.72.29c-9.69-1.79-17.93-9.66-28.17-7.1a65 65 0 01-9.17 24.15 23.94 23.94 0 0114.84-8.23 28.06 28.06 0 0115.08 2.44c2.24 1 4.48 2.26 5.59 4.63a4.34 4.34 0 01.44 1.92c-.1 2.69-3.15 4.49-5.56 4.78-5.35.65-10-2-14.95-3.32s-11.42-.69-15 4.44c-3.36 4.78-2.57 11-1.57 16.23a32.67 32.67 0 0118.8-5.78c3.06.06 6.29.82 7.8 3.55a6 6 0 01-2.93 2.45c-7.77 3.61-16.37.79-23.77 5.63.92 2.27 4.32 14.85 4.5 18.93a16.54 16.54 0 01-2.41 9.49 10.6 10.6 0 016.3-2c3.18-.19 6.13.78 9.18 1.27a9.81 9.81 0 005.79-.48 6.45 6.45 0 003.76-5.19c.15-4 .36-8.33 2.44-12a4.73 4.73 0 012.49-2.41c1.74-.48 2.92 1.43 3.21 3.29.8 5.35-2.37 11.45-6.57 15.35-.22.21-.41.6-.23.79s.41-.22.33-.33c5.56 2.13 11.8 1.53 17.92-1.26 2.59-7.94-.68-15.42-2.83-22.59a14.65 14.65 0 01-.77-6.78c.41-2.4 2.06-4.92 4.17-5.49a4 4 0 014.39 2.23 13.61 13.61 0 011.17 5.68 76 76 0 01-3.62 26.57l10.46-3.12c3.42-1 6.9-2.07 10-4.24s5.88-5.72 6.41-9.59c.57-4.14-1.48-7.65-3.85-10.3s-5.2-4.9-6.72-8.31a8.55 8.55 0 01-.53-5.95c.63-2.08 2.55-4 4.37-3.82 1.52.12 2.5 1.54 3.27 2.91a53.79 53.79 0 016.46 26.74c3.72-7.35 14.31-7.53 19.8-13.46a20.68 20.68 0 004.12-19.74c-2.08-6.12-7-10.19-12.48-12.38-1.94-.77-4.29-1.82-4.22-4.28a5 5 0 013.91-4.28 6.88 6.88 0 015 1.49c10.22 6.85 14.19 22.8 9.23 37.11 8.65-6.47 12.67-16.78 17.21-27.14a11.18 11.18 0 00-1.72-11.64c-2.48-2.8-6.12-4-9.77-4.7s-7.46-.87-11-2-6.83-3.67-6.62-7.88a4.48 4.48 0 01.83-2.54c1.44-1.84 3.84-1 5.33.15 3.72 3 6.74 7.56 11.58 8.05 2.58.26 5.33-.71 8-.71 2.1.07 4.3 1 5.1 2.85zM60.53 312.44c-2.53 1.44-6 1.24-6.59-1.56l.15-.52a7.71 7.71 0 013.72-3.12 9.07 9.07 0 013.13-1.14 2.28 2.28 0 012.47 1.43c.59 1.78-1.17 3.94-2.88 4.91zm31.33-43.71a2.18 2.18 0 01.09-.23c0-.15.1-.29.16-.43a6.84 6.84 0 013.27-3.23 4.13 4.13 0 015.09.28 4.57 4.57 0 010 5.58 6.34 6.34 0 01-2.2 1.74c-1.87 1-4.09 1.28-5.52.08a3.81 3.81 0 01-.89-3.79zm21-24.92a5.82 5.82 0 01-4 3.16 11.24 11.24 0 01-4.59-.17c-5.29-1-13.19-5.38-3.67-10.32 4.52-2.36 10.16-1.65 12.11 2.72a5.8 5.8 0 01.1 4.61zm-4.67 58.54c2.33.11 3.94 2.21 4.77 4.53.58 1.62.76 3.86-.57 5.26s-3.36 1-4.65 0a9.18 9.18 0 01-3.21-5.38 3.55 3.55 0 013.61-4.41zm20-26.92a4.23 4.23 0 01.19 2.73 2.47 2.47 0 01-1.16 1.36c-3.55 2-4.45-.88-4.68-2.74a3.36 3.36 0 012.53-3.69 1.85 1.85 0 01.47 0 3.39 3.39 0 012.58 2.34z"/><path class="af" d="M167.8 251.92a4.1 4.1 0 01.36 1.68q-.16-.84-.36-1.68z"/><g class="ag"><path class="i" d="M99.69 294.46c-.19-2.16-.27-4.35-.28-6.56s.07-4.43.26-6.67l.12-1.38c-2.73 3.34-5.57 6.59-8.52 9.7a121 121 0 01-9.27 8.88c-1.64 1.33-3.26 2.68-5 3.89-.84.62-1.72 1.16-2.58 1.74a27.92 27.92 0 01-2.66 1.48 61.82 61.82 0 004.67-4.21c.73-.77 1.5-1.47 2.22-2.24l2.18-2.3q4.29-4.67 8.32-9.58c1.91-2.34 3.78-4.71 5.64-7.1l-.38.22a58.75 58.75 0 01-8 3.72 37.14 37.14 0 01-8.21 2.06 22.08 22.08 0 01-8-.32 41.71 41.71 0 0015.79-4 81.7 81.7 0 007.61-3.91c1.25-.72 2.5-1.47 3.74-2.24l1.51-.95c1.94-2.59 3.85-5.19 5.72-7.84l1.88-2.6c.63-.86 1.22-1.76 1.83-2.64l3.67-5.27c2.16-3.16 4.28-6.36 6.45-9.52a42.84 42.84 0 01-8 4.67 35 35 0 01-8.43 2.56 26.44 26.44 0 01-8.27.11 39.78 39.78 0 008.24-1.5 43.71 43.71 0 008-3.21 49.38 49.38 0 0014.09-11.12c.77-1.14 1.55-2.29 2.3-3.46 2.37-3.61 4.73-7.24 7.25-10.79-1.76 4-3.68 7.89-5.6 11.81-1.19 2.29-2.42 4.57-3.66 6.84a38.31 38.31 0 00-1.5 4.93c-.69 2.83-1.28 5.68-1.81 8.53s-1 5.73-1.28 8.6-.59 5.74-.82 8.63a70.21 70.21 0 01-.36-8.5 82.92 82.92 0 01.59-8.71c.21-2 .52-3.91.88-5.88l-1.53 2.67c-1.14 1.86-2.25 3.74-3.44 5.56-2.41 3.63-4.75 7.32-7.34 10.82q-2.52 3.56-5.19 7c-.24 1.55-.47 3.1-.66 4.66-.26 2.19-.52 4.38-.68 6.57s-.32 4.39-.43 6.58-.16 4.39-.21 6.6a59.71 59.71 0 01-.85-6.33zm-32.86-63.89a12.44 12.44 0 011.39-1.42 11.87 11.87 0 013.23-2 9.37 9.37 0 013.46-.75 6 6 0 013.19.72c-1.15.23-2.21.45-3.26.73a26 26 0 00-3.08 1 26.64 26.64 0 00-3 1.47q-.75.42-1.5.9a3.21 3.21 0 00-1.3 1.19 3.06 3.06 0 01.87-1.84zm6.56-.87a10.3 10.3 0 013.38-.57 6.53 6.53 0 013.13.73l-3.23.73c-1 .26-2.06.56-3.08.9s-2 .73-3 1.17-2 .93-3.15 1.43a11.15 11.15 0 012.73-2.71 12.63 12.63 0 013.22-1.68zM94.8 208a9.1 9.1 0 00-4.12-.36 13.67 13.67 0 00-4.46 1.45 9.52 9.52 0 014.43-2.88 7.9 7.9 0 014.88 0 7.17 7.17 0 013.69 2.94 8.16 8.16 0 011.31 4.85 11.73 11.73 0 00-2.35-3.78A8.42 8.42 0 0094.8 208z"/><path class="i" d="M94.08 212.57a9.59 9.59 0 00-1.88-.9 16.67 16.67 0 00-2.23-.6 4.72 4.72 0 012.61-.86 4.5 4.5 0 012.49.69 4.68 4.68 0 011.73 2 5 5 0 01.44 2.79 18.78 18.78 0 00-1.53-1.77 10.48 10.48 0 00-1.63-1.35z"/></g><path class="g" d="M784.2 134.64c-4.94 13.54-12.62 18-11.71 32.36 1.07 16.8-5 34.3-3.88 51.1.32 5.1 2.18 10.64 1.57 15.75-.7 5.76-8.43 6.22-13.38 7.38a81.17 81.17 0 01-47.15-3c-1.27-.48.2-20.55.24-22.53q.3-14.92.77-29.84c.55-16.63-.06-35.42 1.18-46.57.92-8.35 11.08-14.55 12.56-14.92 8-2 13.9-4 22.18-4.43 20.02-1.18 37.5 15.06 37.62 14.7z"/><path class="g" d="M717.61 130.5s-10.4 9.82-11.56 11.55-17.33 65.28-17.33 65.28l28.89 17.33z"/><path d="M751.28 66.88a5.33 5.33 0 018 2 51.79 51.79 0 016.59 9.85c1.16 2.08 2.36 4.29 2.24 6.67a12.54 12.54 0 01-1.36 4.42l-2.14 4.8c-1.06 2.36-2.42 5-4.92 5.65 1.63.2 2.17 2.54 1.27 3.91s-2.58 2-4.13 2.48a25.18 25.18 0 00-10.35 5.72 18.73 18.73 0 01-11.93 4.41 15.72 15.72 0 01-10.55-4.35c-3.52-3.27-3-8-3-12.52l.22-16.83a16.7 16.7 0 01.88-6.33c1.39-3.17 4.35-3.56 6.89-3.64l25.34-.74" fill="url(#o)"/><path class="p" d="M743.2 105.78l9.41 19.22-4.31 3.45a10 10 0 01-15.69-4.71l-5.46-16.93z"/><path class="q" d="M733.15 123.12l-6.88-16.06 16.73-1.28 4.77 12.82a28 28 0 01-14.62 4.52z"/><path class="p" d="M716.14 102.36a19.91 19.91 0 003.22 8.71c1.65 2.55 3.74 3.4 6.29 4.35 7.25 2.71 20.79 1.64 24.62-6.54a14.2 14.2 0 001-3.7c1.61-9.82 3.9-21.06-5.63-27.43a37.4 37.4 0 00-8.49-3.91c-5-1.77-12.36-4-16.35 1.62-2.32 3.27-1.66 9.79-2.62 13.82-1.04 4.24-2.47 8.56-2.04 13.08z"/><path class="c" d="M744.05 91.49c.16 0 .09-.47-.36-1.07a7 7 0 00-2.52-2 8.6 8.6 0 00-3.31-.84c-.86 0-1.35.14-1.32.28.07.3 2 .44 4 1.43s3.16 2.3 3.51 2.2zm-16.44-6.21c0-.13-.33-.37-1-.57a6.94 6.94 0 00-2.53-.26 4.63 4.63 0 00-2.19.68c-.47.34-.52.71-.36.79s.47 0 1-.11a18.51 18.51 0 012-.29c1.58-.14 3.01.04 3.08-.24zM730 91.1c-.4 1-.72 2-1 3l-1 2.9-.23.74-.12.37a.66.66 0 01-.09.19.73.73 0 01-.37.26 1.17 1.17 0 01-.27.05 1.16 1.16 0 00-.59.16 1.34 1.34 0 00-.61.87 1.79 1.79 0 000 .95 3.1 3.1 0 001 1.29 4.2 4.2 0 01-.5-1.41.9.9 0 01.43-.94.31.31 0 01.17 0 1.48 1.48 0 00.51 0 1.72 1.72 0 001-.53 1.49 1.49 0 00.29-.5l.14-.38.25-.75a22 22 0 00.73-3.09 15.38 15.38 0 00.26-3.18zm-6.19 11.9l15.26 2s.34 6.19-6 6.27c-8.6.06-9.26-8.27-9.26-8.27z"/><path class="f" d="M732 107.54a7.83 7.83 0 016.29.78c-.75 1.45-2.24 2.83-5.19 2.87a9.68 9.68 0 01-4.83-1.08 7.33 7.33 0 013.73-2.57z"/><path class="c" d="M734.51 94.93a4 4 0 011.93-.9 4.63 4.63 0 012 .17 7 7 0 011.86.88 6.59 6.59 0 011.58 1.41l.06.08a.18.18 0 00.25 0c.32-.19.18-.54-.18-.47l.32.12a4.56 4.56 0 00-1.38-2 5.31 5.31 0 00-2.2-1.16 4.1 4.1 0 00-2.54.13 2.94 2.94 0 00-1.7 1.74zm-7.99-.62a4.05 4.05 0 00-1.31-1.69 4.74 4.74 0 00-1.85-.74 7.15 7.15 0 00-4.1.47l-.09.05a.21.21 0 01-.25-.08c-.19-.31.09-.56.38-.34l-.3.02a4.58 4.58 0 012.15-1.19 5.24 5.24 0 012.49 0A4 4 0 01725.8 92a2.93 2.93 0 01.72 2.31z"/><path class="p" d="M757 89c1.33.58 1.94 2.14 2.09 3.59a9.84 9.84 0 01-6.47 10c-1.22.41-2.76.48-3.6-.49s-.54-2.52-.07-3.75c.86-2.35 4.4-10.89 8.05-9.35z"/><path class="c" d="M757.7 92.53a3 3 0 00-1.59.53 7.26 7.26 0 00-2.76 2.94 12.25 12.25 0 00-1.22 3.83 5.36 5.36 0 00-.12 1.66 7.31 7.31 0 00.42-1.6 15.84 15.84 0 011.3-3.69 8.07 8.07 0 012.54-2.88c.83-.56 1.45-.72 1.43-.79z"/><path class="c" d="M753.38 100.73c.06 0 .27-.22.56-.67a6.52 6.52 0 00.88-1.92 3.72 3.72 0 000-2.14c-.2-.52-.46-.76-.5-.73s.1.32.2.82a4.5 4.5 0 01-.12 1.91 11.58 11.58 0 01-.73 1.88c-.22.51-.34.82-.29.85z"/><path d="M759.34 70.73c.81 3.13 0 6.28-1.19 9.2-.86 2.17-1.56 5.33-2.71 7.31-3.76 6.54-9.9-3.27-9.43-3.54-3.79 2.22-6.94-.26-10.62-1.09-3.17-.7-6.76-.36-9.95 0-1.38.13-5.48 1.39-6.71.63-1.47-.9-.21-2 1.57-2.41-3.91.81-10.37-.79-9.67-6 .29-2.23 2.8-4 4.9-3.23a6.09 6.09 0 012.2-11.13c3.59-.65 6.95 1.93 10.57 2.34 4.05.45 7.86-1.85 11.86-2.69a17.49 17.49 0 0115.64 4.9 12.64 12.64 0 013.54 5.71z" fill="url(#p)"/><path d="M729.74 64.94h.57" fill="none"/><path class="f" d="M756.71 427.85c-5.81 5.19-20.36 9.87-23.43 3.16-1.24-2.7.47-5.87 2.12-8.35 4.88-7.35 9.66-12.57 7.91-22.13l14.16 1.88c-.74-.1.29 7.93.48 8.81 1 4.74 3 9.11.87 14a8.23 8.23 0 01-2.11 2.63zM710 400.54c-6.44 1.45-8.61 1.09-15.18.11l-11.65 8s-13.34 8.54-12.35 12.12 36.44-4.77 36.44-4.77a5.81 5.81 0 004.21-7.65c-1.05-3.83-2.17-4.55-1.47-7.81z"/><path class="c" d="M768.25 237.68s.76 26.44-.23 33.51c-2.29 16.22-9.4 139.05-9 137.62 0 0-9.85 2.55-15.88-1.27s-12.77-128.26-12.77-128.26l-6.53-.65L711 326.35s3.84 75.44 1.37 75.81-19.37 3.35-20.46-.87-7.41-80.7-7.41-80.7l26.75-85.23z"/><path class="q" d="M703 261.71c5.42 10.35 20.82 16.92 20.82 16.92L711 326.35s3.84 75.44 1.37 75.81-19.37 3.35-20.46-.87-7.41-80.7-7.41-80.7zm55.46-101.37c-1.09 5.63 2.95 37.54-1.3 39.7-13.37 6.8-24.87 15.82-28 18.89A4.18 4.18 0 00733 226c9.68-1.94 20.42-7.78 26.25-13.26 8.28-7.79 12.81-19.07 13.66-30.41.63-8.36-.29-17.87-3.36-25.74-3.87-9.85-9.55-4.32-11.09 3.75z"/><path class="r" d="M728.84 92.47a7.68 7.68 0 11-6-9 7.68 7.68 0 016 9zm18.39 4.95a7.68 7.68 0 11-6-9 7.68 7.68 0 016 9zm-19.92-3.25a6.47 6.47 0 016 .74"/><path class="c" d="M258.37 62.2c9.9 5.79 12.8 15.69 15.27 26.14 1.32 5.6 2 9.16.81 14.68-.27 1.2-5.4 15.2-6.13 14.34l-2.76-3.29c-.44.78-.88 1.57-1.33 2.35a59.66 59.66 0 01-33.49-2.86c.35 1.29.69 2.58 1 3.87a29 29 0 01-19.09-19.79C205.92 72.6 235.76 49 258.37 62.2z"/><path class="p" d="M240.08 105.67c-2.25 5.62-2.88 12.3-8.75 14.35-8.66 3.47-19.86 6.78-12.56 9.31.89.31 3.82 8.38 4.62 7.87.47-.3 23.57 16.53 23.83 16 1.08-2.07 15.53-11.33 16.17-13.57.43-1.51 8-7.71 7.66-9.24-.44-2.11-20.83-9.58-21.06-11.28s1.91-4 2.59-5.42c1.19-2.53 2.37-5.07 3.55-7.6z"/><path class="e" d="M250.06 119.11l6.07-13-16-.45-4.2 10.34a31 31 0 0014.13 3.11z"/><path class="p" d="M266.13 101.56a19.73 19.73 0 01-3.26 8.54c-1.66 2.5-3.73 3.31-6.25 4.22-8 2.89-19.5 1.73-23-8.71-1.41.94-3.27-.35-3.88-2.11s-.18-3.15-.21-4.83c0-1.39-.22-2.71-.18-4.12a28.34 28.34 0 011.65-10.1 16.86 16.86 0 016.4-7.45 37.07 37.07 0 018.41-3.75c4.91-1.7 12.21-3.82 16.08 1.78 2.24 3.25 1.52 9.67 2.42 13.65.94 4.15 2.29 8.43 1.82 12.88z"/><path class="p" d="M225.06 93.15c-1.3.81-1.71 2.54-1.64 4.07a10.4 10.4 0 008.29 9.49c1.34.25 3 .09 3.7-1.06s.18-2.72-.5-3.94c-1.3-2.35-6.29-10.71-9.85-8.56z"/><path class="c" d="M224.83 96.92a3.2 3.2 0 011.74.31 7.83 7.83 0 013.34 2.66 12.91 12.91 0 011.86 3.84 5.23 5.23 0 01.37 1.72 9.56 9.56 0 01-.68-1.61 15.94 15.94 0 00-1.92-3.67 8.4 8.4 0 00-3.1-2.64c-.95-.45-1.62-.53-1.61-.61z"/><path class="c" d="M230.59 104.85c-.05 0-.31-.19-.69-.61a7.36 7.36 0 01-1.21-1.88 3.85 3.85 0 01-.27-2.24c.12-.59.36-.88.41-.85s-.06.36-.09.89a4.72 4.72 0 00.38 2 12.41 12.41 0 001 1.85c.35.5.52.8.47.84zm8.82-11.58c-.15-.07 0-.5.54-1.07a7.3 7.3 0 012.92-1.68 9.28 9.28 0 013.59-.4c.91.1 1.39.34 1.34.48-.11.3-2.16.18-4.41.92s-3.62 1.91-3.98 1.75zm6.89 11.58c.13-.06.46.27 1.08.68a7.57 7.57 0 002.8 1.11 9.75 9.75 0 003.25 0c.85-.15 1.38-.32 1.45-.22s-.36.41-1.26.71a7.89 7.89 0 01-3.74.24 5.7 5.7 0 01-3-1.47c-.59-.57-.7-1.01-.58-1.05zm9.97-15.56c0-.14.37-.37 1.06-.54a7.48 7.48 0 012.68-.09 4.83 4.83 0 012.27.86c.48.39.5.78.32.86s-.49 0-1-.18a17.39 17.39 0 00-2.1-.44c-1.66-.27-3.18-.17-3.23-.47zm-2.57 2.12a15.7 15.7 0 00-.23 3.35 23.3 23.3 0 00.31 3.34l.15.82v.22a2 2 0 00.08.26 1.89 1.89 0 00.25.49 2 2 0 00.86.71 1.83 1.83 0 00.55.13.34.34 0 01.18 0 1 1 0 01.31 1 4.49 4.49 0 01-.73 1.4 3.28 3.28 0 001.26-1.2 1.9 1.9 0 00.2-1 1.44 1.44 0 00-.51-1 1.27 1.27 0 00-.59-.27.62.62 0 01-.25-.09 1 1 0 01-.36-.37c0-.09-.08-.17-.11-.26v-.33l-.14-.8-.56-3.24c-.2-.98-.37-2.06-.67-3.16zm-7.62 7.13c-.58.12-1.3-.52-1.42-1.48s.41-1.85 1-2 1 .59 1.13 1.53-.12 1.82-.71 1.95z"/><path class="c" d="M245.59 96a2.29 2.29 0 01-1.46-1 1.35 1.35 0 001 1.64 2.1 2.1 0 01-2-.24 2.22 2.22 0 002.57.67m13.01.61c.59 0 1.21-.69 1.2-1.66s-.65-1.77-1.24-1.8-.92.73-.91 1.67.35 1.74.95 1.79z"/><path class="c" d="M258.85 95.05a2.28 2.28 0 001.3-1.23 1.34 1.34 0 01-.78 1.76 2.12 2.12 0 002-.51 2.19 2.19 0 01-2.45 1"/><path class="r" d="M255.92 95.33a7.68 7.68 0 107.26-8.07 7.67 7.67 0 00-7.26 8.07zM237 97.58a7.68 7.68 0 107.26-8.07 7.67 7.67 0 00-7.26 8.07zm20.19-.35a6.47 6.47 0 00-6-.13"/><path class="r" d="M237.37 96.65a41.73 41.73 0 00-11.06-4c-.67-.14-1.62-.09-1.76.59"/><path class="c" d="M254.94 87.2c-4.75-.32-9.27-2.3-13.64-4.25 1.3.58-9.29 10.33-10.92 10.83-5.55 1.71-6.52-5.85-6.32-10 .24-4.81 1-9.41 5-12.23a28.71 28.71 0 0131.61-.73c3.14 2 9 6.51 6.93 10.86-1.85 3.84-7.55 5.55-11.43 5.54-.4.02-.82.01-1.23-.02z"/><path class="d" d="M290.89 173a7.73 7.73 0 01-4.4 5.61 10.69 10.69 0 01-8.88-.36c-12-5.73-21.05-28.62-17-41 1-3 4.17-7.43 7.6-8 6.18-1 4.34 2.94 5.44 6.52 3.28 10.76 10.58 21.38 15.72 31.42a12.55 12.55 0 011.52 4.1 6.18 6.18 0 010 1.71z"/><path class="f" d="M290.89 173a7.73 7.73 0 01-4.4 5.61 10.69 10.69 0 01-8.88-.36c-12-5.73-21.05-28.62-17-41 1-3 4.17-7.43 7.6-8 6.18-1 4.34 2.94 5.44 6.52 3.28 10.76 10.58 21.38 15.72 31.42a12.55 12.55 0 011.52 4.1 6.18 6.18 0 010 1.71z"/><path class="t" d="M290.89 173a7.73 7.73 0 01-4.4 5.61 10.69 10.69 0 01-8.88-.36c-12-5.73-21.05-28.62-17-41 1-3 4.17-7.43 7.6-8 6.18-1 4.34 2.94 5.44 6.52 3.28 10.76 10.58 21.38 15.72 31.42a12.55 12.55 0 011.52 4.1 6.18 6.18 0 010 1.71z"/><path class="f" d="M241.58 413.88c-1.27 3.43-2.66 6.08-3.91 7.13-2.19 1.84-5.52 2.5-8 1.05-2.31-1.34-3.4-4.18-3.39-6.84 0-4.2 2.15-6.55 3.87-10 2.39-4.83 3.63-10.64 5.37-15.75.68-2 1.57-4.27 3.54-5.09 9.86-4.14 6.94 17.47 2.52 29.5z"/><path class="t" d="M241.58 413.88c-1.27 3.43-2.66 6.08-3.91 7.13-2.19 1.84-5.52 2.5-8 1.05-2.31-1.34-3.4-4.18-3.39-6.84 0-4.2 2.15-6.55 3.87-10 2.39-4.83 3.63-10.64 5.37-15.75.68-2 1.57-4.27 3.54-5.09 9.86-4.14 6.94 17.47 2.52 29.5z"/><path class="l" d="M221.74 208.9s-11.57 16.38-8.9 79.28c2.08 49.09 24 99.86 24 99.86s7.38 2 10.2-2.12-5.93-99.15-4.65-107 5.65-54.33 5.65-54.33l-1.67-21z"/><path class="p" d="M221.74 208.9s-11.57 16.38-8.9 79.28c2.08 49.09 24 99.86 24 99.86s7.38 2 10.2-2.12-5.93-99.15-4.65-107 5.65-54.33 5.65-54.33l-1.67-21z"/><path class="l" d="M270.16 208.09c-14.48 7.18-33.62 1.94-48.77 0 3.63.45 8.13-41.07 8.76-45.28.2-1.32 31.25 3.16 35 3.65a191.53 191.53 0 000 24.55c.06 1.99 2.34 18.41 5.01 17.08z"/><path class="p" d="M263.21 320s-1.53 15.61-19.42 79.37c.44 2.75.74 7.25-1.22 9.64s-14.71-7.26-11.26-11.45c10.87-13.23 7-52.78 8.69-67.3l7.12-14.89z"/><path class="f" d="M233.32 392.15c4.1 3.56 5.76 4.11 10.81 5.85l5.52 10.59s6.54 11.67 4.58 14.05-24.37-17.52-24.37-17.52a5.25 5.25 0 01-.33-7.51c2.09-2.55 3.14-2.68 3.79-5.46zM220.7 138.1c-1.91 5.87-8.74 32.48-10 41-5.87-.52-6.75.67-12.63.15a8 8 0 01-4.09-1.14c-2-1.49-2.18-4.43-2-6.95a86.26 86.26 0 016.7-28.2c1.7-4 3.89-10.37 7.13-13.36 3.07-2.83 3.82-1.78 7.89-2.24"/><path class="p" d="M266.38 208.14a139.73 139.73 0 016 69.34c-.42 2.68-.93 7.72-1.41 10.32-.59 3.21-.86 6.52-1.34 9.76q-1.45 9.69-3.29 19.33c-2.24 11.86-4.85 23.64-7.72 35.34-2.95 12-9.77 29.44-13.42 41.2 0 0-6.73.53-9.25-3.66s8.92-104.43 7.92-112.29c-2-15.39-2.59-31.08-3.76-46.58-1.81-.55-23.66-7.17-23.65-7.19q2.93-10.44 5.86-20.89a88.18 88.18 0 0042.54 1.18c.53 1.34 1.04 2.74 1.52 4.14z"/><path class="t" d="M233.41 189a11.85 11.85 0 01-5.46-3c-1.42-1.54-2-4-.95-5.79 0 .07 17.91 4 19.69 4.14 6.49.63 12.91-.26 19.31 0-2 3.59-9.29 5-13 5.68a41.47 41.47 0 01-19.59-1.03z"/><path class="f" d="M209 127.8c.68-.88 17.16-6 22.38-7.78l14 14.62 4.64-15.5c1.3.57 23.39 11 22.07 10.84-4.56 3-5.15 9-3.92 14.31 1.48 6.42 4.16 12.39 2.29 19.06-1.53 5.43-3.26 8.29-3.13 14.34.34 15 2.76 30 5 44.8l6.33 41.76c1.14 7.54 2.11 15.91-2.2 22.21-5.54 8.12-15.42 6.23-23.86 6.93a131.9 131.9 0 01-29.38-1.26c-9.25-1.41-17.88-5.85-26.62-9.44l15.91-74.77c2.93-13.79 8.28-29.26 8.57-43.38.2-10.39-5.76-23.81-10.64-32.76-.77-1.37-2.52-2.67-1.44-3.98z"/><path class="t" d="M253.25 173.22c.91.27 2 .82 1.94 1.77s-1.09 1.23-1.93 1.39a25.2 25.2 0 01-22.81-7.58c4.4-3.8 17.82 2.97 22.8 4.42z"/><path d="M149.11 135.07l6.51-2.74s13.1 25.42 15.41 35.82 7.31 42 7.31 42l-16.94 11.52L148.69 157z" fill="url(#q)"/><path class="p" d="M142.15 140.4c15.39-7.77 25.91-23.22 33.09-38.52 6.86-14.63 8.17-30 6.78-45.79a13.44 13.44 0 00-1-4.74c-.34-.67-6.09-10.6-.84-6.86a15 15 0 002.26 1.81c-1.11-.51-2.39-9.41-2.66-10.88a3.21 3.21 0 010-1.74 1.22 1.22 0 011.41-.8 1.79 1.79 0 01.7.55c1 1.1 2 2.21 3 3.32a3.45 3.45 0 013.55-.07 7.07 7.07 0 012.56 2.59c5.48 8.56 0 15.41 0 24.47 0 3.67.8 7.29 1.22 10.94 4 34.4-14 64.8-42.62 84.43-.79.54-2.39.66-2.24-.27"/><path class="p" d="M182 56.09c0 .59.09 1.18.13 1.77 2.88 1.35 5.86 2.6 8.9 3.67.74-8 4.94-14.41-.08-22.26a7.07 7.07 0 00-2.56-2.59 3.45 3.45 0 00-3.55.07c-1-1.11-2-2.22-3-3.32a1.79 1.79 0 00-.7-.55 1.22 1.22 0 00-1.41.8 3.21 3.21 0 000 1.74c.27 1.47 1.55 10.37 2.66 10.88a15 15 0 01-2.26-1.81c-5.25-3.74.5 6.19.84 6.86a13.44 13.44 0 011.03 4.74z"/><path d="M194.52 63.78c-2.94-1-9.4-2-12.19-3.3.78 14.22-.87 28.13-7.09 41.4-7.18 15.3-17.7 30.75-33.09 38.52l5.14 18.44c-.15.93 4.46 4.07 5.25 3.53 28.63-19.63 45.05-48.24 42.75-82.8-.39-5.77-.75-12.18-.77-15.79z" fill="url(#r)"/><path class="p" d="M176.9 254.21s-19.38 76.14-43.59 139.49c.28 2.83.29 7.43-2 9.7s-15.63-8.51-11.54-12.5c12.89-12.59 12.33-64 15.24-78.59l9.95-71.42z"/><path class="q" d="M174.76 262.74s-17.24 67.61-41.45 131c.28 2.83.29 7.43-2 9.7s-15.63-8.51-11.54-12.5c12.89-12.59 12.33-64 15.24-78.59l6.22-50.1z"/><path class="c" d="M122.33 385.53c4.24 3.94 6 4.62 11.45 6.78l5.31 11.18s6.34 12.36 4 14.63-25.5-19.68-25.5-19.68a5.1 5.1 0 01.18-7.66c2.48-2.42 3.65-2.48 4.56-5.25z"/><path class="p" d="M157 322.23s5.14 15.12 14.52 82.3c1.61 2.34 3.84 6.36 2.9 9.48s-16.22.33-16.15-5.38c.24-17.74-16.58-57.9-21.08-72.1l1.75-11.14z"/><path class="c" d="M157.93 402.68c5.62 1.39 7.52 1.13 13.3.4l10 7.23s11.52 7.76 10.58 10.88-31.81-4.93-31.81-4.93a5.09 5.09 0 01-3.53-6.8c1.01-3.31 2-3.92 1.46-6.78z"/><path class="p" d="M120 214.65s-9.23 9.6-10.3 29.85c-1.33 25.23 45.62 138.22 45.62 138.22s12.39 24.52 14.88 20.28S148 247.7 148 247.7l25.59-10.31s-1.07-13.85-7.82-21c-4.6 7.17-45.77-1.74-45.77-1.74z"/><path class="g" d="M119.91 207.62a32.94 32.94 0 003.47-9.86c.77-5.09-.57-10.32-2.84-14.94-2.74-5.55-6.86-10-8.86-15.88-2.73-8.08-4.61-11.91-3.9-20.19.32-3.79 3.84-6.52 7.22-9.24 5.39-4.34 11.24-1.4 17.38-3a12.08 12.08 0 014.11-.32 24 24 0 005.06-.37 11.65 11.65 0 0112.26 6.11c2.09 4.17 5.3 7.14 6.84 10.42.78 1.68 2.33 3.85 3.16 5.4a25.39 25.39 0 013.34 10.4 14.82 14.82 0 01-4 11.2 11.68 11.68 0 00-3 9.3 37.45 37.45 0 005.18 15.07 11.51 11.51 0 01.89 1.75c1.95 4.83 10.53 27.3 10.53 48.29 0 23.69-55.52 95.89-56.28 89.53-2-16.53-6.55-32.52-9.64-48.84-4.35-23-3.92-47.16 2-69.71 1.49-5.41 4.58-10.17 7.08-15.12z"/><path class="l" d="M114.15 106c-2.31-8.48 1.1-18.07 8.41-23.61a27.23 27.23 0 0126.63-3c3.21 1.43 6.42 4.73 4.75 7.64-1.28 2.23-4.51 2.52-7.06 3.41-4.93 1.72-7.95 6.24-10.6 10.45-1.9 3-3.84 6.14-4.36 9.6-.63 4.21 1.09 8.06 3.9 11.26-8.51 5.36-19.96-9.43-21.67-15.75z"/><path class="p" d="M136.18 123.84l-1.77 7.16c-1.12 4.52-2.28 8.17 4.24 9.13 7 1 8.18-4.43 9.48-9.66.35-1.43 1.34-8.08 3.31-8.34z"/><path class="q" d="M146.72 135.36l3.7-13.06-14.42 1.57-2.34 10.32a26.73 26.73 0 0013.06 1.17z"/><path class="p" d="M160.29 119.32a18.71 18.71 0 01-3.7 7.93c-1.75 2.26-3.78 2.9-6.25 3.6-7.84 2.2-18.73.3-21.39-9.9-1.41.8-3.09-.56-3.56-2.28s0-3 .13-4.63c.07-1.32 0-2.59.12-3.94a27 27 0 012.29-9.52 16.09 16.09 0 016.64-6.71 35.77 35.77 0 018.28-3c4.8-1.28 11.91-2.8 15.22 2.81 1.92 3.25.79 9.33 1.37 13.19.61 4.06 1.61 8.24.85 12.45z"/><path class="p" d="M121.68 108.48c-1.3.68-1.8 2.3-1.84 3.76a9.94 9.94 0 007.25 9.63c1.27.33 2.83.29 3.61-.76s.35-2.58-.21-3.79c-1.07-2.32-5.26-10.7-8.81-8.84z"/><path class="c" d="M121.2 112.06a3 3 0 011.64.41 7.42 7.42 0 013 2.77 12.48 12.48 0 011.51 3.79 5 5 0 01.23 1.66 8.45 8.45 0 01-.54-1.58 15.65 15.65 0 00-1.58-3.63 8.09 8.09 0 00-2.77-2.73c-.87-.5-1.5-.62-1.49-.69z"/><path class="c" d="M126.15 120c-.05 0-.28-.2-.61-.63a7.07 7.07 0 01-1-1.87 3.83 3.83 0 01-.11-2.17c.16-.54.41-.81.45-.78s-.08.34-.14.85a4.42 4.42 0 00.22 2 11.61 11.61 0 00.87 1.85c.23.43.38.75.32.75z"/><path class="l" d="M133.55 107.32c-.14-.08 0-.48.59-1a7.11 7.11 0 012.9-1.39 8.61 8.61 0 013.45-.14c.86.16 1.31.42 1.25.55-.13.28-2.07 0-4.27.57s-3.59 1.59-3.92 1.41z"/><path d="M151.43 105c0-.14.38-.33 1-.44a6.87 6.87 0 012.56.1 4.61 4.61 0 012.11 1c.43.4.42.78.25.84s-.47-.08-.94-.24a17.46 17.46 0 00-2-.57c-1.49-.38-2.95-.39-2.98-.69z" fill="#c7857c"/><path class="c" d="M149.12 108.78a16.46 16.46 0 00-.45 3.18 21.52 21.52 0 00.08 3.21l.08.8v.2l.06.26a1.77 1.77 0 00.21.49 1.94 1.94 0 00.77.73 1.76 1.76 0 00.51.16.39.39 0 01.17 0 .94.94 0 01.23 1 4.32 4.32 0 01-.8 1.3 3.13 3.13 0 001.29-1.07 1.78 1.78 0 00.25-.91 1.41 1.41 0 00-.41-1 1.22 1.22 0 00-.55-.29.9.9 0 01-.22-.1 1 1 0 01-.33-.39 1.83 1.83 0 01-.08-.25.59.59 0 010-.13v-.19l-.07-.78-.32-3.12c-.12-.99-.23-2.03-.42-3.1zm-5.31 5.41A4.14 4.14 0 00142 113a4.91 4.91 0 00-2-.14 7.25 7.25 0 00-2 .58 6.83 6.83 0 00-1.8 1.16l-.07.07a.2.2 0 01-.26 0c-.28-.25-.56-.5-.82-.78.37.09.72.21 1.08.33l-.34.07a4.69 4.69 0 011.7-1.81 5.4 5.4 0 012.39-.81 4.17 4.17 0 012.51.53 3 3 0 011.42 1.99z"/><path class="c" d="M136.27 114l-.46-.64.78.14a.32.32 0 01-.11.63.3.3 0 01-.21-.13zm15.43.05a3.45 3.45 0 011.24-1.51 3.6 3.6 0 011.7-.52 6.05 6.05 0 011.88.17 6.2 6.2 0 011.85.78h.08a.17.17 0 00.23 0c.18-.29.36-.59.52-.9a6.66 6.66 0 00-.85.52h.31a4.72 4.72 0 00-1.94-1.42 4.56 4.56 0 00-2.27-.32 3.19 3.19 0 00-2 1 2.83 2.83 0 00-.75 2.2z"/><path class="c" d="M158.17 112.44l.24-.72-.65.29a.31.31 0 00-.13.41.31.31 0 00.39.18.29.29 0 00.15-.16zM153 122.52l-11.3-1.71s-1.5 4.35 3 5.69c6.12 1.83 8.3-3.98 8.3-3.98z"/><path class="f" d="M146.22 124.1a5.78 5.78 0 00-4.65-.72 4.06 4.06 0 003.13 3.11 7.25 7.25 0 003.67.2 5.33 5.33 0 00-2.15-2.59z"/><path class="l" d="M144.16 100.87c9.47 2.18 21.57 2.85 17.92-7.17C157.66 81.56 144 76 132.9 82.73a24 24 0 00-9.54 11.34c-1.63 3.63-4.89 6.29-3.44 10.32.36 1 7.09 9.26 7.83 7.81l7.19-14.2a55 55 0 009.22 2.87z"/><path class="l" d="M141.06 81.8c3.28-.42 5.15-4.48 4.19-7.64s-3.93-5.34-7-6.51a20 20 0 00-7.46-1.27 17 17 0 00-11.1 4.23 13.27 13.27 0 00-4.37 10.87 10.87 10.87 0 007 9.12 9.24 9.24 0 0010.62-3.67"/><path d="M115 137.51l-6 80.31 29.29 6.18s12.33-48.52 7.7-56.22-17.71-32.35-17.71-32.35-7.28-3.53-13.28 2.08z" fill="url(#s)"/><path class="q" d="M134.24 184.38c-.49-.91-.94-1.83-1.37-2.76-2.6-5.71-4.13-11.84-5.65-17.92-1-3.8-1.43-8.28-3-11.86-1.1-2.49-4.81-4-4.28 0l2.31 17.38 1.17 8.86c.26 1.93 0 4 .34 5.88.71 3.57 4 7.43 6.68 9.7a21.41 21.41 0 0010.56 4.65 4.39 4.39 0 001.91 0c4.1-1.21-2.87-5.77-4.12-7.23a37.52 37.52 0 01-4.55-6.7z"/><path class="f" d="M122.36 252l-13.93-.51a4.74 4.74 0 01-4.53-5.34l2-16a4.75 4.75 0 014.53-4.15l14.3-.51a4.75 4.75 0 014.87 5.39l-2.38 17a4.75 4.75 0 01-4.86 4.12z"/><path d="M124 231.69s33.51-88.38 29.46-93-6.93-2-6.93-2" stroke="#cd4b76" stroke-width="3.7" stroke-miterlimit="10" fill="none"/><path class="g" d="M134.45 130.29c4.32-.21 10.36 1.83 12.68 2.38a9 9 0 014.21 1.79 4.3 4.3 0 01.77 5.22c-1.44 2.43-5.23 2.46-7.78 2.48a21.76 21.76 0 01-10.22-2.57c-1.79-1-4.31-1.94-4.43-5s1.97-4.16 4.77-4.3z"/><path class="q" d="M152.76 138.2c-.23 2.28-2.26 3.28-4 3.61a22.91 22.91 0 01-14.42-2.22c-1.47-.74-3.39-1.53-4.23-3.29a5.32 5.32 0 000 .57c.12 3.09 2.77 4.08 4.66 5a22.9 22.9 0 0014.42 2.22c1.8-.34 3.89-1.37 4.05-3.75a4.4 4.4 0 00-.48-2.14z"/><path d="M231.33 120l14 14.62-13.86 4.62s-9.53-15.94-.14-19.24zm14.02 14.64l4.71-15.53s12.62 10.91 6.84 17.27zm-85.96 198.79c94.83 29.94 191.84 43.07 288.55 39.05 54.66-2.28 109.16-10 163.62-17.71l119.14-16.89c-22.34-53.14-25.46-124.65-8-182l-244.12 3.38c-57.46.8-114.94 1.59-172.4-.17-29-.89-57.89-2.43-86.8-5-12.61-1.09-28.28-7-40.69-3.67-12.18 3.29-7.62 25.17-7.34 39.3a694.76 694.76 0 01-11.96 143.71z" fill="#f9fbfc"/><path class="p" d="M173 207c-1.87 2.19-2.78 4.83-.53 7.09s7 .63 9.45-.1l9.58-2.9c2.05-.62 4.54-1.83 4.41-4a4.28 4.28 0 00-2.26-3A15.8 15.8 0 00173 207z"/><path d="M117.88 135.51l17 59.41 38.93 8.85s-.37 10.9-3.19 12-52.06-6.24-53.93-9.16c-1.37-2.14-8.79-31.24-12.66-46.66a15 15 0 01-.24-5.09 24.09 24.09 0 0113-18.8z" fill="url(#t)"/><path class="p" d="M706.06 242.5v-.11c0-8.29 8.57-18.58 17.37-14.94a11.37 11.37 0 015.66 4.63c2 3.29.75 4-2.06 6.38-4.41 3.66-20.85 18.18-20.97 4.04z"/><path class="g" d="M764 150.71l1.71 47.6-45 28s5.32 9.71 9.36 9.67S790 212.13 791 207.6s-6.53-73.22-6.53-73.22z"/><path class="p" d="M194.73 144.94a7.36 7.36 0 00-5.88 1.94c-2.65 2.71-.63 7.05 1.11 9.21a22.83 22.83 0 004.17 4.49c2 1.36 4.53 2.28 6.67 3.42 1.22.59 2.59-1.85 2.77-2.69a10.07 10.07 0 00-.3-4.33c-.57-2.36-1.78-5.63-4-6.94.41-.09 5.27.38 5.64.21a42.93 42.93 0 00-3.86-3.4 13 13 0 00-6.32-1.91zm87.06 5a7.32 7.32 0 015.62 2.59c2.32 3-.18 7.08-2.16 9a23.5 23.5 0 01-4.65 4c-2.11 1.12-4.76 1.74-7 2.63-1.28.45-2.37-2.13-2.45-3a10.13 10.13 0 01.79-4.27c.84-2.28 2.41-5.38 4.77-6.44-.4-.13-5.28-.22-5.63-.43a45.85 45.85 0 014.22-2.94 13 13 0 016.49-1.14zm100.5 1.94a7.34 7.34 0 00-5.75 2.3c-2.47 2.86-.19 7.07 1.68 9.12a23.08 23.08 0 004.44 4.23c2 1.23 4.66 2 6.86 3 1.26.51 2.48-2 2.61-2.86a10.15 10.15 0 00-.57-4.3c-.72-2.33-2.12-5.51-4.42-6.69.41-.11 5.28.06 5.64-.13a44.41 44.41 0 00-4.06-3.16 13 13 0 00-6.43-1.51zm87.21-.39a7.37 7.37 0 015.77 2.24c2.49 2.85.25 7.08-1.6 9.14a23.39 23.39 0 01-4.4 4.27c-2 1.24-4.64 2-6.84 3.06-1.25.53-2.49-2-2.63-2.84a10.15 10.15 0 01.53-4.3c.7-2.33 2.07-5.53 4.36-6.73-.41-.11-5.28.11-5.64-.08a44.11 44.11 0 014-3.2 13 13 0 016.45-1.56zm25.66-.72a7.35 7.35 0 00-5.84 2c-2.59 2.77-.48 7.07 1.31 9.19a23.08 23.08 0 004.26 4.4c2 1.31 4.58 2.18 6.73 3.28 1.24.57 2.56-1.9 2.72-2.75a10 10 0 00-.39-4.32c-.62-2.35-1.89-5.59-4.14-6.86.41-.1 5.28.27 5.64.09a44.18 44.18 0 00-3.93-3.32 13 13 0 00-6.36-1.71z"/><path class="h" d="M700.63 146.67c3 0 5.93.59 8.09 2.93 3.56 3.87.58 9.81-1.93 12.74-1.71 2-3.74 4.62-6 6.06-2.78 1.8-6.37 3-9.38 4.47-1.72.78-3.52-2.66-3.74-3.85a14 14 0 01.59-6c.89-3.26 2.69-7.74 5.84-9.47-.58-.14-7.34.31-7.84.06a60.71 60.71 0 015.49-4.56 18 18 0 018.88-2.38z"/><text transform="translate(215.46 271.83)" font-size="36.03" font-family="Roboto-Bold,Roboto" font-weight="700"><tspan x="49.06" y="0" letter-spacing="-.01em"></tspan><tspan x="72.93" y="0" letter-spacing="0">   !</tspan></text></g></svg>