<svg xmlns="http://www.w3.org/2000/svg" viewBox="0 0 324.08 363.51"><defs><style>.b{fill:#2c2c2c}</style></defs><path d="M189 48.75A75.77 75.77 0 01199.5 72c16.37 58.61-8.7 157.62-8.7 157.62s-134.63-13.24-169.59-63C-5.23 129-6.4 81.69 14.63 46.77a96.26 96.26 0 0127.19-29.19C88.17-15 154.08-1 189 48.75zm1.8 180.91s7.55 14.81 13.3 12.12 10-13.06 7.38-15.92-20.68 3.8-20.68 3.8z" fill="#fcba64"/><path class="b" d="M192.92 229.3l-2.73 1.92a1.31 1.31 0 01-1.82-.31 1.31 1.31 0 01.32-1.82l2.73-1.92a1.31 1.31 0 011.82.32 1.3 1.3 0 01-.32 1.81z"/><path class="b" d="M311 363.51a14.22 14.22 0 00-4-4.92 3.86 3.86 0 00-3.47-.74c.22-.53 22.34-52.89 13.62-75.24-4.74-12.12-36.69-1.56-62.36 6.92-22.65 7.48-40.6 16.91-47 9.11-5.92-7.24 3.26-25 9.48-39.19 3.66-8.38 7.8-17.87 6-19.75-2.15-2.29-9.36 1.74-15.15 5-7.25 4-13.51 7.55-16.56 4.55-5.49-5.38-1.59-18.51-1.42-19.07l.63.2c0 .12-2.2 12.85 2.33 17.29 1.88 1.85 8.57-1.89 13.94-4.89 7.46-4.17 16.35-9.67 19.68-6.12 2.63 2.8-2.11 11.43-7.47 23.69-5.67 13-12.73 29.14-7.8 35.49 3.52 4.52 23.38-2 42.58-8.38 29.31-9.69 62.2-21.84 67.69-7.77 3.82 9.79 2.64 26.27-1.58 49.34a275.94 275.94 0 01-9.14 34.48z"/><path d="M189 48.75A75.77 75.77 0 01199.5 72c-.17 40.81-32.52 72.56-96.54 77.4C-29.6 159.45 14.64 46.78 14.64 46.78a96.26 96.26 0 0127.18-29.2C88.17-15 154.08-1 189 48.75z" fill="#ffd186"/><path d="M133.42 28.67c-.78 6.07-19.76 15.56-34.22 13.72S77.45 29.78 77.43 23.67C77.4 12 94.6 9.46 109.06 11.31s25.13 11.3 24.36 17.36z" fill="#ecf1f9"/></svg>