<svg xmlns="http://www.w3.org/2000/svg" viewBox="0 0 512 512"><path d="M256 308.893c-24.813 0-45 20.187-45 45s20.187 45 45 45 45-20.187 45-45-20.187-45-45-45zm0 60c-8.271 0-15-6.729-15-15s6.729-15 15-15 15 6.729 15 15-6.729 15-15 15z"/><path d="M501.999 370.596L512 367.061V286.68L231.148 5.828c-25.181 5.345-60.588 5.704-106.041 29.084l-12.721 6.543C116.745 52.132 121 57.016 121 66.893c0 16.542-13.458 30-30 30-6.637 0-12.922-2.12-18.176-6.13l-11.369-8.678-9.209 10.943C25.841 124.403 7.876 161.031.291 198.952L0 200.408V426.38l89.747 16.552 1.354-16.536c1.263-15.422 14.396-27.502 29.898-27.502 16.542 0 30 13.458 30 30a30.03 30.03 0 01-1.225 8.525l-4.929 16.665L512 506.172v-75.446l-10.001-3.535C490.321 423.063 482 411.953 482 398.893c0-12.697 8.037-24.069 19.999-28.297zM284.663 101.769l41.461 41.461c-5.454 8.309-14.883 13.663-25.124 13.663-16.542 0-30-13.458-30-30 0-10.241 5.354-19.67 13.663-25.124zM67.437 122.104c7.372 3.156 15.335 4.789 23.563 4.789 33.084 0 60-26.916 60-60 0-3.61-.314-7.169-.939-10.659 32.234-14.194 56.51-15.332 70.791-18.276l42.298 42.298c-13.761 11.11-22.149 28-22.149 46.637 0 33.084 26.916 60 60 60 18.637 0 35.527-8.389 46.637-22.149l115.12 115.12-282.482-53.667a60.21 60.21 0 00.725-9.303c0-33.084-26.916-60-60-60-28.696 0-52.739 20.255-58.615 47.215l-31.254-5.76c6.373-26.869 18.782-52.915 36.305-76.245zM151 216.893c0 16.542-13.458 30-30 30s-30-13.458-30-30 13.458-30 30-30 30 13.458 30 30zm181.241 233.476c3.683-12.401 15.178-21.476 28.759-21.476 16.479 0 29.893 13.356 29.995 29.811l-58.754-8.335zM482 346.921c-18.296 10.579-30 30.312-30 51.972a60.012 60.012 0 0030 51.978v20.744l-61.15-8.675c.089-1.343.15-2.69.15-4.046 0-33.084-26.916-60-60-60-28.705 0-52.753 20.267-58.621 47.239L181 428.912v-.019c0-33.084-26.916-60-60-60-25.453 0-47.586 15.948-56.197 38.932L30 401.407V228.645l33.753 6.221c7.655 24.331 30.422 42.027 57.247 42.027 18.916 0 35.805-8.808 46.81-22.528L482 314.056v32.865z"/></svg>