<svg height="512pt" viewBox="-26 0 512 512" width="512pt" xmlns="http://www.w3.org/2000/svg"><path d="M415 200h-35v-25c0-8.285-6.715-15-15-15H15c-8.285 0-15 6.715-15 15v37.227a557.66 557.66 0 007.566 91.406l32.637 195.832A15.002 15.002 0 0055 512h270c7.332 0 13.59-5.3 14.797-12.535L351.375 430H415c24.813 0 45-20.188 45-45V245c0-24.813-20.188-45-45-45zM67.707 482l-30.55-183.3A527.413 527.413 0 0130 212.226V190h320v22.227c0 28.886-2.406 57.976-7.156 86.472L312.293 482zM430 385c0 8.27-6.73 15-15 15h-58.625l16.063-96.367A558.494 558.494 0 00379.71 230H415c8.27 0 15 6.73 15 15zM85 90h75c13.785 0 25 11.215 25 25 0 8.285 6.715 15 15 15s15-6.715 15-15c0-30.328-24.672-55-55-55H85c-8.27 0-15-6.73-15-15s6.73-15 15-15h185c8.285 0 15-6.715 15-15s-6.715-15-15-15H85C60.187 0 40 20.188 40 45s20.188 45 45 45zm0 0"/><path d="M283.438 245.215c-43.801-14.95-94.278-2.442-128.59 31.875-31.942 31.937-44.98 77.887-34.57 119.418l-14.93 14.93c-5.856 5.859-5.856 15.355 0 21.214a14.971 14.971 0 0010.605 4.395c3.84 0 7.68-1.469 10.61-4.395l14.917-14.922c9.426 2.364 19.079 3.52 28.747 3.52 32.921 0 65.992-13.402 90.683-38.098 34.317-34.312 46.824-84.785 31.875-128.59a14.998 14.998 0 00-9.347-9.347zm-43.74 116.725c-19.601 19.598-45.906 29.965-71.722 29.293l43.437-43.437c5.86-5.856 5.86-15.356 0-21.211-5.855-5.86-15.355-5.86-21.215 0l-43.433 43.437c-.668-25.82 9.695-52.125 29.293-71.722 24.39-24.39 59.16-34.492 90.453-26.813 7.68 31.293-2.426 66.067-26.813 90.453zm0 0"/></svg>