<svg height="511pt" viewBox="0 0 511.999 511" width="511pt" xmlns="http://www.w3.org/2000/svg"><path d="M485.176 23.75c-8.446-3.57-17.848-4.258-26.86-2.117-4.742-7.957-11.789-14.219-20.234-17.79-22.953-9.706-50.098 2.442-60.512 27.079-6.023 14.25-2.789 34.816 9.89 62.875 5.888 13.035 12.38 24.379 16.11 30.586l-17.718 41.586a83.61 83.61 0 00-12.508-3.59C357.484 92.8 295.637 41.96 223.687 40.449a139.024 139.024 0 00-6.753 0c-71.993 1.512-133.84 52.352-149.7 121.93-17.804 3.629-33.988 12.957-46.164 26.73C7.125 204.883-.355 225.187.012 246.281c.375 21.508 8.949 41.883 24.148 57.371 9.625 9.805 21.258 16.98 33.95 21.125l37.285 157.774c4.156 17.586 19.68 29.87 37.753 29.87h36.133c.016 0 .028.005.043.005s.028-.004.043-.004h101.84c.016 0 .031.004.043.004.016 0 .031-.004.043-.004h36.133c18.074 0 33.601-12.285 37.758-29.871l37.285-157.774c12.691-4.144 24.324-11.32 33.945-21.125 15.2-15.484 23.777-35.859 24.149-57.37.367-21.094-7.11-41.4-21.06-57.173a84.567 84.567 0 00-15.835-13.933l18.082-42.438c6.797-1.562 20.05-4.894 34.18-9.996 28.96-10.46 45.965-22.469 51.984-36.719 10.418-24.636.215-52.57-22.738-62.273zm-159.457 454.2a18.73 18.73 0 01-18.29 14.472h-24.12l22.21-117.356c1.028-5.43-2.539-10.66-7.964-11.687-5.43-1.031-10.66 2.539-11.688 7.965l-22.914 121.078h-32.668v-79.215c0-5.523-4.476-10-10-10-5.523 0-10 4.477-10 10v79.215h-32.668l-22.914-121.078c-1.027-5.426-6.254-8.996-11.683-7.965a10 10 0 00-7.97 11.687l22.212 117.356h-24.117a18.733 18.733 0 01-18.293-14.473l-35.25-149.183c.492.027.98.07 1.472.09 28.301.988 54.63-11.907 71.133-34.672 15.828 21.808 41.023 34.722 68.082 34.722 27.055 0 52.25-12.914 68.078-34.722 15.906 21.941 40.945 34.726 68.067 34.722 1.02 0 2.043-.015 3.066-.05.496-.02.98-.063 1.473-.09zm94.847-232.02c-.59 34.086-27.726 61.73-61.773 62.937-22.441.809-43.285-9.89-55.734-28.59a17.622 17.622 0 00-14.7-7.863h-.004c-5.91 0-11.39 2.934-14.656 7.844-11.937 17.941-31.906 28.652-53.41 28.652-21.504 0-41.469-10.71-53.406-28.652a17.567 17.567 0 00-14.656-7.844h-.004a17.624 17.624 0 00-14.703 7.863c-12.45 18.7-33.332 29.391-55.735 28.59-34.047-1.207-61.18-28.851-61.773-62.937-.578-33.207 23.828-61.082 56.77-64.836a10.003 10.003 0 008.71-8.16c11.5-63.817 66.957-111.125 131.906-112.489 1.922-.05 3.82-.05 5.829 0 64.91 1.364 120.367 48.672 131.867 112.489a9.995 9.995 0 008.707 8.16 64.889 64.889 0 0114.215 3.273l-23.704 55.625c-2.164 5.082.2 10.957 5.282 13.121a9.92 9.92 0 003.914.805c3.887 0 7.586-2.281 9.207-6.086l22.953-53.875c15.559 11.977 25.266 30.895 24.898 51.973zm68.93-167.696c-6.055 14.32-42.293 28.043-69.676 34.457-14.48-24.093-29.894-59.632-23.828-73.98 4.758-11.258 15.117-18.219 25.508-18.219 2.973 0 5.95.57 8.797 1.774 6.277 2.652 10.98 7.953 13.234 14.918a9.997 9.997 0 0013.934 5.887c6.566-3.235 13.644-3.555 19.926-.9 12.793 5.411 18.226 21.587 12.105 36.063zm0 0"/><path d="M220.285 363.207c-2.629 0-5.21 1.063-7.07 2.93a10.066 10.066 0 00-2.93 7.07c0 2.633 1.07 5.211 2.93 7.07a10.1 10.1 0 007.07 2.93c2.633 0 5.211-1.066 7.07-2.93a10.037 10.037 0 002.93-7.07c0-2.629-1.058-5.207-2.93-7.07a10.026 10.026 0 00-7.07-2.93zm-95.637-193.445c-5.437-.965-10.632 2.66-11.597 8.093l-.031.176c-.899 5.399 2.714 10.528 8.117 11.489.59.105 1.18.156 1.761.156 4.754 0 8.973-3.406 9.832-8.25.012-.051.024-.117.032-.176.898-5.398-2.711-10.527-8.114-11.488zm93.102-81.317c-37.012 1.48-69.332 19.121-88.684 48.399-3.043 4.61-1.777 10.812 2.832 13.855a9.95 9.95 0 005.504 1.66 9.988 9.988 0 008.352-4.488c15.758-23.844 42.293-38.219 72.797-39.441 5.52-.22 9.812-4.875 9.594-10.39-.223-5.52-4.887-9.81-10.395-9.595zm0 0"/></svg>