<svg xmlns="http://www.w3.org/2000/svg" viewBox="0 0 512 512"><path d="M473.043 164.174h-26.541c-.203-.226-.393-.459-.61-.675L301.197 18.803c-6.519-6.52-17.091-6.52-23.611 0s-6.52 17.091 0 23.611l121.759 121.759H112.654l121.76-121.759c6.52-6.52 6.52-17.091 0-23.611-6.519-6.52-17.091-6.52-23.611 0L66.107 163.499c-.217.217-.407.45-.61.675h-26.54C17.476 164.174 0 181.65 0 203.13v22.261c0 20.461 15.855 37.287 35.924 38.84l32 192.003c4.043 24.251 24.82 41.853 49.406 41.853h282.23c24.765 0 46.081-18.488 49.584-43.004l27.268-190.88c19.91-1.714 35.587-18.467 35.587-38.812V203.13c.001-21.48-17.475-38.956-38.956-38.956zm5.566 61.217a5.571 5.571 0 01-5.565 5.565H306.088c-9.22 0-16.696 7.475-16.696 16.696 0 9.22 7.475 16.696 16.696 16.696h136.576L416.09 450.362c-1.168 8.172-8.273 14.334-16.529 14.334H117.33a16.644 16.644 0 01-16.469-13.951L69.796 264.348h136.117c9.22 0 16.696-7.475 16.696-16.696 0-9.22-7.475-16.696-16.696-16.696H38.957a5.571 5.571 0 01-5.565-5.565V203.13a5.571 5.571 0 015.565-5.565h434.087a5.571 5.571 0 015.565 5.565v22.261z"/><path d="M155.826 297.739c-9.22 0-16.696 7.475-16.696 16.696v100.174c0 9.22 7.475 16.696 16.696 16.696s16.696-7.475 16.696-16.696V314.434c0-9.22-7.475-16.695-16.696-16.695zm100.174 0c-9.22 0-16.696 7.475-16.696 16.696v100.174c0 9.22 7.475 16.696 16.696 16.696 9.22 0 16.696-7.475 16.696-16.696V314.434c0-9.22-7.476-16.695-16.696-16.695zm100.174 0c-9.22 0-16.696 7.475-16.696 16.696v100.174c0 9.22 7.475 16.696 16.696 16.696 9.22 0 16.696-7.475 16.696-16.696V314.434c0-9.22-7.476-16.695-16.696-16.695z"/></svg>