<svg height="512" width="512" xmlns="http://www.w3.org/2000/svg"><path d="M435.301 326.143l14.562-27.073c3.924-7.295 1.19-16.39-6.105-20.313s-16.392-1.189-20.315 6.106l-14.615 27.172c-26.042-6.298-54.076 5.648-67.092 29.988-11.477 21.46-26.595 39.865-44.221 54.728V285.966c0-21.94-5.187-43.91-15-63.534l-33.167-66.326c-5.656-11.31-9.354-23.609-10.941-36.166 7.867-.464 14.108-6.971 14.108-14.953V29.996c0-16.54-13.458-29.996-30-29.996h-90c-16.542 0-30 13.456-30 29.996v74.991c0 7.982 6.241 14.489 14.108 14.953-1.587 12.555-5.285 24.855-10.941 36.165l-33.168 66.327c-9.813 19.625-15 41.594-15 63.534v210.975c0 8.283 6.716 14.998 15 14.998 1.588 0 179.586.021 180.763-.039 77.732 2.393 153.916-38.833 193.69-112.207 13.308-24.548 8.666-54.91-11.666-73.55zm-28.619 16.691c16.496 7.255 22.554 26.619 13.91 42.567a187.492 187.492 0 01-2.618 4.652l-49.89-33.693c7.748-14.458 24.82-19.586 38.598-13.526zM87.514 300.965h180v72.991h-180zm135-270.969v59.993H132.51l-.015-59.992 90.019-.001zm-90 139.524c7.723-15.443 12.566-32.342 14.285-49.534h61.429c1.719 17.193 6.562 34.092 14.285 49.536l33.167 66.325c5.499 10.997 9.146 22.928 10.803 35.121H88.544c1.657-12.192 5.304-24.124 10.803-35.121zm-45 234.433h180v13.387c-39.255 21.531-85.902 28.324-131.395 16.562a15.073 15.073 0 00-17.178 7.49c-3.315 6.197-1.958 13.781 3.314 18.455 9.3 8.226 19.401 15.623 30.114 22.096H87.514zm105.883 65.089c65.115-4.079 122.203-37.468 158.683-87.292l48.805 32.96c-50.047 60.952-134.454 83.782-207.488 54.332z"/></svg>