<svg height="512" viewBox="0 0 512.001 512.001" width="512" xmlns="http://www.w3.org/2000/svg"><path d="M476.151 208.825c23.345-23.35 36.076-54.395 35.846-87.418-.23-33.017-13.4-63.887-37.086-86.925C451.45 11.662 420.382-.582 387.407.022 354.404.62 323.753 14 301.099 37.695c-19.66 20.563-31.591 47.518-33.593 75.9-.252 3.575-.639 7.12-1.142 10.633-27.062-18.263-54.257-31.884-78.196-38.993-44.085-13.093-67.199-1.981-78.825 9.647-19.741 19.744-20.601 54.771-2.525 98.83-22.127 8.213-41.879 20.897-58.778 37.799-64.052 64.063-64.052 168.301 0 232.365 31.03 31.035 72.286 48.126 116.17 48.126 43.883 0 85.139-17.092 116.169-48.126 16.659-16.662 29.601-36.842 37.788-58.784 21.032 8.632 40.009 12.954 56.243 12.954 17.768 0 32.258-5.166 42.575-15.484 11.648-11.65 22.766-34.818 9.583-79.032-7.138-23.943-20.773-51.118-39.033-78.158 3.238-.416 6.502-.73 9.789-.936a122.254 122.254 0 0078.827-35.611zM259.158 442.664C233.796 468.03 200.076 482 164.209 482c-35.868 0-69.588-13.97-94.95-39.336-52.36-52.368-52.36-137.577 0-189.945 14.459-14.462 31.458-25.146 50.551-31.808 5.289 9.762 11.279 19.647 17.881 29.505-16.867 4.552-32.143 13.372-44.761 25.991-39.299 39.306-39.299 103.261 0 142.567 19.039 19.042 44.352 29.529 71.278 29.529s52.24-10.487 71.279-29.529a101.037 101.037 0 0025.97-44.77c9.859 6.605 19.744 12.597 29.507 17.888-6.616 18.902-17.543 36.307-31.806 50.572zM157.139 277.153a463.736 463.736 0 0036.477 41.118 463.674 463.674 0 0041.037 36.425c-1.604 16.228-8.83 31.511-20.386 43.069-13.371 13.374-31.149 20.739-50.059 20.739-18.909 0-36.687-7.365-50.058-20.739-27.606-27.611-27.606-72.537 0-100.148 11.368-11.369 25.791-18.371 41.712-20.249.434-.05.857-.129 1.277-.215zm240.674 54.946c6.89 23.107 6.143 41.059-2.049 49.252-10.618 10.62-36.308 8.729-68.724-5.057-36.468-15.509-77.364-44.388-112.203-79.232-34.838-34.844-63.713-75.748-79.22-112.223-13.785-32.425-15.675-58.125-5.054-68.747 8.167-8.168 26.05-8.933 49.062-2.098 23.638 7.02 51.299 21.539 78.753 41.216-6.894 18.118-17.38 34.545-30.961 48.13l-3.266 3.266c-5.857 5.857-5.857 15.353-.001 21.21l58.474 58.483a15 15 0 0021.224-.004l.724-.725c14.552-14.555 32.21-25.629 51.664-32.652 19.836 27.582 34.486 55.4 41.577 79.181zm-104.166-77.207l-37.909-37.916c24.302-27.628 39.013-63.197 41.699-101.271 1.511-21.419 10.514-41.762 25.352-57.281 17.082-17.867 40.224-27.956 65.164-28.409 24.938-.451 48.357 8.77 66.037 25.968 17.885 17.396 27.83 40.704 28.003 65.631.174 24.933-9.437 48.372-27.062 66a92.255 92.255 0 01-59.49 26.878c-38.013 2.388-73.655 16.616-101.794 40.4z"/></svg>