<svg xmlns="http://www.w3.org/2000/svg" viewBox="0 0 511.999 511.999"><path d="M500.079 293.619c-7.407-17.472-16.761-31.161-23.331-39.597a50.575 50.575 0 004.66-20.123c.289-13.919-5.261-27.474-15.226-37.189-16.125-15.719-41.347-35.639-75.115-48.526l5.499-19.303-6.492-6.25C351.153 85.159 260.1 83.256 256.243 83.193l-.244-.004-.244.004c-3.857.063-94.91 1.965-133.83 39.438l-6.492 6.25 5.499 19.303c-33.768 12.887-58.99 32.807-75.115 48.526-9.965 9.714-15.516 23.27-15.226 37.189a50.533 50.533 0 004.66 20.123c-6.57 8.436-15.924 22.124-23.331 39.597-16.924 39.928-15.807 80.713 3.233 117.947 5.099 9.971 15.186 16.388 26.983 17.164.803.054 1.601.079 2.394.079 11.021 0 21.01-5.059 27.059-13.82 12.267-17.766 36.4-48.069 66.777-62.912l15.712 14.092 31.881-17.05h140.083l31.881 17.05 15.712-14.092c30.377 14.842 54.512 45.146 66.777 62.912 6.05 8.762 16.037 13.821 27.059 13.82.793 0 1.592-.025 2.394-.079 11.797-.776 21.885-7.193 26.982-17.164 19.039-37.233 20.157-78.019 3.232-117.947zM46.897 397.943c-.396.572-1.574.935-2.79.85-1.208-.08-2.078-.565-2.242-.886-14.933-29.202-15.84-60.048-2.698-91.681 4.926-11.856 11.015-21.698 16.027-28.742l59.467 53.335c-29.449 17.576-52.531 45.059-67.764 67.124zm111.564-68.141l-91.055-81.668c-4.279-3.836-6.7-9.113-6.82-14.857-.119-5.73 2.073-11.084 6.172-15.08 13.587-13.245 34.577-29.926 62.426-41.034l41.6 146.048-12.323 6.591zm152.722-10.685H200.816l-51.361-180.32c28.497-19.748 85.169-25.196 106.552-25.599 21.364.382 77.999 5.794 106.539 25.595l-51.363 180.324zm42.353 10.684l-12.323-6.591 41.6-146.048c27.848 11.108 48.839 27.789 62.426 41.034 4.1 3.995 6.291 9.351 6.172 15.08-.12 5.744-2.541 11.021-6.82 14.857l-91.055 81.668zm116.597 68.106c-.163.32-1.034.806-2.241.886-1.221.084-2.394-.277-2.79-.85-15.234-22.065-38.316-49.548-67.764-67.124l59.476-53.344c15.089 21.239 40.015 68.226 13.319 120.432z"/></svg>