<svg xmlns="http://www.w3.org/2000/svg" viewBox="0 0 504.449 504.449"><path d="M498.475 157.855a22.34 22.34 0 00-.555-.555L347.093 6.473c-8.321-8.271-21.759-8.271-30.08 0l-211.2 211.2a21.336 21.336 0 00-6.187 13.013l-14.08 98.56-40.32 39.253c-8.271 8.321-8.271 21.759 0 30.08l15.147 15.147L0 474.099l30.08 30.08 60.587-60.16 15.147 15.147c8.321 8.271 21.759 8.271 30.08 0l40.32-40.32 98.56-14.08a21.336 21.336 0 0012.16-5.973L497.92 188.019c8.483-8.176 8.732-21.681.555-30.164zM120.96 413.726l-30.293-30.08 15.147-15.147 30.08 30.293-14.934 14.934zm140.8-50.347l-87.893 12.587-45.653-45.013 12.587-87.893 192-192 120.747 120.747L261.76 363.379z"/><path d="M301.777 111.949l-.124.124-60.16 60.373c-8.271 8.321-8.271 21.759 0 30.08l60.373 60.373c8.321 8.271 21.759 8.271 30.08 0l60.373-60.373c8.271-8.321 8.271-21.759 0-30.08l-60.373-60.373c-8.296-8.366-21.804-8.421-30.169-.124zM316.8 217.673l-30.08-29.653 30.08-30.08 30.293 30.08-30.293 29.653zm-75.44 75.359l-30.17-30.17 30.17-30.17 30.17 30.17zM196.1 338.28l-30.165-30.173 30.174-30.166 30.166 30.174z"/></svg>