<svg xmlns="http://www.w3.org/2000/svg" viewBox="0 0 552 552"><path d="M72.2 534.5h144.4c12.6 0 22.8-10.1 22.9-22.6v-77.6c0-69.4-27.4-110.5-68.3-150.9-10.6-10.3-16.6-24.4-16.7-39.2V114.6c0-9.8 7.5-18 17.2-18.9.4 12.4 2.7 24.7 6.8 36.4 7.7 21.7 25.5 49.6 66.7 59.1 3 .7 6.2-.3 8.4-2.6 2.1-2.3 2.9-5.5 2-8.5-.9-3-3.4-5.3-6.4-6-26.7-6.2-44.8-22-53.9-47.3-3.6-10-5.6-20.5-6-31.1h51c5 0 9-3.9 9.3-8.9V46.6c0-4.8-4.4-8.3-9.3-8.3H93.1c-2.3-.1-4.5.8-6.2 2.4l-38.2 38c-1.7 1.6-2.6 3.8-2.6 6.1s.9 4.5 2.5 6.2l28.5 28.6V216c.1 1.7.6 3.4 1.6 4.8-7 7.3-13.3 15.1-18.9 23.5-15.8 23.5-24.1 51.3-24 79.6l-.1 174c0 20.2 16.4 36.6 36.5 36.6zm149.9-22.6c-.1 2.9-2.5 5.1-5.4 5.1H104.6V368.3c-.1-10.9 4.2-21.4 11.9-29.1 7.7-7.7 18.1-12.1 29-12.1h41.3c21.8 28.7 35.4 61.3 35.4 107.3v77.5zm-85-304.9H95.2l-.6-.1V197h42.5v10zm95-128.7h-16.3V55.8h16.3v22.5zm-140 31.5L67.2 85l29.5-29.2h101.6v22.5h-24.7c-20.1 0-36.5 16.3-36.6 36.4v64.9H94.6V116c0-2.3-.9-4.5-2.5-6.2zM53.3 324c-.1-24.9 7.2-49.3 21.1-70 7.3-10.8 15.9-20.7 25.6-29.5h37.1v19.6c0 19.4 7.8 38.1 21.7 51.6 4.6 4.6 9 9.1 13.3 13.7h-26.6c-15.5 0-30.4 6.2-41.4 17.3-10.9 11-17.1 25.9-17 41.5V517H72.2c-10.5 0-19-8.5-19-19l.1-174zM347.6 67c0-4.8-3.9-8.8-8.8-8.8h-40.3c-4.8 0-8.7 3.9-8.7 8.8 0 4.8 3.9 8.8 8.7 8.8h40.3c4.9 0 8.8-4 8.8-8.8zm-62.9-18.6c1 0 1.9-.2 2.9-.5L327.9 34c4.6-1.6 7-6.6 5.4-11.1-1.6-4.6-6.6-7-11.1-5.4l-40.3 13.9c-4 1.4-6.5 5.5-5.8 9.7.7 4.2 4.3 7.3 8.6 7.3zm-2.8 55.1l40.3 13.9c4.6 1.5 9.5-.9 11.1-5.4 1.6-4.5-.8-9.5-5.4-11.1L287.6 87c-4.6-1.5-9.5.9-11.1 5.4-1.5 4.5.8 9.5 5.4 11.1z"/><path d="M137.9 405.8c-4.8 0-8.8 3.9-8.8 8.8 0 4.8 3.9 8.8 8.8 8.8h53.8c4.8 0 8.8-3.9 8.8-8.8 0-4.8-3.9-8.8-8.8-8.8h-53.8zm42.5 47.5h-42.5c-4.8 0-8.8 3.9-8.8 8.8 0 4.8 3.9 8.8 8.8 8.8h42.5c4.8 0 8.8-3.9 8.8-8.8s-3.9-8.8-8.8-8.8z"/></svg>