<svg xmlns="http://www.w3.org/2000/svg" viewBox="0 0 512 512"><path d="M275.92 333.164c9.323-16.56-2.55-37.595-21.952-37.595-19.12 0-31.215 20.521-22.245 37.162-15.905-4.475-31.901 7.61-31.901 24.311 0 13.909 11.329 25.208 25.198 25.208 19.251 0 31.114-20.662 22.174-37.172 4.677 1.32 9.948 1.24 14.756-.403-9.343 16.53 2.6 37.575 22.013 37.575 13.879 0 25.208-11.299 25.208-25.208 0-17.336-17.155-29.411-33.251-23.878zm-50.9 33.967c-5.544 0-10.079-4.536-10.079-10.089 0-5.564 4.536-10.089 10.079-10.089s10.079 4.526 10.079 10.089c0 5.553-4.535 10.089-10.079 10.089zm28.948-36.285c-5.624 0-10.15-4.495-10.15-10.079 0-5.544 4.526-10.079 10.15-10.079 5.564 0 10.089 4.536 10.089 10.079 0 5.584-4.526 10.079-10.089 10.079zm29.995 36.285a10.068 10.068 0 01-10.089-10.089 10.06 10.06 0 0110.089-10.089c5.564 0 10.089 4.526 10.089 10.089 0 5.553-4.525 10.089-10.089 10.089zm109.399-216.269c-12.801-24.059-108.875-27.032-136.341-27.083 30.417-33.506 44.957-90.16 38.775-116.555-1.169-6.672-11.4-10.271-16.872-3.891l-56.937 65.373c-38.626 38.098-107.605 67.066-105.206 88.273v.04c-.102 0-.016 28.371-.02 48.652a7.52 7.52 0 007.559 7.559c4.156 0 7.569-3.369 7.569-7.559v-31.064c46.132 21.993 199.97 22.305 248.129.181v79.887c-.907 2.368-13.975 6.957-14.081 6.995h-.03c-56.243 16.251-140.274 11.47-139.969 11.47h-.03c-4.011 0-7.317 3.145-7.539 7.227-.151 3.911 2.641 7.257 6.441 7.821 42.831 1.594 116.053.948 155.209-15.73 0 30.505-.006 28.513.01 28.701.212 7.082 8.229 7.598 7.564 7.306l.015.001a7.555 7.555 0 007.559-7.559c-.05-154.747 1.011-145.189-1.805-150.045zM133.3 154.138c5.02-6.024 23.406-18.383 29.865-22.799h.02c16.358-11.107 54.891-36.093 70.02-52.492l48.511-55.687v.202c-.968 30.056-16.127 70.746-39.198 93.776-27.872 27.674-87.12 42.295-109.218 37zm30.731 14.363c19.917-2.975 40.546-9.727 57.693-18.515h.01c6.31-3.276 12.357-6.894 17.911-10.845 44.15-1.164 125.625 5.012 139.858 18.384-18.895 17.495-143.825 25.642-215.472 10.976z"/><path d="M387.587 323.589h-.01c-4.265 0-7.559 3.539-7.559 7.559v48.582c-9.214 22.228-214.464 27.148-247.07 1.068l-1.058-1.018V272.447c11.797 7.232 50.762 12.161 63.146 13.587 4.182.436 7.845-2.66 8.295-6.783.393-4.122-2.631-7.831-6.783-8.255-77.536-9.501-64.637-15.252-64.658-35.085 0-4.163-3.387-7.559-7.559-7.559a7.536 7.536 0 00-7.559 7.559c-.117 88.076-.13 62.315 0 230.228 0 10.518 6.515 19.818 16.389 23.444l.01.01c75.461 25.154 149.314 34.258 245.579-.01 10.76-4.303 16.389-13.779 16.389-23.444l.02-134.99c-.003-7.327-8.251-7.863-7.572-7.56zm-18.364 153.324c-80.123 27.411-161.618 25.218-230.883-1.562h-.01c-3.901-1.381-6.441-5.1-6.441-9.212V397.55c49.736 22.849 202.451 20.691 248.129-.01-.902 76.765 5.128 73.081-10.795 79.373z"/></svg>