<svg height="512" viewBox="0 0 511.991 511.991" width="512" xmlns="http://www.w3.org/2000/svg"><path d="M460.037 373.456l-81.306-92.927c16.181-5.292 26.594-9.437 27.208-9.683 10.17-4.069 13.334-16.95 6.205-25.268l-64.301-75.016c15.782-6.362 26.429-11.806 27.491-12.354 9.165-4.73 11.536-16.804 4.796-24.646l-110-128c-6.384-7.429-17.739-7.334-24.083-.213l-114 128c-6.942 7.794-4.674 20.068 4.61 24.859 1.062.548 11.709 5.991 27.491 12.354l-64.301 75.016c-7.128 8.316-3.967 21.198 6.205 25.268.614.246 11.027 4.391 27.208 9.683l-81.306 92.927c-6.937 7.929-4.445 20.324 5.061 24.933 3.236 1.569 63.534 30.478 134.98 43.422v38.181h-48c-8.836 0-16 7.164-16 16s7.164 16 16 16h224c8.836 0 16-7.164 16-16s-7.164-16-16-16h-48v-38.181c71.446-12.944 131.744-41.853 134.98-43.422 9.481-4.597 12.018-16.982 5.062-24.933zM257.78 40.29l84.248 98.034a377.816 377.816 0 01-16.665 6.609l-25.602-27.784c-5.989-6.499-16.11-6.913-22.609-.924-6.498 5.988-6.912 16.11-.924 22.609l15.197 16.492c-29.723 7.005-59.662 9.09-121.085-16.857zm-61.257 141.672c44.5 13.294 74.505 13.276 118.944 0l57.288 66.834c-41.671 13.966-90.931 26.14-134.675 22.363l15.127-22.142c4.984-7.296 3.11-17.252-4.186-22.237-7.296-4.984-17.251-3.111-22.237 4.186l-23.931 35.029c-21.165-4.211-43.184-10.351-63.616-17.201zm91.472 298.029h-64v-33.652c22.109 2.198 41.873 2.2 64 0zm-32-64c-28.728 0-58.283-4.889-85.116-11.488l18.428-27.636c4.902-7.352 2.917-17.286-4.436-22.188-7.351-4.902-17.286-2.917-22.188 4.436l-24.21 36.308a604.853 604.853 0 01-48.048-17.34l76.622-87.574c67.501 17.829 110.211 17.879 177.896 0l76.622 87.573c-32.648 13.393-101.208 37.909-165.57 37.909z"/><path d="M334.306 328.836c-3.952-7.904-13.564-11.106-21.466-7.156-7.904 3.952-11.107 13.563-7.156 21.466l16 32c2.804 5.607 8.454 8.848 14.323 8.848 11.758 0 19.652-12.453 14.299-23.159z"/></svg>