<svg height="512" width="512" xmlns="http://www.w3.org/2000/svg"><path d="M234.483 89.086L20.7 162.573a15.843 15.843 0 00-5.851 26.382L162.8 331.735a15.726 15.726 0 0010.955 4.451 16.063 16.063 0 004.025-.516 15.734 15.734 0 0011.177-10.722l65.83-216.268a15.842 15.842 0 00-20.306-19.594zm8.826 16.1l-65.83 216.268a3.843 3.843 0 01-6.344 1.646L23.178 180.32a3.843 3.843 0 011.419-6.4l213.787-73.488a3.842 3.842 0 014.925 4.753z"/><path d="M158.391 246.338a15.843 15.843 0 1011.283 4.44 15.738 15.738 0 00-11.283-4.44zm3.047 18.507a3.842 3.842 0 11-2.833-6.509h.07a3.841 3.841 0 012.763 6.509zm21-113.066a20.763 20.763 0 00.362 41.521h.38a20.63 20.63 0 0014.571-6.341 20.786 20.786 0 00-.523-29.359 20.5 20.5 0 00-14.79-5.821zm6.676 26.846a8.764 8.764 0 11-6.463-14.847h.16a8.765 8.765 0 016.3 14.85zm-98.868-5.052a25.685 25.685 0 0018.47 43.52h.469a25.685 25.685 0 10-18.939-43.516zm28.329 27.339a13.678 13.678 0 11-.344-19.351 13.595 13.595 0 01.344 19.351zm372.557 59.774L276.51 189.673a15.842 15.842 0 00-20.635 17.448l31.251 203.226a15.824 15.824 0 0024.924 10.444l183.37-132.214a15.843 15.843 0 00-4.288-27.891zm-2.73 18.156L305.031 411.056a3.843 3.843 0 01-6.045-2.533L267.736 205.3a3.786 3.786 0 011.316-3.518 3.866 3.866 0 012.456-.919 3.924 3.924 0 011.232.2l214.622 71.014a3.842 3.842 0 011.04 6.763z"/><path d="M325.959 257.617a15.844 15.844 0 10-15.648-13.436 16.018 16.018 0 0015.648 13.436zm-.574-19.642a3.894 3.894 0 01.586-.045 3.844 3.844 0 11-.586.045zm70.925 47.136a20.764 20.764 0 1023.678 17.366 20.786 20.786 0 00-23.678-17.366zm4.49 29.189a8.763 8.763 0 117.33-9.994 8.774 8.774 0 01-7.33 9.994zm-76.36-39.244a30.606 30.606 0 1034.9 25.6 30.642 30.642 0 00-34.9-25.6zm7.479 48.64a18.606 18.606 0 1115.563-21.217 18.617 18.617 0 01-15.563 21.221z"/></svg>