<svg xmlns="http://www.w3.org/2000/svg" viewBox="0 0 512 512"><path d="M476.606 155.393L421 99.787V46.623C421 20.915 400.085 0 374.377 0H137.623C111.915 0 91 20.915 91 46.623v53.164l-55.606 55.606a15.017 15.017 0 00-4.382 10.384c-.002.076-.012.149-.012.224V497c0 8.284 6.716 15 15 15h420c8.284 0 15-6.716 15-15V166c0-3.978-1.58-7.794-4.394-10.607zM121 46.623C121 37.457 128.457 30 137.623 30h236.754C383.543 30 391 37.457 391 46.623V91H121V46.623zM331 482H61V181h270v301zM82.213 151l30-30h257.574l-30 30H82.213zM451 482h-90V172.213l45-45 45 45V482z"/><path d="M211 272.257V271c0-8.271 6.729-15 14.998-15 8.284 0 15-6.716 15-15s-6.716-15-15-15C201.187 226 181 246.187 181 271v1.257c-42.511 7.163-75 44.227-75 88.743 0 49.626 40.374 90 90 90s90-40.374 90-90c0-44.516-32.489-81.58-75-88.743zM196 421c-33.084 0-60-26.916-60-60s26.916-60 60-60 60 26.916 60 60-26.916 60-60 60z"/></svg>