<svg xmlns="http://www.w3.org/2000/svg" viewBox="0 0 511.999 511.999"><path d="M467.623 44.355C439.02 15.753 400.99 0 360.539 0s-78.481 15.753-107.083 44.355c-25.513 25.508-55.762 73.683-77.06 122.732-14.113 32.5-35.775 92.321-27.61 137.953l-.452.452-58.535 58.536c-21.939-16.604-53.406-14.907-73.401 5.086-21.848 21.848-21.848 57.399.005 79.252a56.093 56.093 0 0031.426 15.789c1.75 11.814 7.239 22.874 15.798 31.422 10.582 10.589 24.653 16.421 39.62 16.421s29.038-5.832 39.618-16.418c19.979-19.979 21.686-51.417 5.081-73.394l58.541-58.531-.007-.002c.011-.011.021-.024.033-.035l.426-.426c45.629 8.17 105.453-13.492 137.953-27.605 49.044-21.297 97.218-51.542 122.731-77.053 28.609-28.609 44.364-66.643 44.364-107.094 0-40.451-15.757-78.482-44.364-107.085zm-283.628 309.82l-59.763 59.749a11.305 11.305 0 00.669 16.606c.729.62 1.392 1.225 1.975 1.802 6.313 6.311 9.789 14.704 9.789 23.631s-3.476 17.319-9.791 23.633c-6.311 6.316-14.703 9.794-23.628 9.794-8.926 0-17.316-3.478-23.636-9.801-6.724-6.716-10.269-16.036-9.725-25.566a11.307 11.307 0 00-11.94-11.93 33.461 33.461 0 01-25.56-9.719c-13.033-13.034-13.033-34.241 0-47.274 13.03-13.03 34.233-13.031 47.21-.052a36.656 36.656 0 011.853 2.027 11.301 11.301 0 008.155 3.971 11.348 11.348 0 008.45-3.301l59.755-59.756-.002-.003c5.052 2.144 9.754 2.371 13.323 2.539 4.514.213 5.781.355 7.878 2.454 2.094 2.091 2.236 3.359 2.45 7.872.17 3.568.396 8.269 2.541 13.323l-.003.001zm267.641-111.627c-23.666 23.666-69.099 52.046-115.749 72.302-53.452 23.211-100.779 32.338-129.849 25.043a11.35 11.35 0 00-2.007-.315c-.274-5.748-.773-14.33-9.037-22.585-8.261-8.27-16.844-8.769-22.593-9.041a11.309 11.309 0 00-.315-2.009c-7.291-29.072 1.838-76.401 25.049-129.851 20.258-46.653 48.64-92.086 72.309-115.749 24.331-24.332 56.683-37.733 91.096-37.733s66.765 13.401 91.098 37.734c24.338 24.332 37.74 56.686 37.74 91.097 0 34.413-13.404 66.768-37.742 91.107z"/><path d="M462.759 133.944c-1.046-6.154-6.879-10.3-13.039-9.252-6.155 1.046-10.296 6.883-9.252 13.039 4.412 25.967-4.023 52.538-22.563 71.078-9.187 9.188-25.953 21.57-44.848 33.121-5.327 3.256-7.005 10.215-3.749 15.542a11.298 11.298 0 0015.541 3.748c20.634-12.615 38.51-25.89 49.043-36.423 23.712-23.712 34.503-57.675 28.867-90.853zm-44.115-39.121a11.276 11.276 0 008.096 3.414c2.844 0 5.692-1.067 7.889-3.209 4.471-4.358 4.561-11.515.203-15.986-.311-.319-.625-.636-.942-.953-4.414-4.414-11.573-4.414-15.988 0-4.414 4.414-4.414 11.573 0 15.988.251.246.499.495.742.746z"/></svg>