<svg height="512pt" viewBox="-31 0 512 512.001" width="512pt" xmlns="http://www.w3.org/2000/svg"><path d="M353.023 126.238c-41.21-10.379-84.867-.425-108.632 24.758a26.752 26.752 0 01-4.07 3.516C245.6 101.52 290.44 60 344.796 60c8.285 0 15-6.715 15-15s-6.715-15-15-15c-43.695 0-82.602 20.871-107.29 53.164C227.43 35.711 185.208 0 134.798 0h-60c-8.285 0-15 6.715-15 15 0 57.898 47.101 104.988 105 104.988h52.723a134.073 134.073 0 00-7.36 35.11 26.797 26.797 0 01-4.976-4.121c-25.016-26.493-65.739-36.852-106.282-27.028-43.5 10.54-76.812 42.235-89.105 84.785-10.871 37.618-12.793 83.637-5.274 126.262 8.114 46.024 26.11 89.457 50.676 122.309C81.574 492.575 113.035 512 143.777 512c12.317 0 24.145-3.02 35.149-8.973 14.199-7.691 30.062-11.754 45.87-11.754 15.806 0 31.68 4.067 45.876 11.743 10.965 5.96 22.789 8.984 35.144 8.984 30.747 0 62.204-19.426 88.582-54.7 24.563-32.847 42.563-76.288 50.672-122.316 7.25-41.086 5.73-85.73-4.168-122.488-11.773-43.719-43.8-75.16-87.879-86.258zM164.797 90c-36.219 0-66.524-25.809-73.492-60h43.492c36.219 0 66.523 25.809 73.492 60zm250.73 239.773c-7.312 41.493-23.351 80.403-45.156 109.563C350.094 466.449 326.566 482 305.816 482c-7.293 0-14.293-1.797-20.843-5.36-18.602-10.054-39.407-15.367-60.176-15.367-20.781 0-41.582 5.317-60.149 15.372-6.57 3.554-13.593 5.355-20.87 5.355-20.75 0-44.278-15.55-64.555-42.664-21.809-29.156-37.844-68.063-45.157-109.55-6.652-37.708-4.949-79.845 4.551-112.723 9.406-32.555 33.953-55.864 67.352-63.958 29.648-7.183 60.027.067 77.402 18.47 10.707 11.335 25.797 17.84 41.402 17.847h.032c15.62-.004 30.71-6.504 41.402-17.832 16.285-17.258 48.973-23.942 79.488-16.258 19.528 4.918 54.102 19.895 66.239 64.965 8.668 32.18 10.011 73.105 3.593 109.476zm0 0"/></svg>