<svg xmlns="http://www.w3.org/2000/svg" viewBox="0 0 512.001 512.001"><path d="M509.026 2.885A9.995 9.995 0 00498.642.583L83.289 148.68c-14.43-8.824-32.733-10.89-49.52-3.939-27.865 11.543-41.146 43.604-29.604 71.471 27.219 65.708 66.518 124.525 116.809 174.816s109.107 89.591 174.816 116.809a54.41 54.41 0 0020.861 4.164c21.475-.001 41.894-12.726 50.609-33.769 5.864-14.158 5.31-29.396-.299-42.48L511.462 13.238a10.002 10.002 0 00-2.436-10.353zM146.179 147.489l44.02-15.694a25.442 25.442 0 016.678 20.752c-.89 6.75-4.354 12.751-9.755 16.896-5.401 4.145-12.089 5.936-18.844 5.049-6.749-.889-12.749-4.352-16.894-9.754-3.819-4.977-5.636-11.049-5.205-17.249zm202.603 323.088c-7.322 17.678-27.664 26.103-45.338 18.779-128.04-53.035-227.763-152.759-280.8-280.799-3.547-8.563-3.547-17.994 0-26.558 3.547-8.563 10.216-15.232 18.779-18.779s17.995-3.547 26.558 0 15.232 10.216 18.779 18.779c22.701 54.807 55.481 103.865 97.429 145.813 41.948 41.948 91.006 74.727 145.813 97.429 17.678 7.321 26.103 27.66 18.78 45.336zm88.843-303.248a25.786 25.786 0 01-2.715-.192c-6.749-.889-12.749-4.353-16.893-9.754-4.145-5.401-5.938-12.094-5.05-18.843 1.835-13.934 14.66-23.776 28.599-21.944 4.3.566 8.337 2.234 11.78 4.771l-15.721 45.962zm22.368-65.406a45.478 45.478 0 00-15.817-5.156c-24.871-3.283-47.764 14.294-51.038 39.163-1.586 12.046 1.614 23.989 9.011 33.629 7.125 9.285 17.325 15.351 28.831 17.201l-19.876 58.119-22.858-17.54c-4.381-3.36-10.66-2.536-14.021 1.846-3.362 4.382-2.535 10.659 1.846 14.021l28.205 21.642-51.694 151.155a54.475 54.475 0 00-14.922-9.241c-105.98-43.899-188.52-126.439-232.417-232.417a54.66 54.66 0 00-5.609-10.26l26.779-9.548c.935 8.068 4.032 15.764 9.105 22.375 7.396 9.64 18.105 15.822 30.151 17.407 2.018.266 4.03.398 6.032.398 9.948 0 19.572-3.25 27.597-9.407 9.641-7.398 15.822-18.105 17.409-30.153a45.412 45.412 0 00-6.768-30.401l124.307-44.322 4.711 11.374a10.005 10.005 0 009.243 6.176 9.98 9.98 0 003.823-.764c5.102-2.113 7.525-7.964 5.412-13.066l-4.326-10.445 132.719-47.322-25.835 75.536z"/><path d="M108 268.276c-.03-.047-.113-.174-.145-.22-3.062-4.593-9.259-5.826-13.854-2.767-4.587 3.054-5.831 9.253-2.795 13.848a9.995 9.995 0 0013.789 2.958c4.646-2.987 5.991-9.174 3.005-13.819zm-15.209-24.843a473.307 473.307 0 01-26.036-53.147c-2.113-5.104-7.966-7.524-13.065-5.411-5.103 2.113-7.525 7.963-5.411 13.065a493.223 493.223 0 0027.14 55.401 9.997 9.997 0 0013.64 3.733c4.797-2.737 6.469-8.844 3.732-13.641zm220.142-115.446a45.819 45.819 0 00-5.983-.394c-22.717 0-42.087 17.005-45.055 39.555-3.274 24.868 14.293 47.764 39.161 51.038 1.982.262 3.995.394 5.983.394 22.716 0 42.086-17.005 45.055-39.557 3.273-24.867-14.294-47.762-39.161-51.036zm19.333 48.426c-1.664 12.637-12.509 22.166-25.227 22.166-1.118 0-2.253-.074-3.372-.222-13.935-1.835-23.777-14.664-21.943-28.599 1.664-12.636 12.508-22.164 25.226-22.164 1.118 0 2.253.074 3.372.222 13.934 1.836 23.778 14.664 21.944 28.597zm-21.935 75.961a45.83 45.83 0 00-5.983-.394c-22.717 0-42.087 17.005-45.055 39.556-1.587 12.047 1.613 23.989 9.01 33.63 7.396 9.64 18.104 15.822 30.151 17.409 1.981.261 3.993.392 5.98.392 22.717 0 42.088-17.005 45.057-39.557 3.275-24.866-14.293-47.76-39.16-51.036zm19.333 48.427c-1.664 12.637-12.51 22.166-25.228 22.166a25.96 25.96 0 01-3.37-.222c-6.75-.89-12.75-4.354-16.895-9.755-4.145-5.401-5.938-12.093-5.049-18.844 1.664-12.636 12.509-22.165 25.226-22.165 1.118 0 2.253.074 3.372.222 13.933 1.835 23.777 14.664 21.944 28.598zm-85.289-89.855l-30.736-4.047c-5.473-.727-10.499 3.133-11.22 8.608-.722 5.476 3.133 10.499 8.608 11.22l30.736 4.047c.443.059.883.087 1.318.087 4.941 0 9.239-3.663 9.901-8.695.723-5.475-3.131-10.499-8.607-11.22zm-15.585 73.797l-2.714-20.624c-.721-5.476-5.743-9.332-11.219-8.609-5.476.721-9.33 5.743-8.609 11.219l2.715 20.624c.662 5.033 4.959 8.696 9.901 8.696.435 0 .875-.028 1.317-.087 5.476-.721 9.33-5.743 8.609-11.219z"/></svg>